<?xml version="1.0" standalone="no"?>
<!DOCTYPE svg PUBLIC "-//W3C//DTD SVG 1.1//EN" "http://www.w3.org/Graphics/SVG/1.1/DTD/svg11.dtd" >
<svg xmlns="http://www.w3.org/2000/svg" xmlns:xlink="http://www.w3.org/1999/xlink" version="1.1">
<metadata>
Created by FontForge 20170731 at Sat Nov 30 01:03:24 2019
 By Aleksey,,,
Copyright (c) 2019 by Nasir Udin. All rights reserved.
</metadata>
<defs>
<font id="RestoraExtraLight" horiz-adv-x="683" >
  <font-face 
    font-family="Restora ExtraLight"
    font-weight="200"
    font-stretch="normal"
    units-per-em="1000"
    panose-1="2 0 0 0 0 0 0 0 0 0"
    ascent="773"
    descent="-227"
    x-height="535"
    cap-height="700"
    bbox="-408.881 -262 1649 965"
    underline-thickness="50"
    underline-position="-200"
    unicode-range="U+000D-FB06"
  />
<missing-glyph horiz-adv-x="655" 
d="M78 -62v764h508v-764h-508zM127 665l209 -338l207 338h-416zM335 253l-179 -278h356zM116 -25l198 317l-198 314v-631zM360 295l185 -299v607z" />
    <glyph glyph-name="f_b" unicode="fb" horiz-adv-x="881" 
d="M481 535q137 14 238 -67t101 -202q0 -113 -75.5 -194.5t-184.5 -81.5q-43 0 -84.5 10t-59.5 10v658q0 41 -32 64t-77 23q-57 0 -104.5 -38.5t-47.5 -102.5q0 -15 6.5 -47t6.5 -42h153l-5 -28h-148v-389q0 -30 14 -62.5t37 -32.5v-13h-168v13q22 0 36.5 32.5t14.5 62.5
v389h-61v28h61q0 20 -4 42t-4 41q0 83 67 128t147 45q48 0 107 -14t66 -14v-218zM543 26q30 0 61.5 11t64 35.5t53.5 74.5t21 118q0 111 -80.5 182t-181.5 53v-394q0 -48 15 -64t47 -16z" />
    <glyph glyph-name="f_h" unicode="fh" horiz-adv-x="910" 
d="M481 753v-325q30 40 83.5 77t106.5 37q76 0 110.5 -42.5t34.5 -146.5v-245q0 -30 14.5 -63t36.5 -33v-12h-166v12q23 0 37 32.5t14 63.5v245q0 133 -103 133q-33 0 -89.5 -41.5t-78.5 -69.5v-267q0 -31 14 -63.5t37 -32.5v-12h-167v12q23 0 37 32.5t14 63.5v567
q0 33 -34 56.5t-83 23.5q-48 0 -96.5 -38t-48.5 -103q0 -12 2.5 -29.5t6.5 -36t5 -23.5h152l-4 -28h-148v-389q0 -31 14 -63.5t37 -32.5v-12h-168v12q22 0 36.5 33t14.5 63v389h-61v28h61q0 1 -2.5 16t-4 32.5t-1.5 34.5q0 83 67 128t147 45q53 0 110 -14t63 -14z" />
    <glyph glyph-name="f_j" unicode="fj" horiz-adv-x="540" 
d="M330 -197q75 0 75 197v419q0 30 -13 54t-41 24h-183v-389q0 -31 14 -63.5t37 -32.5v-12h-168v12q22 0 36.5 33t14.5 63v389h-61v28h61q0 20 -4 42t-4 41q0 82 62 127.5t134 45.5q75 0 120 -35.5t45 -86.5q0 -54 -46 -54q-11 0 -19 6.5t-10 12.5l-2 7q0 14 -2.5 29
t-11 38.5t-30 38t-53.5 14.5q-40 0 -82.5 -36t-42.5 -92q0 -27 6 -58t6 -40h303v-495q0 -49 -6.5 -91.5t-22 -81.5t-44 -61.5t-68.5 -22.5q-54 0 -93 29.5t-39 66.5q0 22 12 36.5t30 14.5q10 0 17.5 -5t9.5 -10l2 -5q-3 -17 -0.5 -37t18 -40t43.5 -20z" />
    <glyph glyph-name="f_k" unicode="fk" horiz-adv-x="873" 
d="M481 753v-461l114 125q58 64 55 94q-1 12 -15 12v12h156v-12q-36 0 -71 -30.5t-158 -159.5q152 -33 204 -210q18 -60 35 -85.5t46 -25.5v-12h-168v12q36 0 25 67q-13 79 -67 151q-51 67 -103 69l-53 -57v-134q0 -30 14 -62.5t37 -32.5v-13h-167v13q23 0 37 32.5t14 62.5
v567q0 37 -33.5 58.5t-78.5 21.5q-54 0 -102 -38.5t-48 -102.5q0 -12 14 -89h152l-4 -28h-148v-389q0 -30 14 -62.5t37 -32.5v-13h-168v13q22 0 36.5 32.5t14.5 62.5v389h-61v28h61q0 8 -4 34.5t-4 48.5q0 83 67 128t147 45q54 0 112.5 -14t60.5 -14z" />
    <glyph glyph-name="f_f_b" unicode="ffb" horiz-adv-x="1196" 
d="M796 753v-218q137 14 238 -66.5t101 -201.5q0 -119 -78.5 -198t-178.5 -79q-46 0 -88 10t-59 10v665q0 38 -34 59t-80 21q-53 0 -99.5 -38.5t-46.5 -102.5q0 -15 6 -47t6 -42h153l-5 -27h-148v-390q0 -31 14 -63.5t37 -32.5v-12h-168v12q22 0 36.5 33t14.5 63v390h-249
v-390q0 -31 14 -63.5t37 -32.5v-12h-168v12q22 0 36.5 33t14.5 63v390h-61v27h61q0 6 -4 27t-4 43q0 80 45 119t91 39q55 0 91.5 -32.5t36.5 -67.5q0 -20 -9 -34.5t-29 -14.5q-8 0 -14.5 4.5t-8.5 9.5l-2 4q0 12 -2 25.5t-8 32t-20.5 30t-35.5 11.5q-30 0 -52.5 -34.5
t-22.5 -76.5q0 -24 14 -85h249q0 20 -4 42t-4 41q0 83 67 128t147 45q53 0 110 -14t63 -14zM850 26q101 0 154.5 67.5t53.5 173.5q0 110 -81.5 180.5t-180.5 52.5v-394q0 -80 54 -80z" />
    <glyph glyph-name="f_f_h" unicode="ffh" horiz-adv-x="1225" 
d="M796 753v-325q30 40 83.5 77t106.5 37q76 0 110.5 -42.5t34.5 -146.5v-245q0 -30 14.5 -63t36.5 -33v-12h-166v12q23 0 37 32.5t14 63.5v245q0 134 -99 134q-34 0 -92.5 -42t-79.5 -70v-267q0 -28 18.5 -62t42.5 -34v-12h-177v12q23 0 37 32.5t14 63.5v567q0 33 -34 56.5
t-86 23.5q-47 0 -94.5 -39t-47.5 -102q0 -12 3.5 -33t7 -38t3.5 -18h152l-4 -27h-148v-390q0 -31 14 -63.5t37 -32.5v-12h-168v12q22 0 36.5 33t14.5 63v390h-249v-390q0 -31 14 -63.5t37 -32.5v-12h-168v12q22 0 36.5 33t14.5 63v390h-61v27h61q0 6 -4 27t-4 43
q0 80 45 119t92 39q43 0 85 -28.5t42 -73.5q0 -18 -9 -32.5t-29 -14.5q-8 0 -14.5 4.5t-8.5 9.5l-2 4q0 12 -2 25.5t-7.5 32t-20 30t-35.5 11.5q-31 0 -53.5 -34.5t-22.5 -76.5q0 -15 14 -85h249q0 2 -2 15t-4 32t-2 36q0 83 67 128t147 45q53 0 110 -14t63 -14z" />
    <glyph glyph-name="f_f_k" unicode="ffk" horiz-adv-x="1188" 
d="M796 753v-461l122 134q51 57 46 86q-2 11 -14 11v12h156v-12q-35 0 -71 -31t-158 -159q153 -36 204 -210q18 -60 35 -85.5t46 -25.5v-12h-168v12q37 0 25 68q-14 79 -68 150q-51 69 -102 69l-53 -57v-134q0 -31 14 -63.5t37 -32.5v-12h-167v12q23 0 37 32.5t14 63.5v567
q0 27 -36 53.5t-83 26.5t-95 -39t-48 -102q0 -12 3.5 -33t7 -38t3.5 -18h152l-4 -27h-148v-390q0 -31 14 -63.5t37 -32.5v-12h-168v12q22 0 36.5 33t14.5 63v390h-249v-390q0 -31 14 -63.5t37 -32.5v-12h-168v12q22 0 36.5 33t14.5 63v390h-61v27h61q0 6 -4 27t-4 43
q0 42 14.5 74.5t36.5 49.5t44 25.5t42 8.5q54 0 90.5 -32.5t36.5 -65.5q0 -51 -38 -51q-8 0 -14 4t-8 8l-3 5q0 13 -2 26t-7.5 31.5t-20.5 30.5t-37 12q-30 0 -52 -34.5t-22 -76.5q0 -12 3.5 -32t7 -36t3.5 -17h249q0 5 -4 33t-4 50q0 83 67 128t147 45q53 0 110 -14t63 -14
z" />
    <glyph glyph-name="g_g" unicode="gg" horiz-adv-x="1194" 
d="M565 640q27 0 43 -17t16 -37q0 -18 -8.5 -27.5t-18.5 -9.5q-5 0 -22.5 20t-36.5 20q-35 0 -65 -33t-40 -61q42 -29 67 -74t25 -95q0 -85 -64.5 -141.5t-157.5 -56.5q-24 0 -58.5 9t-54.5 21q-43 -33 -29 -64q21 -46 168 -46q50 0 83.5 -3.5t69 -14.5t53.5 -35.5t18 -63.5
q0 -63 -74 -110.5t-163 -47.5q-41 0 -79.5 5.5t-75 17t-59 34.5t-22.5 55q0 27 18 42t36 17l19 1q-19 -62 31.5 -100.5t133.5 -38.5q68 0 111.5 32t43.5 83q0 20 -8 35t-24.5 24t-31.5 14t-40.5 7t-38 2.5t-37.5 0.5q-206 0 -206 77q0 27 21.5 56.5t43.5 47.5
q-69 61 -69 141q0 86 64.5 146.5t155.5 60.5q69 0 107 -27q25 50 66.5 92t88.5 42zM314 160q60 0 101.5 45.5t35.5 124.5t-53.5 124.5t-106.5 45.5q-52 0 -94 -46t-36 -124q6 -80 50.5 -125t102.5 -45zM1082 598q26 0 46 -16t20 -39q0 -18 -8.5 -29t-17.5 -11
q-5 0 -21.5 25.5t-35.5 25.5q-13 0 -32.5 -16.5t-34.5 -40.5q42 -30 69.5 -74t27.5 -93q0 -85 -64 -143.5t-157 -58.5q-23 0 -57.5 9.5t-54.5 21.5q-52 -43 -22 -74q35 -36 167 -36q47 0 80 -3.5t67 -15t52 -36.5t18 -64q0 -62 -75.5 -109.5t-161.5 -47.5q-41 0 -79 5.5
t-75 17t-59.5 34.5t-22.5 54q0 28 18.5 43t36.5 17l19 1q-21 -55 26 -97t138 -42q67 0 111 31.5t44 82.5q0 24 -13 41t-29.5 25t-45.5 12.5t-45.5 5t-45.5 0.5q-207 0 -207 77q0 47 66 104q-69 61 -69 145q0 86 64 144t155 58q51 0 100 -22q54 88 108 88zM885 162
q59 0 100.5 45t36.5 124q-6 79 -53.5 124t-106.5 45q-51 0 -93 -45.5t-36 -123.5q6 -79 50 -124t102 -45z" />
    <glyph glyph-name="j_j" unicode="jj" horiz-adv-x="500" 
d="M179 545v-505q0 -50 -6 -93t-21 -84.5t-44 -65.5t-70 -24q-49 0 -90.5 27.5t-41.5 69.5q0 22 12 36t32 14q9 0 15.5 -5t8.5 -10l3 -5q-2 -19 0.5 -38.5t17.5 -39t43 -19.5q75 0 75 197v419q0 28 -18.5 59.5t-42.5 31.5v12zM139 620q-18 0 -30.5 13.5t-12.5 31.5
q0 17 12.5 30t30.5 13q19 0 31.5 -13t12.5 -30q0 -18 -13 -31.5t-31 -13.5zM427 545v-495q0 -132 -63 -214.5t-156 -82.5v20q50 3 101.5 72t51.5 165v397q0 29 -19 66t-42 37v12zM387 620q-18 0 -30.5 13t-12.5 31q0 19 12.5 31.5t30.5 12.5q19 0 31.5 -12.5t12.5 -31.5
q0 -18 -12.5 -31t-31.5 -13z" />
    <glyph glyph-name="t_t" unicode="tt" horiz-adv-x="785" 
d="M313 101q15 18 28 18q31 0 31 -40q0 -32 -40.5 -58t-77.5 -26q-66 0 -108.5 41t-42.5 126v338h-52v25q36 0 60 56t24 128l38 42v-216h228q50 0 75.5 49.5t25.5 124.5l38 42v-216h167l-10 -35h-162v-332q0 -71 25 -106t57 -35t47.5 25.5t15.5 48.5q15 18 30 18
q12 0 20.5 -9.5t8.5 -30.5q0 -33 -40.5 -58.5t-84.5 -25.5q-67 0 -105.5 46t-38.5 121v338h-302v-332q0 -66 23.5 -103.5t58.5 -37.5q31 0 47 25.5t16 48.5z" />
    <glyph glyph-name="ff" unicode="ff" horiz-adv-x="663" 
d="M228 753q54 0 92 -31t38 -70q0 -22 -10.5 -35t-28.5 -13q-8 0 -14 4.5t-8 9.5l-2 4q0 12 -2 25.5t-8 31.5t-20 30t-35 12q-31 0 -53.5 -34t-22.5 -77q0 -14 2.5 -29.5t6.5 -33.5t5 -22h249q0 6 -4 32t-4 48q0 78 47.5 118t104.5 40q63 0 105 -35t42 -85q0 -24 -8.5 -35.5
t-33.5 -11.5q-10 0 -18 5t-10 9l-3 5q0 1 0.5 13t0 20t-2 22t-6 23.5t-12 19t-21 14.5t-30.5 5q-41 0 -67 -34.5t-26 -77.5q0 -14 6 -48.5t6 -46.5h174l-5 -27h-169v-390q0 -31 14 -63.5t37 -32.5v-12h-168v12q22 0 36.5 33t14.5 63v390h-249v-390q0 -31 14 -63.5t37 -32.5
v-12h-168v12q22 0 36.5 33t14.5 63v390h-61v27h61q0 6 -4 32t-4 48q0 73 45.5 110.5t88.5 37.5z" />
    <glyph glyph-name="fi" unicode="fi" horiz-adv-x="557" 
d="M291 781q74 0 118.5 -36t44.5 -86q0 -54 -44 -54q-12 0 -20 6.5t-10 12.5l-2 7q0 13 -2.5 28.5t-11 38.5t-29.5 38t-52 15q-46 0 -87 -36.5t-41 -95.5q0 -29 6 -61t6 -33h298v-417q0 -30 14 -62.5t37 -32.5v-13h-162v13q23 0 37 32.5t14 62.5v317q0 22 -2.5 35t-16 25.5
t-39.5 12.5h-180v-390q0 -30 14 -62.5t37 -32.5v-13h-167v13q22 0 36.5 32.5t14.5 62.5v390h-61v27h61q0 4 -2.5 18t-4 31t-1.5 34q0 82 62.5 127.5t134.5 45.5z" />
    <glyph glyph-name="fl" unicode="fl" horiz-adv-x="572" 
d="M481 108q0 -30 14 -62.5t37 -32.5v-13h-167v13q23 0 37 32.5t14 62.5v537q0 40 -30.5 75t-80.5 35q-56 0 -103.5 -39t-47.5 -104q0 -42 14 -87h153l-5 -28h-148v-389q0 -30 14 -62.5t37 -32.5v-13h-168v13q22 0 36.5 32.5t14.5 62.5v389h-61v28h61q0 6 -4 33t-4 49
q0 56 34.5 97.5t80.5 59t93 17.5q46 0 110 -14t69 -14v-645z" />
    <glyph glyph-name="ffi" unicode="ffi" horiz-adv-x="871" 
d="M602 781q77 0 122.5 -35t45.5 -85q0 -56 -44 -56q-13 0 -21 6.5t-10 13.5l-2 7q0 10 -1.5 21.5t-7 30t-15 32.5t-28 24.5t-43.5 10.5q-43 0 -83 -35.5t-40 -92.5q0 -21 2 -39.5t5.5 -35.5t4.5 -23h292v-417q0 -31 14 -63.5t37 -32.5v-12h-161v12q23 0 37 32.5t14 63.5
v323q0 66 -54 66h-179v-389q0 -31 14 -63.5t37 -32.5v-12h-172v12q22 0 36.5 33t14.5 63v389h-249v-389q0 -31 14 -63.5t37 -32.5v-12h-168v12q22 0 36.5 33t14.5 63v389h-61v28h61q0 6 -4 27t-4 43q0 72 43 115t92 43q56 0 92.5 -33t36.5 -66q0 -50 -38 -50q-8 0 -14.5 4.5
t-8.5 9.5l-2 4q0 13 -2 25.5t-7.5 31.5t-20.5 30.5t-37 11.5q-30 0 -52 -34.5t-22 -78.5q0 -12 2.5 -28t6.5 -33t5 -22h249q-1 11 -4.5 36t-3.5 47q0 43 19 77.5t49 54.5t62.5 30.5t62.5 10.5z" />
    <glyph glyph-name="ffl" unicode="ffl" horiz-adv-x="913" 
d="M822 108q0 -31 14 -63.5t37 -32.5v-12h-167v12q23 0 37 32.5t14 63.5v537q0 45 -33 77.5t-76 32.5q-59 0 -105.5 -38.5t-46.5 -103.5q0 -23 13 -88h149l-5 -27h-144v-390q0 -31 14 -63.5t37 -32.5v-12h-168v12q22 0 36.5 33t14.5 63v390h-275v-390q0 -31 14 -63.5
t37 -32.5v-12h-168v12q22 0 36.5 33t14.5 63v390h-61v27h61q0 7 -4 27.5t-4 36.5q0 83 44 123.5t94 40.5q46 0 86 -29.5t40 -69.5q0 -50 -37 -50q-10 0 -16.5 5t-8.5 9l-1 5q0 12 -2 25.5t-8 31.5t-20 29.5t-35 11.5q-33 0 -54.5 -36t-21.5 -76q0 -11 14 -84h275
q-1 9 -4.5 34.5t-3.5 47.5q0 82 65.5 128t139.5 46q53 0 114 -14t68 -14v-645z" />
    <glyph glyph-name="f_t" unicode="ft" horiz-adv-x="728" 
d="M623 102q1 1 3.5 4t4.5 4.5t5 4t7.5 3.5t9.5 1q29 0 29 -41q0 -31 -41 -57t-76 -26q-70 0 -111 42t-41 128v335h-245v-392q0 -28 18.5 -59.5t42.5 -31.5v-17h-188v17q23 0 42 31.5t19 59.5v392h-61v25h61q-10 65 -10 94q0 77 48 125.5t111 48.5q58 0 84.5 -24.5
t26.5 -57.5q0 -48 -39 -48q-8 0 -14 4.5t-8 8.5l-2 5v9.5v12.5t-1 13t-3 14.5t-5.5 12.5t-9 10.5t-13.5 6.5t-19 3q-37 0 -65.5 -36.5t-28.5 -102.5q0 -19 5 -53t9 -46h163q23 0 40 7.5t26.5 16t18 30.5t11.5 33t9.5 43.5t8.5 43.5l39 42v-216h166l-10 -25h-162v-332
q0 -66 23 -103.5t56 -37.5q34 0 50 25.5t16 49.5z" />
    <glyph glyph-name=".notdef" horiz-adv-x="655" 
d="M78 -62v764h508v-764h-508zM127 665l209 -338l207 338h-416zM335 253l-179 -278h356zM116 -25l198 317l-198 314v-631zM360 295l185 -299v607z" />
    <glyph glyph-name=".null" horiz-adv-x="0" 
 />
    <glyph glyph-name="nonmarkingreturn" horiz-adv-x="333" 
 />
    <glyph glyph-name="NULL" horiz-adv-x="0" 
 />
    <glyph glyph-name="NULL" horiz-adv-x="0" 
 />
    <glyph glyph-name="CR" unicode="&#xd;" horiz-adv-x="317" 
 />
    <glyph glyph-name="space" unicode=" " horiz-adv-x="291" 
 />
    <glyph glyph-name="exclam" unicode="!" horiz-adv-x="303" 
d="M150 87q19 0 32 -13t13 -32t-13 -32t-32 -13t-31.5 13t-12.5 32t12.5 32t31.5 13zM149 200q-12 0 -16 16t-6 53l-13 350q-5 90 35 90q43 0 38 -90q-16 -332 -18 -350q0 -4 -0.5 -11.5t-1 -12t-1 -10.5t-1.5 -9.5t-2 -8.5t-2 -7.5t-3 -5t-4 -3.5t-5 -1z" />
    <glyph glyph-name="quotedbl" unicode="&#x22;" horiz-adv-x="359" 
d="M129 703q51 0 51 -80q0 -48 -33 -96t-89 -54v14q31 4 59 35.5t16 77.5q-2 8 -23.5 22.5t-24.5 32.5q-3 19 9.5 33.5t34.5 14.5zM275 703q51 0 51 -80q0 -48 -33 -96t-89 -54v14q31 4 59 35.5t16 77.5q-2 8 -23.5 22.5t-24.5 32.5q-3 19 9.5 33.5t34.5 14.5z" />
    <glyph glyph-name="numbersign" unicode="#" horiz-adv-x="609" 
d="M371 177l-47 -143h-37l46 143h-128l-47 -143h-37l46 143h-91l10 35h90l50 155h-90l9 35h91l62 191h39l-62 -191h127l62 191h39l-62 -191h91l-10 -35h-91l-50 -155h91l-10 -35h-91zM265 367l-50 -155h127l50 155h-127z" />
    <glyph glyph-name="dollar" unicode="$" horiz-adv-x="591" 
d="M282 773h26v-83q95 -3 143 -54.5t26 -93.5q-10 -18 -24.5 -21.5t-24.5 2.5l-9 6q0 10 -6 29t-17.5 42t-34.5 41.5t-53 21.5v-266q103 -66 135 -96q60 -55 60 -109q0 -63 -51.5 -114t-143.5 -60v-98h-26v96q-86 0 -146.5 46.5t-60.5 105.5q0 24 7 43.5t17 30t20.5 18
t17.5 10.5l7 2q-14 -25 -13.5 -62.5t14.5 -74.5t50 -63t87 -26v288q-86 53 -115 82q-54 55 -54 129q0 63 47 103t122 41v84zM437 175q0 24 -11.5 45.5t-35 41t-39.5 30t-43 26.5v-271q61 9 95 47t34 81zM170 553q0 -66 112 -138v249q-40 -3 -76 -31t-36 -80z" />
    <glyph glyph-name="percent" unicode="%" horiz-adv-x="774" 
d="M389 537q0 -73 -49.5 -123t-125.5 -50q-75 0 -124.5 50t-49.5 123q0 72 49.5 122t124.5 50q76 0 125.5 -50t49.5 -122zM544 336q76 0 125.5 -50t49.5 -122q0 -73 -49.5 -123t-125.5 -50q-75 0 -124.5 50t-49.5 123q0 72 49.5 122t124.5 50zM601 700h26l-471 -700h-35z
M103 537q5 -65 42 -109t83 -44q47 0 75.5 43.5t23.5 109.5q-5 65 -42 108.5t-85 43.5q-47 0 -74.5 -43t-22.5 -109zM556 12q46 0 74.5 43t23.5 109q-5 65 -41.5 108t-84.5 43q-47 0 -74.5 -43t-22.5 -108q5 -66 41.5 -109t83.5 -43z" />
    <glyph glyph-name="ampersand" unicode="&#x26;" horiz-adv-x="796" 
d="M641 330q-89 -146 -94 -158q79 -84 98 -99q54 -43 103 -26q-30 -50 -73 -50q-49 0 -155 125q-56 -72 -112 -107.5t-125 -35.5q-27 0 -55.5 4.5t-60.5 17.5t-56.5 32.5t-40.5 54t-16 77.5q0 35 17.5 67t53.5 61.5t60 45.5t67 42q-46 42 -72 82t-26 89q0 70 52.5 112.5
t124.5 42.5q63 0 111.5 -38.5t48.5 -95.5q0 -13 -5 -27t-10.5 -25t-18.5 -25t-21 -22t-27 -22.5t-26.5 -19.5t-29 -20.5t-26.5 -18.5l199 -201l84 138q10 18 15 39t1 36.5t-20 15.5v12h130v-12q-7 0 -14.5 -3t-13.5 -6.5t-14 -11.5t-12.5 -13t-12 -15.5t-10.5 -14.5
t-10 -14.5t-8 -12.5zM294 22q55 0 113.5 37t89.5 85l-222 218q-145 -113 -145 -190q0 -68 52.5 -109t111.5 -41zM326 680q-39 0 -75 -31.5t-36 -82.5q0 -33 17 -66t31 -48t44 -43q3 2 18 15t23 20t22.5 21t23.5 24.5t18.5 24t14 26t4.5 24.5q0 51 -28 83.5t-77 32.5z" />
    <glyph glyph-name="quotesingle" unicode="'" horiz-adv-x="222" 
d="M128 703q51 0 51 -80q0 -48 -33 -96t-89 -54v14q31 4 59 35.5t16 77.5q-2 8 -23.5 22.5t-24.5 32.5q-3 19 9.5 33.5t34.5 14.5z" />
    <glyph glyph-name="parenleft" unicode="(" horiz-adv-x="326" 
d="M234 -94q-76 98 -122.5 201.5t-46.5 232.5q0 67 13.5 128.5t41.5 119t52 96.5t63 95l20 -14q-68 -116 -104 -213.5t-36 -211.5q0 -112 36 -210t103 -213z" />
    <glyph glyph-name="parenright" unicode=")" horiz-adv-x="326" 
d="M90 -93l-20 11q139 216 139 422q0 196 -141 422l19 13q78 -112 123.5 -215t45.5 -220q0 -221 -166 -433z" />
    <glyph glyph-name="asterisk" unicode="*" horiz-adv-x="442" 
d="M367 568q4 -13 -1 -23.5t-18 -14.5q-93 -11 -106 -12l81 -89q8 -10 6.5 -21.5t-12.5 -18.5q-26 -19 -41 6q-23 37 -58 115q-1 -2 -2.5 -10t-15 -33.5t-43.5 -73.5q-19 -24 -40 -7q-24 17 -7 41q11 21 91 90l-104 21q-13 3 -18.5 13.5t-1.5 22.5q10 27 38 19
q80 -41 93 -49v1q-8 14 -18 119q0 13 8 22t20 9q14 0 22 -9t8 -22q0 -14 -17 -120v0q4 4 99 41q29 8 37 -17z" />
    <glyph glyph-name="plus" unicode="+" horiz-adv-x="586" 
d="M102 321h171v180h36v-180h163v-36h-163v-174h-36v174h-171v36z" />
    <glyph glyph-name="comma" unicode="," horiz-adv-x="257" 
d="M132 113q23 0 35.5 -21.5t12.5 -51.5q0 -31 -13.5 -61.5t-48.5 -57t-85 -30.5v13q43 0 81.5 35t20.5 77q-3 6 -24.5 22t-21.5 33q0 21 13 31.5t30 10.5z" />
    <glyph glyph-name="hyphen" unicode="-" horiz-adv-x="479" 
d="M95 314h279v-32h-279v32z" />
    <glyph glyph-name="period" unicode="." horiz-adv-x="183" 
d="M90 -3q-17 0 -29 12t-12 28q0 17 12 28.5t29 11.5q16 0 27.5 -11.5t11.5 -28.5q0 -16 -11.5 -28t-27.5 -12z" />
    <glyph glyph-name="slash" unicode="/" horiz-adv-x="426" 
d="M383 750h38l-353 -826h-35z" />
    <glyph glyph-name="zero" unicode="0" horiz-adv-x="727" 
d="M364 712q123 0 210.5 -105.5t87.5 -254.5t-87.5 -256.5t-210.5 -107.5t-211 107t-88 257q0 149 87.5 254.5t211.5 105.5zM385 20q90 0 151 98.5t51 233.5q-10 136 -83.5 233.5t-164.5 97.5q-89 0 -150 -98t-51 -233q9 -136 83 -234t164 -98z" />
    <glyph glyph-name="one" unicode="1" horiz-adv-x="351" 
d="M213 712v-604q0 -30 14 -62t37 -32v-14h-163v14q23 0 37 32t14 62v445q0 91 -83 91v14z" />
    <glyph glyph-name="two" unicode="2" horiz-adv-x="613" 
d="M142 58h196q58 0 114 13t60 43h14l-9 -114h-451q0 54 21.5 102.5t56.5 85.5t77 71t84 64.5t77 60.5t56.5 66t21.5 74q0 49 -40 100.5t-109 51.5q-55 0 -99.5 -44t-44.5 -107q0 -69 -33 -69q-48 0 -48 56q0 72 63.5 133.5t161.5 61.5q103 0 163 -51t60 -134
q0 -54 -40.5 -106t-98 -93.5t-115 -82t-98 -88t-40.5 -94.5z" />
    <glyph glyph-name="three" unicode="3" horiz-adv-x="582" 
d="M291 459q113 -19 167 -79t54 -137q0 -100 -72.5 -177.5t-180.5 -77.5q-47 0 -89.5 14t-76 50t-37.5 89q0 40 15 66t42 26q16 0 29 -8.5t18 -16.5l4 -9q-34 -47 -34 -80q0 -40 39 -69.5t92 -29.5q75 0 126 65.5t51 144.5q0 87 -64 142.5t-170 55.5l21 38q66 32 115.5 87
t49.5 88h-123q-53 0 -98 -12.5t-49 -43.5h-16l7 115h362q0 -37 -12.5 -70.5t-37 -60t-44 -43.5t-50 -38.5t-38.5 -28.5z" />
    <glyph glyph-name="four" unicode="4" horiz-adv-x="535" 
d="M412 108q0 -30 14 -62t37 -32v-14h-164v14q23 0 37 32t14 62v51h-304q0 45 40 125t87 152.5t86 148.5t39 115h75q-14 -64 -69.5 -159.5t-120.5 -195t-87 -150.5h254v276q16 1 31.5 8.5t22.5 14.5l8 6v-305h67q0 -13 -2.5 -18t-6.5 -4t-11.5 -2t-13.5 -12h-33v-51z" />
    <glyph glyph-name="five" unicode="5" horiz-adv-x="569" 
d="M272 468q66 0 115 -20.5t75 -54t38 -68.5t12 -71q0 -96 -71.5 -181t-182.5 -85q-76 0 -141 39.5t-65 114.5q-2 34 15.5 63.5t47.5 29.5q14 0 25 -7.5t15 -15.5l4 -8q-30 -41 -30 -88q0 -40 37.5 -68t88.5 -28q73 0 127.5 71.5t54.5 148.5q0 80 -52 137.5t-142 57.5
q-8 0 -59.5 -3t-60.5 -3q-24 20 -25.5 63t8.5 110t10 98q33 -6 102 -6.5t145.5 2.5t84.5 3l10 -118h-14q-4 31 -48 43.5t-97 12.5h-134q0 -16 -10 -80.5t-10 -97.5q88 9 127 9z" />
    <glyph glyph-name="six" unicode="6" horiz-adv-x="599" 
d="M297 461q101 0 169 -68.5t68 -166.5q0 -99 -63.5 -167t-163.5 -68q-104 0 -175 65.5t-71 169.5q0 80 30 157.5t82 141.5t108 113.5t121 92.5l8 -22q-160 -146 -215 -262q38 14 102 14zM316 19q68 0 104.5 58.5t36.5 142.5q0 86 -47 150t-126 64q-26 0 -60.5 -9t-45.5 -15
q-44 -94 -44 -183q0 -80 55 -144t127 -64z" />
    <glyph glyph-name="seven" unicode="7" horiz-adv-x="482" 
d="M201 646q-54 0 -100.5 -12.5t-50.5 -43.5h-17l7 110h421q0 -47 -42.5 -142t-93 -188t-93 -198.5t-42.5 -171.5h-90q18 77 97.5 226t148.5 271.5t69 148.5h-214z" />
    <glyph glyph-name="eight" unicode="8" horiz-adv-x="588" 
d="M380 370q74 -44 113.5 -86.5t39.5 -98.5q0 -89 -60 -145t-188 -56q-96 0 -158.5 58t-62.5 125t50 120t121 77q-60 41 -94.5 85t-34.5 103q0 75 60 115t142 40q92 0 149.5 -45.5t57.5 -97.5q0 -61 -41 -112.5t-94 -81.5zM301 17q66 3 115 44t49 92q0 19 -5.5 35.5
t-20 33.5t-25 28.5t-36.5 28.5t-37.5 24.5t-45 26.5t-42.5 25q-122 -64 -122 -175q0 -77 55.5 -120t114.5 -43zM304 677q-47 0 -90 -30.5t-43 -81.5q0 -21 8.5 -40.5t19 -33.5t32.5 -31.5t37 -26.5t46 -28t45 -28q67 50 86 120q11 40 0.5 80.5t-47.5 70t-94 29.5z" />
    <glyph glyph-name="nine" unicode="9" horiz-adv-x="590" 
d="M274 241q-100 0 -163.5 68t-63.5 167q0 98 68 166.5t169 68.5q103 0 169.5 -65t66.5 -170q0 -80 -30 -157.5t-82 -141.5t-108 -113.5t-121 -92.5l-8 22q53 48 121.5 127.5t101.5 149.5q-62 -29 -120 -29zM285 681q-63 0 -117 -61t-54 -138q0 -78 55.5 -138.5t120.5 -60.5
q37 0 73 11.5t52 22.5q21 45 26.5 77t5.5 92q0 77 -52.5 136t-109.5 59z" />
    <glyph glyph-name="colon" unicode=":" horiz-adv-x="249" 
d="M90 331q-17 0 -29 12t-12 28q0 17 12 28.5t29 11.5q16 0 27.5 -11.5t11.5 -28.5q0 -16 -11.5 -28t-27.5 -12zM90 27q-17 0 -29 12t-12 28q0 17 12 28.5t29 11.5q16 0 27.5 -11.5t11.5 -28.5q0 -16 -11.5 -28t-27.5 -12z" />
    <glyph glyph-name="semicolon" unicode=";" horiz-adv-x="269" 
d="M144 331q-17 0 -29 12t-12 28q0 17 12 28.5t29 11.5q16 0 27.5 -11.5t11.5 -28.5q0 -16 -11.5 -28t-27.5 -12zM138 112q23 0 35.5 -21t12.5 -52t-13.5 -61.5t-48.5 -57t-85 -30.5v13q43 0 81.5 35t20.5 77q-3 6 -24.5 22t-21.5 33q0 21 13 31.5t30 10.5z" />
    <glyph glyph-name="less" unicode="&#x3c;" horiz-adv-x="502" 
d="M405 465l-303 -139l304 -142l-15 -36l-314 152v51l314 151z" />
    <glyph glyph-name="equal" unicode="=" horiz-adv-x="562" 
d="M102 409h350v-41h-350v41zM102 219h350v-41h-350v41z" />
    <glyph glyph-name="greater" unicode="&#x3e;" horiz-adv-x="502" 
d="M390 326l-293 140l14 36l314 -151v-51l-314 -152l-14 32z" />
    <glyph glyph-name="question" unicode="?" horiz-adv-x="522" 
d="M230 87q19 0 32 -13t13 -32q0 -18 -13 -31.5t-32 -13.5q-18 0 -31 13.5t-13 31.5q0 19 12.5 32t31.5 13zM260 704q78 0 132.5 -41.5t54.5 -106.5q0 -46 -20.5 -85t-50 -65.5t-59 -50t-50 -50.5t-20.5 -57q0 -11 8.5 -22.5t8.5 -15.5q0 -9 -9.5 -17.5t-23.5 -8.5
q-22 0 -34 15.5t-12 41.5q0 29 21 58t51.5 55t61 54t51.5 66.5t21 81.5q0 51 -41 83t-90 32q-55 0 -93.5 -32t-38.5 -87q0 -25 -1 -36t-8 -21t-21 -10q-20 0 -33 15t-13 41q0 68 62.5 115.5t145.5 47.5z" />
    <glyph glyph-name="at" unicode="@" horiz-adv-x="900" 
d="M491 640q161 0 261 -82.5t100 -229.5q0 -124 -74.5 -212t-170.5 -88q-35 0 -68 33.5t-33 69.5q-18 -24 -29.5 -37.5t-39.5 -32.5t-55 -19q-52 0 -86.5 43t-34.5 105q0 54 25 101t63 76.5t82.5 52t83 26t65.5 -1.5q2 0 4.5 -1t10.5 -5t12 -10.5t8 -18t-1 -27.5l-56 -208
q-9 -39 11 -75t57 -36q62 0 119 82.5t57 182.5q0 128 -85 207t-221 79q-103 0 -192.5 -59t-141 -153.5t-50.5 -196.5q1 -132 93 -225.5t217 -93.5q59 0 172 35l-3 -28q-90 -36 -170 -36q-158 0 -262.5 97t-104.5 250q0 115 60 216t161 160.5t216 59.5zM513 177l53 237
q-93 0 -169.5 -70t-76.5 -146q0 -16 3 -32t11 -35.5t26 -31.5t44 -12q53 0 109 90z" />
    <glyph glyph-name="A" unicode="A" horiz-adv-x="655" 
d="M362 665l203 -574q27 -77 64 -77v-14h-178v14q24 0 37 17t6 44l-34 107h-303l-32 -96q-24 -72 38 -72v-14h-137v14q36 0 64 80l203 571q-3 10 -9 16.5t-10 6.5v12h44q6 0 11.5 -1t9 -2t6.5 -3.5t5 -4t4 -6t2.5 -5.5t3 -6.5t2.5 -6.5zM168 210h281l-130 386q-3 10 -10 10
t-10 -9z" />
    <glyph glyph-name="B" unicode="B" horiz-adv-x="610" 
d="M549 268q0 -75 -61.5 -137t-160.5 -96.5t-210 -34.5h-74v14q24 0 36.5 15.5t12.5 40.5v541q0 27 -13 51t-36 24v14h257q173 0 173 -110q0 -41 -21.5 -71t-65.5 -63q57 -7 110 -61t53 -127zM204 43q52 0 113.5 27t109.5 80t48 115q0 48 -33.5 90.5t-92.5 42.5
q-73 0 -187 -78v-235q0 -29 9 -35.5t33 -6.5zM210 664q-48 0 -48 -45v-262q8 7 50 31.5t80.5 48.5t71 64t32.5 81q0 82 -125 82h-61z" />
    <glyph glyph-name="C" unicode="C" horiz-adv-x="651" 
d="M388 678q-96 0 -172 -88.5t-76 -219.5q0 -71 18.5 -130t47.5 -96t64.5 -63t68.5 -36.5t61 -10.5q15 0 29 1.5t25.5 3t23.5 5.5t20 6.5t19.5 8.5t17 9t17 11t16 11.5t17 13t16.5 12.5l13 -11q-78 -110 -224 -115q-144 0 -237 109.5t-93 265.5q0 147 97 246.5t241 99.5
q98 0 152.5 -46.5t54.5 -101.5q0 -30 -13.5 -45.5t-33.5 -15.5q-10 0 -17.5 2t-10.5 4l-2 3q0 11 -1.5 26t-10 41.5t-22.5 47.5t-41.5 36.5t-64.5 15.5z" />
    <glyph glyph-name="D" unicode="D" horiz-adv-x="636" 
d="M43 700h243q131 0 210.5 -74.5t79.5 -173.5q0 -132 -75 -237.5t-189.5 -160t-239.5 -54.5h-29v14q24 0 36.5 15.5t12.5 39.5v533q0 28 -13.5 56t-35.5 28v14zM194 53q39 13 77 33t79.5 54.5t73 76.5t52 102.5t20.5 128.5q0 93 -57 154.5t-158 61.5h-71q-48 0 -48 -48
v-537q0 -38 32 -26z" />
    <glyph glyph-name="E" unicode="E" horiz-adv-x="558" 
d="M259 676q-55 0 -76 -29t-21 -91v-196q196 0 196 58h14v-136h-14q0 35 -52.5 46t-143.5 11v-208q0 -59 21.5 -83t75.5 -24q100 0 157 44t57 91h14v-137q0 -22 -21 -22h-423v14q23 0 36 27.5t13 56.5v503q0 29 -13 57t-36 28v14h423h9t6 -1t5 -4t1 -8v-147h-14
q0 50 -56.5 93t-157.5 43z" />
    <glyph glyph-name="F" unicode="F" horiz-adv-x="531" 
d="M466 700q21 0 21 -23v-137h-14q0 55 -54.5 94.5t-159.5 39.5q-97 0 -97 -126v-188q196 0 196 58h14v-136h-14q0 57 -196 57v-238q0 -28 13.5 -57.5t34.5 -29.5v-14h-166v14q22 0 35.5 29t13.5 58v495q0 29 -13.5 59.5t-35.5 30.5v14h422z" />
    <glyph glyph-name="G" unicode="G" horiz-adv-x="696" 
d="M450 351h187v-14q-30 0 -30 -67v-222q-3 -1 -25.5 -12.5t-42 -19.5t-52.5 -16t-65 -8q-59 0 -123 30t-117 79t-87 119t-34 144t22.5 134.5t58 99t81.5 65t90.5 37.5t88.5 11q93 0 144.5 -40.5t54.5 -87.5q2 -21 -11.5 -37.5t-35.5 -14.5q-6 1 -12.5 3.5t-9.5 5.5l-3 2
q0 13 -5 32t-17 45t-40.5 44t-68.5 18t-82 -21t-79 -58.5t-61 -97.5t-24 -131q0 -76 30 -141.5t74 -105.5t89.5 -62.5t81.5 -22.5q67 0 110 23v186q0 37 -29.5 62t-57.5 25v14z" />
    <glyph glyph-name="H" unicode="H" horiz-adv-x="695" 
d="M635 686q-22 0 -35 -30.5t-13 -59.5v-493q0 -29 13 -59t35 -30v-14h-167v14q22 0 35 30t13 59v220h-337v-220q0 -29 13.5 -59t34.5 -30v-14h-167v14q22 0 35.5 30t13.5 59v493q0 29 -13.5 59.5t-35.5 30.5v14h167v-14q-21 0 -34.5 -30.5t-13.5 -59.5v-239h337v239
q0 29 -13 59.5t-35 30.5v14h167v-14z" />
    <glyph glyph-name="I" unicode="I" horiz-adv-x="282" 
d="M223 700v-14q-23 0 -36 -27t-13 -63v-493q0 -29 13.5 -59t35.5 -30v-14h-164v14q22 0 35.5 30t13.5 59v493q0 29 -13.5 59.5t-35.5 30.5v14h164z" />
    <glyph glyph-name="J" unicode="J" horiz-adv-x="278" 
d="M68 700h166v-14q-23 0 -36 -28.5t-13 -61.5v-459q0 -121 -36.5 -207t-113.5 -104l-4 7q37 33 61.5 99.5t24.5 142.5v521q0 33 -13.5 61.5t-35.5 28.5v14z" />
    <glyph glyph-name="K" unicode="K" horiz-adv-x="656" 
d="M426 596l-167 -187q9 -15 34 -52.5t73 -100t96 -116t103 -93.5t95 -40v-14h-42q-29 0 -52.5 3t-46.5 13t-39.5 18t-39 30t-36.5 36.5t-41 50t-42.5 58t-51 72.5t-58.5 82l-33 -31v-222q0 -29 13.5 -59t34.5 -30v-14h-167v14q22 0 35.5 30t13.5 59v493q0 29 -13.5 59.5
t-35.5 30.5v14h167v-14q-21 0 -34.5 -30.5t-13.5 -59.5v-236l192 236q67 78 38 89q-4 1 -9 1v14h151v-14q-30 0 -52.5 -17t-71.5 -73z" />
    <glyph glyph-name="L" unicode="L" horiz-adv-x="563" 
d="M486 149h17v-149h-444v14q22 0 35.5 30t13.5 59v493q0 29 -13.5 59t-35.5 30v15h167v-15q-21 0 -34.5 -30t-13.5 -59v-473q0 -49 29.5 -73t97.5 -24q37 0 66.5 5t48.5 11.5t32 18t19.5 21t10 24t4 22t0.5 21.5z" />
    <glyph glyph-name="M" unicode="M" horiz-adv-x="833" 
d="M754 103q10 -89 49 -89v-14h-158v14q22 0 32 25.5t7 56.5l-59 545l-218 -641h-19q-39 45 -75 147l-158 402l-19 -446q-2 -51 4.5 -70t28.5 -19v-14h-119v14q40 0 48 89l38 507l-18 57q-7 19 -19 19v14h63q16 0 22 -11l228 -592l201 603h117v-14q-15 0 -22.5 -11.5
t-8 -31.5t1.5 -47z" />
    <glyph glyph-name="N" unicode="N" horiz-adv-x="690" 
d="M506 700h128v-14q-22 0 -35.5 -30.5t-13.5 -59.5l-5 -596h-20q-68 69 -116 143q-50 77 -166 236.5t-150 211.5l2 -488q0 -29 13 -59t35 -30v-14h-129v14q22 0 35.5 30t13.5 59l4 523q-2 3 -10.5 22.5t-18 28.5t-25.5 9v14h89q13 0 21 -11l402 -576l-6 483
q0 29 -13.5 59.5t-34.5 30.5v14z" />
    <glyph glyph-name="O" unicode="O" horiz-adv-x="816" 
d="M408 712q148 0 248.5 -105t100.5 -255t-100.5 -255.5t-248.5 -105.5t-248.5 105.5t-100.5 255.5t100.5 255t248.5 105zM426 35q115 0 189 91t63 227q-12 137 -94 227t-195 90q-111 0 -186 -94t-62 -223q14 -138 94.5 -228t190.5 -90z" />
    <glyph glyph-name="P" unicode="P" horiz-adv-x="546" 
d="M506 553q0 -46 -34.5 -94.5t-91 -90t-109 -72t-109.5 -57.5v-136q0 -28 13.5 -58.5t34.5 -30.5v-14h-167v14q22 0 35.5 30t13.5 59v494q0 29 -13.5 59t-35.5 30v14h292q171 0 171 -147zM316 664h-86q-40 0 -54 -21t-14 -56v-313q100 55 182.5 134t82.5 146q0 44 -30.5 77
t-80.5 33z" />
    <glyph glyph-name="Q" unicode="Q" horiz-adv-x="839" 
d="M483 -4q22 -50 117.5 -94t194.5 -25v-10q-50 -19 -105.5 -23.5t-112.5 6t-108 47t-84 94.5q-144 18 -235 121t-91 240q0 149 105 254.5t253 105.5q149 0 254.5 -105.5t105.5 -254.5q0 -127 -80 -225.5t-214 -130.5zM448 25q114 0 189.5 95.5t63.5 232.5
q-12 136 -104 231.5t-206 95.5q-112 0 -186 -95.5t-62 -231.5q13 -137 103.5 -232.5t201.5 -95.5z" />
    <glyph glyph-name="R" unicode="R" horiz-adv-x="668" 
d="M358 326q21 -56 47 -105.5t62 -99t82.5 -79t96.5 -29.5v-14h-23q-126 0 -193.5 58t-141.5 225q-89 -53 -127 -66v-113q0 -29 13.5 -59t34.5 -30v-14h-167v14q22 0 35.5 30t13.5 59v493q0 29 -13.5 59.5t-35.5 30.5v14h272q79 0 130 -42.5t51 -115.5q0 -50 -43 -117
t-94 -99zM161 604v-354q96 43 175.5 124.5t79.5 168.5q0 47 -34 84t-97 37h-66q-23 0 -40.5 -18t-17.5 -42z" />
    <glyph glyph-name="S" unicode="S" horiz-adv-x="571" 
d="M152 560q0 -40 37 -79.5t89.5 -73l105 -67t89.5 -74t37 -82.5q0 -82 -69 -141t-187 -59q-78 0 -140.5 51.5t-62.5 111.5q0 25 7.5 46t18 32.5t21 19.5t18.5 11l7 3q-12 -24 -14 -56t7.5 -64.5t28.5 -60t53.5 -45t78.5 -17.5q71 0 116.5 43t45.5 93q0 43 -36 80.5t-87 67
t-102 61t-87 78t-36 103.5q0 79 52 122t143 43q47 0 87 -12.5t64.5 -32t38.5 -42.5t12.5 -46t-17.5 -40q-9 -10 -22 -10t-21 5l-9 5q0 12 -6.5 33t-20.5 47.5t-42 45.5t-64 19q-55 0 -94.5 -31.5t-39.5 -87.5z" />
    <glyph glyph-name="T" unicode="T" horiz-adv-x="598" 
d="M535 678l8 -136h-14q0 14 -2.5 28.5t-12 35t-24.5 36t-44 26.5t-67 11q-22 0 -33 -20t-11 -79v-477q0 -29 13 -59t35 -30v-14h-166v14q21 0 34.5 30.5t13.5 58.5v477q-1 59 -12 79t-33 20q-48 0 -80.5 -15.5t-46.5 -39.5t-19 -43.5t-5 -38.5h-14l9 136q0 22 20 22h431
q20 0 20 -22z" />
    <glyph glyph-name="U" unicode="U" 
d="M494 700h131v-14q-22 0 -35 -30t-13 -59l-4 -325q0 -133 -67.5 -208t-159.5 -75q-39 0 -72 6t-68 23t-59 44t-39.5 73.5t-15.5 107.5v354q0 29 -13.5 59t-35.5 30v14h165v-14q-21 0 -34.5 -30.5t-13.5 -58.5v-346q0 -87 53.5 -153t134.5 -66q100 0 149 68t49 170l-4 327
q0 28 -13.5 58.5t-34.5 30.5v14z" />
    <glyph glyph-name="V" unicode="V" horiz-adv-x="646" 
d="M494 700h119v-14q-14 0 -24 -9.5t-14.5 -19t-15.5 -36.5q-1 -2 -1.5 -3.5t-1.5 -3.5l-206 -614h-28q-39 45 -74 147l-160 471q-13 36 -24.5 52t-30.5 16v14h159v-14q-49 0 -22 -89l181 -516l164 516q27 89 -21 89v14z" />
    <glyph glyph-name="W" unicode="W" horiz-adv-x="1028" 
d="M876 700h119v-14q-18 0 -28.5 -13.5t-24.5 -46.5q-2 -4 -3 -6.5t-2 -5.5l-194 -614h-27q-40 45 -74 147l-136 390l-142 -537h-42q-39 45 -74 147l-160 471q-13 36 -24.5 52t-30.5 16v14h162v-14q-49 0 -22 -89l182 -516l161 619h14l215 -619l152 516q28 89 -21 89v14z
" />
    <glyph glyph-name="X" unicode="X" horiz-adv-x="647" 
d="M514 103q52 -89 96 -89v-14h-211v14q27 0 35 23t-11 66l-127 204l-150 -213q-13 -21 -16 -40t4.5 -29.5t22.5 -10.5v-14h-125v14q10 0 18.5 3.5t18 13.5t15 17.5t18 26t19.5 28.5l162 225l-166 269q-28 46 -46.5 67.5t-35.5 21.5v14h182v-14q-24 0 -30 -18t10 -53
l135 -217l130 199q18 27 24 47.5t-1 31t-24 10.5v14h125v-14q-24 0 -43.5 -19.5t-53.5 -69.5l-146 -219z" />
    <glyph glyph-name="Y" unicode="Y" horiz-adv-x="586" 
d="M424 700h129v-14q-23 0 -41.5 -18.5t-55.5 -70.5l-130 -193v-301q0 -29 13 -59t35 -30v-14h-166v14q22 0 35 30t13 59v265l-143 229q-3 5 -8 14q-16 28 -24 40.5t-21 23.5t-27 11v14h179v-14q-25 0 -32 -18t12 -53l118 -186l115 168q18 26 23.5 46.5t-1 31.5t-23.5 11v14
z" />
    <glyph glyph-name="Z" unicode="Z" horiz-adv-x="623" 
d="M345 41q204 0 204 56h14l-9 -97h-495q0 74 33 150t86.5 143t109.5 126.5t114 125t87 114.5h-212q-77 0 -111.5 -11.5t-34.5 -44.5h-14l8 97h457q0 -38 -45.5 -98.5t-110 -127.5t-129.5 -138.5t-110.5 -150.5t-45.5 -144h204z" />
    <glyph glyph-name="bracketleft" unicode="[" horiz-adv-x="290" 
d="M82 -120v893h136v-14q-99 0 -99 -67v-731q0 -67 99 -67v-14h-136z" />
    <glyph glyph-name="backslash" unicode="\" horiz-adv-x="472" 
d="M80 750l350 -826h-35l-353 826h38z" />
    <glyph glyph-name="bracketright" unicode="]" horiz-adv-x="290" 
d="M208 773v-893h-136v14q99 0 99 67v731q0 67 -99 67v14h136z" />
    <glyph glyph-name="asciicircum" unicode="^" horiz-adv-x="543" 
d="M259 671l-171 -289l-35 14l195 304h23l196 -304l-39 -13z" />
    <glyph glyph-name="underscore" unicode="_" horiz-adv-x="595" 
d="M82 -52h430v-23h-430v23z" />
    <glyph glyph-name="grave" unicode="`" horiz-adv-x="536" 
d="M404 590l-5 -2q-7 -4 -20 5l-152 99q-17 12 -10 25l14 27q8 13 22 2l150 -141q11 -9 1 -15z" />
    <glyph glyph-name="a" unicode="a" horiz-adv-x="538" 
d="M459 98q0 -39 13 -62.5t38 -23.5v-12h-64q-23 0 -36.5 14.5t-16.5 33.5q-71 -61 -152 -61q-76 0 -127.5 33.5t-51.5 100.5q0 44 34 79.5t82.5 58.5t97.5 43t83 43.5t34 50.5v30q0 27 -27.5 54t-71.5 27q-36 0 -62 -15.5t-38 -39t-17.5 -42.5t-5.5 -34q-11 -10 -28 -10
q-18 0 -29.5 11.5t-11.5 33.5q0 48 57 90t136 42q164 0 164 -163v-282zM250 23q38 0 84 28.5t59 55.5v218q-23 -16 -73.5 -42t-88 -46t-68 -50.5t-30.5 -62.5q0 -52 32.5 -76.5t84.5 -24.5z" />
    <glyph glyph-name="b" unicode="b" horiz-adv-x="545" 
d="M144 773v-238q81 10 159 -20.5t129.5 -97.5t51.5 -153q0 -120 -81 -197t-181 -77q-31 0 -79.5 10t-63.5 10v650q0 32 -13 51t-38 19v12zM206 26q76 0 138 61t62 170q0 113 -76.5 185.5t-185.5 58.5v-405q0 -70 62 -70z" />
    <glyph glyph-name="c" unicode="c" horiz-adv-x="587" 
d="M523 114l18 -20q-104 -100 -210 -100q-111 0 -191 81.5t-80 195.5q0 118 72 193.5t182 75.5q88 0 146.5 -52t58.5 -105q0 -44 -42 -44q-10 0 -18 3.5t-11 7.5l-3 3q0 11 -7 34.5t-22 52.5t-44.5 50t-66.5 21q-56 0 -109.5 -59t-53.5 -154q0 -124 58.5 -192.5t155.5 -68.5
q82 0 167 77z" />
    <glyph glyph-name="d" unicode="d" horiz-adv-x="566" 
d="M472 103q0 -38 18 -64.5t43 -26.5v-12h-63q-23 0 -43 13.5t-20 38.5q-14 -23 -48 -40.5t-65 -17.5q-114 0 -174 68.5t-60 174.5q0 84 49 154.5t118 107t137 36.5h43v104q0 26 -15.5 47.5t-39.5 21.5v12l120 30v-647zM297 42q40 0 71.5 19.5t38.5 41.5v397h-53
q-75 0 -147.5 -76t-72.5 -178q0 -53 13.5 -93t32.5 -60.5t44 -32.5t41.5 -15t31.5 -3z" />
    <glyph glyph-name="e" unicode="e" horiz-adv-x="585" 
d="M507 99l13 -14q-72 -91 -190 -91q-107 0 -188.5 82t-81.5 195q0 117 74 193.5t165 76.5q95 0 159 -61.5t64 -144.5q0 -62 -52 -62l-339 -2q6 -60 30 -106.5t57 -72.5t66.5 -39t64.5 -13q95 0 158 59zM299 508q-75 0 -123.5 -68t-45.5 -137l326 4q0 85 -46 143t-111 58z
" />
    <glyph glyph-name="f" unicode="f" horiz-adv-x="316" 
d="M230 753q49 0 87.5 -31t38.5 -69q0 -49 -40 -49q-8 0 -13.5 4.5t-7.5 9.5l-2 4q0 12 -2 25.5t-8 31.5t-20 30t-35 12q-31 0 -53.5 -34.5t-22.5 -76.5q0 -26 14 -82h131l-10 -28h-121v-397q0 -30 14 -60.5t37 -30.5v-12h-168v12q23 0 37 30.5t14 60.5v397h-59v28h59
q-8 48 -8 67q0 74 43 116t95 42z" />
    <glyph glyph-name="g" unicode="g" horiz-adv-x="617" 
d="M505 599q26 0 46 -16t20 -39q0 -18 -8.5 -29t-17.5 -11q-5 0 -21.5 25.5t-35.5 25.5q-13 0 -32.5 -16.5t-34.5 -40.5q42 -30 69.5 -74t27.5 -93q0 -85 -64 -143.5t-157 -58.5q-23 0 -57.5 9.5t-54.5 21.5q-52 -43 -22 -74q34 -36 167 -36q47 0 80 -3.5t67 -15t52 -36.5
t18 -64q0 -62 -75.5 -109.5t-161.5 -47.5q-41 0 -79 5.5t-75 17t-59.5 34.5t-22.5 54q0 28 18.5 43t37.5 16l18 2q-21 -55 26 -97t138 -42q67 0 111 31.5t44 82.5q0 24 -13 41t-29.5 25t-45.5 12.5t-45.5 5t-45.5 0.5q-207 0 -207 77q0 47 66 104q-69 61 -69 145
q0 86 64 144t155 58q51 0 100 -22q54 88 108 88zM308 163q59 0 100.5 45t36.5 124q-6 79 -53.5 124t-106.5 45q-51 0 -93 -45.5t-36 -123.5q6 -79 50 -124t102 -45z" />
    <glyph glyph-name="h" unicode="h" horiz-adv-x="596" 
d="M502 353v-250q0 -36 14 -63.5t37 -27.5v-12h-166v12q24 0 37.5 29t13.5 62v250q0 137 -98 137q-54 0 -101.5 -31.5t-71.5 -63.5v-292q0 -38 13.5 -64.5t37.5 -26.5v-12h-167v12q24 0 37.5 26.5t13.5 64.5v557q0 28 -13.5 50t-37.5 22v12l116 29v-335q104 104 188 104
q77 0 112 -42t35 -147z" />
    <glyph glyph-name="i" unicode="i" horiz-adv-x="268" 
d="M171 103q0 -29 16.5 -60t39.5 -31v-12h-173v12q23 0 39.5 31t16.5 60v334q0 29 -12.5 52t-36.5 23v12l110 21v-442zM129 620q-18 0 -30.5 13.5t-12.5 31.5q0 17 12.5 30t30.5 13q19 0 31.5 -13t12.5 -30q0 -18 -13 -31.5t-31 -13.5z" />
    <glyph glyph-name="j" unicode="j" horiz-adv-x="252" 
d="M179 545v-505q0 -50 -6 -93t-21 -84.5t-44 -65.5t-70 -24q-49 0 -90.5 27.5t-41.5 69.5q0 22 12 36t32 14q9 0 15.5 -5t8.5 -10l3 -5q-2 -19 0.5 -38.5t17.5 -39t43 -19.5q75 0 75 197v419q0 28 -18.5 59.5t-42.5 31.5v12zM139 620q-18 0 -30.5 13.5t-12.5 31.5
q0 17 12.5 30t30.5 13q19 0 31.5 -13t12.5 -30q0 -18 -13 -31.5t-31 -13.5z" />
    <glyph glyph-name="k" unicode="k" horiz-adv-x="559" 
d="M453 118q17 -59 34 -82.5t46 -23.5v-12h-168v12q38 0 24 70q-15 79 -69 150q-51 67 -100 67l-53 -57v-139q0 -30 14 -60.5t37 -30.5v-12h-167v12q23 0 37 30.5t14 60.5v556q0 28 -13.5 50.5t-37.5 22.5v12l116 29v-481l122 135q57 63 48 89q-2 10 -16 10v9h156v-9
q-13 0 -23.5 -2t-23 -9.5t-21.5 -14.5t-27.5 -25.5t-32.5 -33.5t-44.5 -48t-56.5 -60q67 -12 121.5 -64.5t83.5 -150.5z" />
    <glyph glyph-name="l" unicode="l" horiz-adv-x="265" 
d="M169 773v-670q0 -37 15.5 -64t40.5 -27v-12h-177v12q24 0 40 28.5t16 62.5v556q0 27 -16 49t-40 22v12z" />
    <glyph glyph-name="m" unicode="m" horiz-adv-x="916" 
d="M819 353v-248q0 -34 14 -63.5t37 -29.5v-12h-170v12q24 0 37.5 29.5t13.5 63.5v248q0 73 -32 105t-77 32t-85.5 -24.5t-54.5 -52.5l3 -42v-266q0 -34 14 -63.5t37 -29.5v-12h-167v12q23 0 37 30t14 63v248q0 72 -31.5 104.5t-74.5 32.5q-41 0 -93.5 -33.5t-73.5 -61.5
v-290q0 -35 13.5 -64t37.5 -29v-12h-167v12q23 0 37 31.5t14 61.5v328q0 30 -11.5 54t-34.5 24v12l101 12l10 -97q22 32 79 68t103 36q56 0 95.5 -30t49.5 -64q25 37 73 65.5t88 28.5q69 0 116.5 -49.5t47.5 -139.5z" />
    <glyph glyph-name="n" unicode="n" horiz-adv-x="602" 
d="M508 353v-248q0 -37 14 -65t37 -28v-12h-167v12q24 0 37.5 28.5t13.5 64.5v248q0 137 -108 137q-53 0 -102.5 -33t-70.5 -62v-290q0 -32 14 -62.5t37 -30.5v-12h-167v12q24 0 37.5 29.5t13.5 63.5v334q0 29 -11 50t-35 21v12l101 13l10 -98q29 38 81.5 71.5t101.5 33.5
q163 0 163 -189z" />
    <glyph glyph-name="o" unicode="o" horiz-adv-x="646" 
d="M323 544q115 0 190.5 -80t75.5 -196t-75.5 -196.5t-190.5 -80.5q-114 0 -189.5 80.5t-75.5 196.5t75.5 196t189.5 80zM337 18q72 0 125.5 75.5t44.5 179.5q-10 107 -64.5 172t-132.5 65q-76 0 -128.5 -71t-43.5 -176q8 -105 67 -175t132 -70z" />
    <glyph glyph-name="p" unicode="p" horiz-adv-x="548" 
d="M489 300q0 -83 -47.5 -152.5t-123.5 -106t-157 -29.5v-134q0 -35 13.5 -64t37.5 -29v-12h-166v12q23 0 37 31.5t14 61.5v569q0 29 -13.5 52.5t-37.5 23.5v12q66 0 103 0.5t43 0.5t11.5 0.5t15.5 0.5q121 0 195.5 -61.5t74.5 -175.5zM233 499q-63 0 -72 -53v-402
q100 -9 179.5 64t79.5 182q0 98 -50 153.5t-137 55.5z" />
    <glyph glyph-name="q" unicode="q" horiz-adv-x="564" 
d="M472 -122q0 -30 14 -61.5t37 -31.5v-12h-167v12q23 0 37 31.5t14 61.5v122h-63q-119 0 -201.5 74.5t-82.5 203.5q0 104 79 183.5t197 79.5q29 0 84.5 -3t73.5 -3v-13q-22 0 -22 -52v-592zM407 35v427q-13 40 -83 40q-76 0 -127.5 -67.5t-51.5 -166.5t60.5 -166t148.5 -67
h53z" />
    <glyph glyph-name="r" unicode="r" horiz-adv-x="453" 
d="M302 541q42 0 68 -26.5t26 -59.5q0 -28 -15 -45.5t-34 -17.5q-4 0 -9.5 21.5t-24.5 43t-56 21.5q-27 0 -60.5 -34.5t-34.5 -96.5v-242q0 -30 14 -61.5t37 -31.5v-12h-167v12q23 0 37 31.5t14 61.5v325q0 29 -13.5 53.5t-37.5 24.5v12l116 15v-103q32 46 70.5 77.5
t69.5 31.5z" />
    <glyph glyph-name="s" unicode="s" horiz-adv-x="486" 
d="M145 414q0 -33 29.5 -59.5t71.5 -46t83.5 -40.5t71 -54.5t29.5 -76.5q0 -71 -54.5 -107.5t-134.5 -36.5q-68 0 -126.5 45t-58.5 90q0 30 13 46.5t25 17.5l13 2q-16 -42 29 -102t122 -60q44 0 79 28.5t35 63.5q0 32 -29.5 56t-71 42.5t-83.5 39t-71.5 56.5t-29.5 85
q0 62 53.5 101.5t123.5 39.5q74 0 123.5 -48t20.5 -83q-10 -13 -22.5 -16.5t-19.5 -0.5l-7 2q0 13 -9 38.5t-35 52.5t-61 27q-50 0 -79.5 -32.5t-29.5 -69.5z" />
    <glyph glyph-name="t" unicode="t" horiz-adv-x="418" 
d="M313 101q13 18 28 18q31 0 31 -40q0 -31 -39.5 -57.5t-84.5 -26.5q-58 0 -101.5 40.5t-43.5 126.5v338h-52v25q16 0 28.5 13.5t21.5 37t16 52t14 61.5q3 13 4 20l38 42v-216h167l-10 -35h-162v-332q0 -66 23.5 -103.5t56.5 -37.5q34 0 49.5 25t15.5 49z" />
    <glyph glyph-name="u" unicode="u" horiz-adv-x="575" 
d="M72 432q0 56 -8 66q-7 10 -23 10v12l96 15v-346q0 -88 34.5 -121.5t80.5 -33.5q39 0 85.5 32t69.5 64v302v10q0 25 -1 36t-8 20.5t-22 9.5v12l96 15v-437q0 -33 13.5 -59.5t37.5 -26.5v-12h-62q-20 0 -37 18t-17 41v15q-29 -26 -77 -52.5t-95 -26.5q-163 0 -163 194v243z
" />
    <glyph glyph-name="v" unicode="v" horiz-adv-x="602" 
d="M445 535h131v-12q-11 0 -19.5 -3t-14 -6.5t-11 -13.5t-8 -15.5t-9.5 -22.5t-10 -25q-110 -295 -145 -385q-5 -13 -7 -26t-2 -20l1 -6h-77q-28 25 -53 88l-125 339q-34 96 -70 96v12h175v-12q-26 0 -35.5 -30.5t4.5 -65.5q146 -386 155 -386l128 376q15 40 15 73t-23 33
v12z" />
    <glyph glyph-name="w" unicode="w" horiz-adv-x="885" 
d="M717 535h142v-12q-36 0 -72 -86q-99 -295 -134 -385q-5 -13 -7 -26t-2 -20l1 -6h-73q-12 10 -37 73l-95 296l-81 -317q-5 -13 -7 -26t-2 -20l1 -6h-67q-4 1 -10 4.5t-21 22t-26 46.5q-21 55 -43 115.5t-36 101t-28.5 81.5t-25.5 66.5t-22.5 46.5t-22.5 30t-23 9v12h175
v-12q-29 0 -36.5 -30.5t5.5 -65.5q139 -371 148 -386l133 494h14q39 -137 79 -260t61 -179.5t21 -54.5l119 376q7 19 9 45q4 61 -37 61v12z" />
    <glyph glyph-name="x" unicode="x" horiz-adv-x="568" 
d="M424 108q69 -96 107 -96v-12h-191v12q25 0 25.5 30.5t-21.5 65.5l-72 115l-79 -105q-43 -59 -34 -92q4 -14 19 -14v-12h-152v12q22 0 43.5 13.5t34 27.5t37.5 45l115 157l-102 172q-60 96 -98 96v12h174v-12q-18 0 -23.5 -15t0 -37t19.5 -44l74 -124l74 114q28 40 35 71
t-20 35v12h153v-12q-56 0 -116 -86l-108 -158z" />
    <glyph glyph-name="y" unicode="y" horiz-adv-x="599" 
d="M437 535h136v-12q-32 0 -62 -86l-193 -534q-17 -46 -53 -88t-87 -42q-59 0 -101 36t-42 84q0 31 17.5 52.5t39.5 21.5q24 0 24 -28q0 -6 -5.5 -24.5t-5.5 -29.5q0 -30 22 -52.5t61 -22.5q17 0 33 9.5t27.5 23t20 27.5t13.5 24l4 9l37 100l-207 424q-52 96 -90 96v12h190
v-12q-27 -1 -34.5 -33.5t7.5 -62.5l164 -347l112 337q14 34 8.5 69t-36.5 37v12z" />
    <glyph glyph-name="z" unicode="z" horiz-adv-x="514" 
d="M329 36q95 0 110 55h14l-17 -91h-395q7 51 48 108l256 328q25 33 27 62h-132q-49 0 -91 -13.5t-50 -40.5h-14l16 91h362q-2 -45 -47 -108l-257 -329q-28 -41 -30 -62h200z" />
    <glyph glyph-name="braceleft" unicode="{" horiz-adv-x="356" 
d="M47 350q37 31 53.5 77t16.5 87.5t5.5 96t21.5 92.5q14 33 53 50t71 18l32 1v-11q-15 0 -34 -3.5t-42 -12.5t-40.5 -29t-22.5 -47q-4 -24 -9 -103.5t-18 -139t-43 -89.5q32 -33 46 -95.5t18 -152.5t6 -106q4 -30 21 -50t41.5 -28t42 -11t34.5 -3v-10q-6 -1 -15.5 -1.5
t-35 1t-46.5 6.5t-41.5 18.5t-27.5 34.5q-9 26 -12 79t-4 101t-18 105.5t-53 97.5v27z" />
    <glyph glyph-name="bar" unicode="|" horiz-adv-x="341" 
d="M156 802h29v-908h-29v908z" />
    <glyph glyph-name="braceright" unicode="}" horiz-adv-x="356" 
d="M309 350v-27q-36 -40 -53 -97.5t-18 -105.5t-4 -101t-12 -79q-12 -33 -53.5 -48t-76.5 -13l-36 2v10h6q21 0 35 1.5t37.5 9t39 28t21.5 53.5q4 24 5.5 105t14.5 145.5t50 103.5q-34 36 -47.5 95.5t-16 136.5t-6.5 100q-5 33 -34.5 55t-56.5 29t-48 7v12h13.5t31.5 -3
t42.5 -9.5t39.5 -21t29 -35.5q16 -38 21.5 -92.5t5.5 -96t16.5 -87.5t53.5 -77z" />
    <glyph glyph-name="asciitilde" unicode="~" horiz-adv-x="726" 
d="M107 276v15q80 47 153 47q58 0 142 -34t121 -34q20 0 66 24l9 -13q-63 -43 -126 -43q-45 0 -122.5 36.5t-132.5 36.5q-47 0 -110 -35z" />
    <glyph glyph-name="exclamdown" unicode="&#xa1;" horiz-adv-x="303" 
d="M154 337q20 0 25 -70l10 -370q0 -70 -36 -70q-40 0 -40 70q12 352 14 370q4 35 9 52.5t18 17.5zM151 447q-19 0 -32 13t-13 32q0 18 13 31.5t32 13.5q18 0 31 -13.5t13 -31.5q0 -19 -12.5 -32t-31.5 -13z" />
    <glyph glyph-name="cent" unicode="&#xa2;" horiz-adv-x="567" 
d="M495 165q-99 -91 -194 -95v-70h-26v72q-102 13 -168.5 87t-62.5 174q4 107 66.5 176.5t164.5 78.5v74h26v-74q83 -5 137.5 -55.5t54.5 -99.5q0 -20 -12.5 -30.5t-27.5 -10.5q-11 0 -19.5 3.5t-11.5 6.5l-2 4q0 37 -32.5 91.5t-86.5 62.5v-447q38 -4 89 17t90 53zM125 357
q0 -90 41 -152.5t109 -86.5v442q-65 -11 -106.5 -69t-43.5 -134z" />
    <glyph glyph-name="sterling" unicode="&#xa3;" horiz-adv-x="588" 
d="M474 192q21 0 31 -20.5t10 -48.5q0 -10 -2.5 -24.5t-12.5 -38t-26.5 -42.5t-48.5 -33t-74 -14q-33 0 -64 13t-51.5 28.5t-53 28.5t-67.5 13q-17 0 -24 -23.5t-21 -23.5q-26 0 -28 37q-2 19 15.5 46.5t39.5 53t41 60.5t19 66q0 34 -10 88h-87l-2 12l6 16h77
q-16 82 -16 139q0 73 57.5 134.5t125.5 61.5q52 0 77.5 -23t25.5 -54q0 -29 -17.5 -39t-34.5 -5q0 1 1.5 16t0.5 25.5t-5 24t-16.5 21t-32.5 7.5q-53 0 -87 -42.5t-34 -109.5q0 -27 12.5 -78t16.5 -78h205l-5 -28h-197q2 -20 2 -29q0 -50 -37.5 -135t-68.5 -117q26 13 57 13
q42 0 113.5 -36t100.5 -36q50 0 73.5 30t23.5 64q0 4 -1 8.5t-2.5 7.5t-4.5 7t-4.5 6.5t-5.5 6t-5.5 5t-6 5.5t-5.5 4q0 11 7.5 20.5t19.5 9.5z" />
    <glyph glyph-name="currency" unicode="&#xa4;" horiz-adv-x="529" 
d="M441 326q0 -71 -45 -116l76 -72l-21 -21l-71 76q-19 -21 -51.5 -32.5t-64.5 -11.5q-75 0 -116 44l-72 -76l-21 21l77 72q-46 43 -46 116q0 71 45 116l-76 71l21 21l72 -76q40 45 116 45q70 0 116 -44l71 76l21 -22l-76 -71q45 -45 45 -116zM264 183q54 0 92.5 42
t38.5 101q0 60 -38.5 102t-92.5 42t-92.5 -42t-38.5 -102q0 -59 38.5 -101t92.5 -42z" />
    <glyph glyph-name="yen" unicode="&#xa5;" horiz-adv-x="644" 
d="M424 700h140v-16q-44 0 -107 -87l-126 -191h167l-9 -27h-163v-82h162l-9 -28h-153v-166q0 -29 13 -58t35 -29v-16h-166v16q22 0 35 29.5t13 57.5v166h-153l-3 11l11 17h145v82h-143l-3 10l11 17h123l-116 191q-25 44 -45.5 65.5t-44.5 21.5v16h188v-16q-24 0 -30 -17
t10 -52l111 -186l108 168q19 27 24.5 47t-1 30t-24.5 10v16z" />
    <glyph glyph-name="brokenbar" unicode="&#xa6;" horiz-adv-x="332" 
d="M175 -106h-29v386h29v-386zM146 802h29v-377h-29v377z" />
    <glyph glyph-name="section" unicode="&#xa7;" horiz-adv-x="623" 
d="M573 153q0 -52 -26 -101.5t-67 -82.5q10 -86 -47.5 -140t-153.5 -54q-42 0 -79.5 13.5t-60 33.5t-38.5 43.5t-15.5 44t9.5 34.5q13 16 28 18.5t23 -2.5l9 -5q-4 -23 6.5 -55t42.5 -61.5t80 -29.5q47 0 87 33.5t40 79.5q0 50 -36.5 92.5t-88.5 75t-103.5 67t-88 83
t-36.5 107.5q0 53 19.5 87t61.5 75q-17 94 43.5 146t151.5 52q37 0 69 -7t54 -19t39 -27t26 -31t13 -31.5t2 -28.5t-8 -22q-12 -17 -27 -19t-24 4l-8 7q0 12 -5.5 32.5t-18.5 46.5t-42.5 44.5t-69.5 18.5q-52 0 -91.5 -33.5t-39.5 -93.5q0 -38 38 -76t92.5 -71.5t109 -69
t92.5 -82t38 -96.5zM124 361q0 -41 26.5 -79t68.5 -69t87 -59.5t89 -64t66 -70.5q19 17 31 46.5t12 55.5q0 41 -27.5 79t-70.5 68.5t-89 58.5t-91.5 62.5t-68.5 67.5q-33 -37 -33 -96z" />
    <glyph glyph-name="dieresis" unicode="&#xa8;" horiz-adv-x="470" 
d="M158 609q-17 0 -28.5 11.5t-11.5 27.5q0 17 11.5 29t28.5 12q16 0 27.5 -12t11.5 -29q0 -16 -11.5 -27.5t-27.5 -11.5zM328 609q-16 0 -28 11.5t-12 28.5t12 28.5t28 11.5t28 -11.5t12 -28.5t-12 -28.5t-28 -11.5z" />
    <glyph glyph-name="copyright" unicode="&#xa9;" horiz-adv-x="800" 
d="M395 686q147 0 243.5 -97t96.5 -238t-96.5 -238.5t-243.5 -97.5q-146 0 -242.5 97.5t-96.5 238.5t96.5 238t242.5 97zM395 55q122 0 203 87t81 212t-81 211.5t-203 86.5t-202.5 -86.5t-80.5 -211.5t80.5 -212t202.5 -87zM424 186q58 0 105 40l6 -6q-44 -59 -123 -63
q-81 0 -138.5 55.5t-57.5 143.5q0 82 59 134.5t141 52.5q51 0 80 -25t29 -50q0 -35 -29 -35q-5 0 -9 1.5t-6 3.5l-2 1q0 8 -2 19t-7.5 28.5t-21.5 29t-39 11.5q-51 0 -92 -45t-41 -114q0 -48 16 -85.5t40.5 -57t48 -29.5t43.5 -10z" />
    <glyph glyph-name="ordfeminine" unicode="&#xaa;" horiz-adv-x="384" 
d="M304 487q0 -56 33 -56v-8h-42q-15 0 -24 9.5t-11 21.5q-47 -39 -99 -39q-50 0 -83.5 21.5t-33.5 65.5q0 35 34 62.5t74 41.5t74 33.5t34 40.5v20q0 17 -18 34.5t-46 17.5q-43 0 -61 -29t-18 -56q-8 -6 -20 -6q-26 0 -26 29q0 32 37 59t88 27q108 0 108 -106v-183z
M167 439q25 0 55 19t38 37v138q-15 -11 -63 -34.5t-76.5 -46t-28.5 -48.5q0 -32 22 -48.5t53 -16.5z" />
    <glyph glyph-name="guillemotleft" unicode="&#xab;" horiz-adv-x="612" 
d="M338 535l-216 -209l218 -211h-42l-201 195v31l203 194h38zM517 535l-216 -209l218 -211h-42l-201 195v31l203 194h38z" />
    <glyph glyph-name="logicalnot" unicode="&#xac;" horiz-adv-x="539" 
d="M82 356h370v-172h-38v139h-332v33z" />
    <glyph glyph-name="uni00AD" unicode="&#xad;" horiz-adv-x="429" 
d="M92 287h238v-42h-238v42z" />
    <glyph glyph-name="registered" unicode="&#xae;" horiz-adv-x="625" 
d="M309 720q103 0 171 -68.5t68 -167.5t-68 -168t-171 -69t-171 69t-68 168t68 167.5t171 68.5zM444 336q57 60 57 149q0 87 -54.5 147t-137.5 60t-137 -60t-54 -147q0 -88 54 -148.5t137 -60.5q33 0 68 14.5t56 34.5q-46 6 -76.5 35.5t-58.5 93.5q-28 -16 -36 -20v-39
q0 -13 4.5 -27.5t13.5 -14.5v-6h-77v6q9 0 14 14.5t5 27.5v189q0 12 -5 23.5t-14 11.5v7h110q34 0 58 -17t24 -46q0 -20 -19 -47t-44 -45q20 -54 42.5 -85.5t37 -39t32.5 -10.5zM346 563q0 18 -13.5 34t-33.5 16h-14q-10 0 -16.5 -7t-6.5 -17v-142q28 16 56 52t28 64z" />
    <glyph glyph-name="macron" unicode="&#xaf;" horiz-adv-x="489" 
d="M102 640h290v-24h-290v24z" />
    <glyph glyph-name="degree" unicode="&#xb0;" horiz-adv-x="373" 
d="M326 591q0 -58 -40 -98.5t-101 -40.5q-60 0 -100 40.5t-40 98.5t40 98t100 40q61 0 101 -40t40 -98zM103 592q4 -51 31 -85t62 -34q34 0 55 33.5t17 85.5q-4 51 -31.5 85t-63.5 34q-34 0 -54 -34t-16 -85z" />
    <glyph glyph-name="plusminus" unicode="&#xb1;" horiz-adv-x="586" 
d="M102 376h171v180h36v-180h163v-36h-163v-174h-36v174h-171v36zM122 108h330v-35h-330v35z" />
    <glyph glyph-name="twosuperior" unicode="&#xb2;" horiz-adv-x="320" 
d="M78 460h97q74 0 78 28h13l-5 -65h-222q0 37 19 69t46 54.5t54 43.5t46 45t19 50q0 23 -17.5 46.5t-48.5 23.5q-26 0 -43.5 -22.5t-17.5 -52.5q0 -37 -19 -37q-29 0 -29 37q0 36 32.5 67.5t79.5 31.5q51 0 79 -28t28 -71q0 -33 -29.5 -66.5t-65 -56.5t-65 -49.5
t-29.5 -47.5z" />
    <glyph glyph-name="threesuperior" unicode="&#xb3;" horiz-adv-x="306" 
d="M155 651q56 -9 84 -41t28 -71q0 -43 -40 -82.5t-91 -39.5q-38 0 -68 22.5t-30 55.5q-1 16 8.5 30.5t22.5 14.5q8 0 14.5 -4.5t8.5 -9.5l3 -4q-10 -12 -10 -40q0 -15 15 -28t37 -13q30 0 54 30t24 62q0 45 -28.5 74t-80.5 29l11 20q30 18 56 43t26 40h-57q-61 0 -65 -28
h-14l4 62h178q0 -19 -6 -35.5t-18.5 -30.5t-21.5 -22t-25 -19.5t-19 -14.5z" />
    <glyph glyph-name="acute" unicode="&#xb4;" horiz-adv-x="648" 
d="M211 588l-5 2q-10 6 1 15l150 145q14 11 22 -2l15 -28q7 -13 -10 -25l-153 -102q-13 -9 -20 -5z" />
    <glyph glyph-name="mu" unicode="&#xb5;" horiz-adv-x="622" 
d="M543 66l7 -23q-44 -43 -99 -43q-28 0 -44 18.5t-18 37.5l-2 18q-25 -23 -36.5 -33t-47 -28t-68.5 -18q-70 0 -105 34q0 -71 12.5 -122.5t22.5 -66.5t17 -20l-40 -27q-30 0 -48 46t-18 83q0 7 3 189.5t3 254.5q0 61 -3 98t-5 44l-3 6l69 21v-346q0 -92 26 -125t76 -33
q35 0 77 31t68 71v323q0 20 -2.5 34.5t-5.5 19.5l-3 4l70 21v-409q0 -127 97 -60z" />
    <glyph glyph-name="paragraph" unicode="&#xb6;" horiz-adv-x="608" 
d="M555 627v-17q-5 0 -13 -0.5t-12 -0.5q-62 -11 -62 -100v-516q0 -67 -53.5 -112t-142.5 -51h-17v22q34 0 57.5 20.5t23.5 50.5v314q-130 -30 -205.5 28.5t-75.5 166.5q0 67 40 113t96.5 64t124.5 18h239zM350 -133q32 15 59 48t27 78v582q-29 -26 -48.5 -66.5t-19.5 -84.5
v-511q0 -25 -18 -46z" />
    <glyph glyph-name="periodcentered" unicode="&#xb7;" horiz-adv-x="249" 
d="M90 240q-17 0 -29 12t-12 28q0 17 12 28.5t29 11.5q16 0 27.5 -11.5t11.5 -28.5q0 -16 -11.5 -28t-27.5 -12z" />
    <glyph glyph-name="cedilla" unicode="&#xb8;" horiz-adv-x="569" 
d="M309 -38q35 -2 57 -19.5t22 -51.5q0 -83 -186 -83l-2 12q142 7 142 67q0 22 -20.5 38t-61.5 18v12q21 7 49 7z" />
    <glyph glyph-name="onesuperior" unicode="&#xb9;" horiz-adv-x="210" 
d="M130 779v-294q0 -15 9 -32t21 -17v-13h-101v13q12 0 21.5 17.5t9.5 31.5l-2 213q0 18 -1 25t-7 12.5t-19 5.5v12z" />
    <glyph glyph-name="ordmasculine" unicode="&#xba;" horiz-adv-x="439" 
d="M214 777q75 0 124 -52t49 -128q0 -75 -49 -127.5t-124 -52.5q-74 0 -123 52.5t-49 127.5q0 76 49 128t123 52zM224 437q46 0 80.5 48t28.5 115q-6 70 -41 112t-86 42q-50 0 -83.5 -45.5t-27.5 -114.5q5 -69 43 -113t86 -44z" />
    <glyph glyph-name="guillemotright" unicode="&#xbb;" horiz-adv-x="612" 
d="M311 326l-216 209h38l203 -194v-31l-211 -195h-32zM490 326l-216 209h38l203 -194v-31l-211 -195h-32z" />
    <glyph glyph-name="onequarter" unicode="&#xbc;" horiz-adv-x="553" 
d="M499 700h31l-468 -700h-30zM133 779v-325q0 -18 7.5 -37t20.5 -19v-10h-90v10q12 0 20.5 19.5t8.5 36.5v241q0 25 -8.5 35t-31.5 10v13zM484 60q0 -17 8 -34t20 -17v-9h-94v9q13 0 21 17t8 34v21h-172q0 31 35 93.5t69.5 123t34.5 87.5h56q-10 -46 -78.5 -147.5
t-80.5 -129.5h136v150l37 15v-165h36q0 -9 -2 -12t-7 -6t-9 -9h-18v-21z" />
    <glyph glyph-name="onehalf" unicode="&#xbd;" horiz-adv-x="633" 
d="M498 700h31l-468 -700h-30zM133 779v-325q0 -18 7.5 -37t20.5 -19v-10h-90v10q12 0 20.5 19.5t8.5 36.5v241q0 25 -8.5 35t-31.5 10v13zM401 33h90q92 0 96 30h12l-7 -63h-243q0 39 22 74t53.5 61t63 49.5t53.5 51.5t22 56q0 25 -21 50t-60 25q-30 0 -54.5 -24t-24.5 -55
q0 -14 -0.5 -20.5t-5.5 -12.5t-15 -6q-20 0 -20 36q0 41 33.5 73.5t89.5 32.5q54 0 86.5 -27.5t32.5 -73.5q0 -36 -31.5 -74t-70 -65t-70 -59.5t-31.5 -58.5z" />
    <glyph glyph-name="threequarters" unicode="&#xbe;" horiz-adv-x="635" 
d="M575 700h31l-468 -700h-30zM163 639q62 -10 94.5 -46t32.5 -78q0 -49 -40.5 -91.5t-101.5 -42.5q-44 0 -75 20.5t-34 63.5q-1 20 8 34.5t28 14.5q8 0 14 -6t8 -12l2 -5q-14 -14 -14 -37q0 -18 16.5 -34.5t47.5 -16.5q39 0 67 34.5t28 70.5q0 49 -35 82t-93 33l11 21
q89 52 89 96h-69q-68 0 -72 -31h-12l4 64h201q0 -37 -33.5 -73t-71.5 -61zM564 60q0 -17 8 -34t20 -17v-9h-94v9q13 0 21 17t8 34v21h-172q0 31 35 93.5t69.5 123t34.5 87.5h56q-10 -46 -78.5 -147.5t-80.5 -129.5h136v150l37 15v-165h36q0 -9 -2 -12t-7 -6t-9 -9h-18v-21z
" />
    <glyph glyph-name="questiondown" unicode="&#xbf;" horiz-adv-x="522" 
d="M290 449q-19 0 -32 13t-13 32q0 18 13 31.5t32 13.5q18 0 31 -13.5t13 -31.5q0 -19 -12.5 -32t-31.5 -13zM260 -168q-78 0 -132.5 41.5t-54.5 106.5q0 46 20.5 85t50 65.5t59 50t50 50.5t20.5 57q0 11 -8.5 22.5t-8.5 15.5q0 9 9.5 17.5t23.5 8.5q22 0 34 -15.5t12 -41.5
q0 -29 -21 -58t-51.5 -55t-61 -54t-51.5 -66.5t-21 -81.5q0 -51 41 -83t90 -32q55 0 93.5 32t38.5 87q0 25 1 36t8 21t21 10q20 0 33 -15t13 -41q0 -68 -62.5 -115.5t-145.5 -47.5z" />
    <glyph glyph-name="Agrave" unicode="&#xc0;" horiz-adv-x="655" 
d="M362 665l203 -574q27 -77 64 -77v-14h-178v14q24 0 37 17t6 44l-34 107h-303l-32 -96q-24 -72 38 -72v-14h-137v14q36 0 64 80l203 571q-3 10 -9 16.5t-10 6.5v12h44q6 0 11.5 -1t9 -2t6.5 -3.5t5 -4t4 -6t2.5 -5.5t3 -6.5t2.5 -6.5zM168 210h281l-130 386q-3 10 -10 10
t-10 -9zM376 755l-5 -2q-7 -4 -20 5l-152 99q-17 12 -10 25l14 27q8 13 22 2l150 -141q11 -9 1 -15z" />
    <glyph glyph-name="Aacute" unicode="&#xc1;" horiz-adv-x="655" 
d="M362 665l203 -574q27 -77 64 -77v-14h-178v14q24 0 37 17t6 44l-34 107h-303l-32 -96q-24 -72 38 -72v-14h-137v14q36 0 64 80l203 571q-3 10 -9 16.5t-10 6.5v12h44q6 0 11.5 -1t9 -2t6.5 -3.5t5 -4t4 -6t2.5 -5.5t3 -6.5t2.5 -6.5zM168 210h281l-130 386q-3 10 -10 10
t-10 -9zM258 753l-5 2q-10 6 1 15l150 145q14 11 22 -2l15 -28q7 -13 -10 -25l-153 -102q-13 -9 -20 -5z" />
    <glyph glyph-name="Acircumflex" unicode="&#xc2;" horiz-adv-x="655" 
d="M362 665l203 -574q27 -77 64 -77v-14h-178v14q24 0 37 17t6 44l-34 107h-303l-32 -96q-24 -72 38 -72v-14h-137v14q36 0 64 80l203 571q-3 10 -9 16.5t-10 6.5v12h44q6 0 11.5 -1t9 -2t6.5 -3.5t5 -4t4 -6t2.5 -5.5t3 -6.5t2.5 -6.5zM168 210h281l-130 386q-3 10 -10 10
t-10 -9zM170 770l132 141q4 4 11 4t11 -4l132 -140q9 -11 -4 -16l-5 -2q-3 -1 -7.5 1t-10.5 6.5t-8 5.5l-108 93l-109 -94q-18 -14 -28 -12l-3 1q-13 6 -3 16z" />
    <glyph glyph-name="Atilde" unicode="&#xc3;" horiz-adv-x="655" 
d="M362 665l203 -574q27 -77 64 -77v-14h-178v14q24 0 37 17t6 44l-34 107h-303l-32 -96q-24 -72 38 -72v-14h-137v14q36 0 64 80l203 571q-3 10 -9 16.5t-10 6.5v12h44q6 0 11.5 -1t9 -2t6.5 -3.5t5 -4t4 -6t2.5 -5.5t3 -6.5t2.5 -6.5zM168 210h281l-130 386q-3 10 -10 10
t-10 -9zM151 783v14q61 52 116 52q37 0 84 -27.5t77 -27.5q20 0 53 30l9 -15q-47 -50 -95 -50q-29 0 -74 27.5t-88 27.5q-39 0 -82 -31z" />
    <glyph glyph-name="Adieresis" unicode="&#xc4;" horiz-adv-x="655" 
d="M362 665l203 -574q27 -77 64 -77v-14h-178v14q24 0 37 17t6 44l-34 107h-303l-32 -96q-24 -72 38 -72v-14h-137v14q36 0 64 80l203 571q-3 10 -9 16.5t-10 6.5v12h44q6 0 11.5 -1t9 -2t6.5 -3.5t5 -4t4 -6t2.5 -5.5t3 -6.5t2.5 -6.5zM168 210h281l-130 386q-3 10 -10 10
t-10 -9zM232 774q-17 0 -28.5 11.5t-11.5 27.5q0 17 11.5 29t28.5 12q16 0 27.5 -12t11.5 -29q0 -16 -11.5 -27.5t-27.5 -11.5zM402 774q-16 0 -28 12t-12 28t12 28t28 12t28 -12t12 -28t-12 -28t-28 -12z" />
    <glyph glyph-name="Aring" unicode="&#xc5;" horiz-adv-x="693" 
d="M371 665l203 -574q27 -77 64 -77v-14h-178v14q24 0 37 17t6 44l-34 107h-303l-32 -96q-24 -72 38 -72v-14h-137v14q36 0 64 80l203 571q-3 10 -9 16.5t-10 6.5v12h44q6 0 11.5 -1t9 -2t6.5 -3.5t5 -4t4 -6t2.5 -5.5t3 -6.5t2.5 -6.5zM177 210h281l-130 386q-3 10 -10 10
t-10 -9zM409 797q0 -36 -25 -61.5t-63 -25.5q-37 0 -62.5 25.5t-25.5 61.5t25.5 61t62.5 25q38 0 63 -25t25 -61zM269 797q4 -32 20 -52t38 -20q20 0 33 20.5t10 51.5q-2 32 -18.5 53t-38.5 21q-20 0 -32.5 -21t-11.5 -53z" />
    <glyph glyph-name="AE" unicode="&#xc6;" horiz-adv-x="955" 
d="M666 675q-48 0 -72.5 -20.5t-24.5 -76.5v-235q77 0 131.5 18t54.5 52h14v-166h-14q0 33 -54.5 51t-131.5 18v-195q0 -55 24.5 -75.5t72.5 -20.5q57 0 97 9.5t60 21.5t30.5 34.5t12 37t1.5 41.5h17v-147q0 -22 -21 -22h-413v14q22 0 35.5 30t13.5 59v213h-192l-121 -213
q-10 -20 -10 -39q0 -50 24 -50v-14h-174v14q27 0 57 29t50 60l312 543q-5 17 -18 28.5t-27 11.5v14h463q21 0 21 -23v-147h-17q0 19 -0.5 29.5t-4.5 28.5t-11 28t-21.5 23t-35.5 19.5t-53.5 11.5t-74.5 5zM325 343h174v295q-3 8 -10 6.5t-11 -8.5z" />
    <glyph glyph-name="Ccedilla" unicode="&#xc7;" horiz-adv-x="650" 
d="M384 678q-91 0 -167.5 -87.5t-76.5 -206.5q0 -84 22 -150t53 -102.5t70.5 -59.5t68.5 -30.5t53 -7.5q60 0 101.5 20t92.5 62l13 -11q-75 -103 -207 -114q-14 -24 -14 -29q25 -5 42 -11t31.5 -21.5t14.5 -38.5q0 -83 -186 -83l-2 12q142 7 142 68q0 45 -82 50q0 14 3 17
q3 4 13.5 17t14.5 19q-144 6 -234 111t-90 263q0 151 99.5 248.5t249.5 97.5q86 0 141 -46.5t55 -99.5q0 -31 -13.5 -47t-34.5 -16q-10 0 -17 2t-10 4l-2 3q0 18 -4.5 40.5t-17.5 54t-44.5 52t-77.5 20.5z" />
    <glyph glyph-name="Egrave" unicode="&#xc8;" horiz-adv-x="558" 
d="M259 676q-55 0 -76 -29t-21 -91v-196q196 0 196 58h14v-136h-14q0 35 -52.5 46t-143.5 11v-208q0 -59 21.5 -83t75.5 -24q100 0 157 44t57 91h14v-137q0 -22 -21 -22h-423v14q23 0 36 27.5t13 56.5v503q0 29 -13 57t-36 28v14h423h9t6 -1t5 -4t1 -8v-147h-14
q0 50 -56.5 93t-157.5 43zM360 755l-5 -2q-7 -4 -20 5l-152 99q-17 12 -10 25l14 27q8 13 22 2l150 -141q11 -9 1 -15z" />
    <glyph glyph-name="Eacute" unicode="&#xc9;" horiz-adv-x="558" 
d="M259 676q-55 0 -76 -29t-21 -91v-196q196 0 196 58h14v-136h-14q0 35 -52.5 46t-143.5 11v-208q0 -59 21.5 -83t75.5 -24q100 0 157 44t57 91h14v-137q0 -22 -21 -22h-423v14q23 0 36 27.5t13 56.5v503q0 29 -13 57t-36 28v14h423h9t6 -1t5 -4t1 -8v-147h-14
q0 50 -56.5 93t-157.5 43zM216 753l-5 2q-10 6 1 15l150 145q14 11 22 -2l15 -28q7 -13 -10 -25l-153 -102q-13 -9 -20 -5z" />
    <glyph glyph-name="Ecircumflex" unicode="&#xca;" horiz-adv-x="558" 
d="M259 676q-55 0 -76 -29t-21 -91v-196q196 0 196 58h14v-136h-14q0 35 -52.5 46t-143.5 11v-208q0 -59 21.5 -83t75.5 -24q100 0 157 44t57 91h14v-137q0 -22 -21 -22h-423v14q23 0 36 27.5t13 56.5v503q0 29 -13 57t-36 28v14h423h9t6 -1t5 -4t1 -8v-147h-14
q0 50 -56.5 93t-157.5 43zM139 770l132 141q4 4 11 4t11 -4l132 -140q9 -11 -4 -16l-5 -2q-3 -1 -7.5 1t-10.5 6.5t-8 5.5l-108 93l-109 -94q-18 -14 -28 -12l-3 1q-13 6 -3 16z" />
    <glyph glyph-name="Edieresis" unicode="&#xcb;" horiz-adv-x="558" 
d="M259 676q-55 0 -76 -29t-21 -91v-196q196 0 196 58h14v-136h-14q0 35 -52.5 46t-143.5 11v-208q0 -59 21.5 -83t75.5 -24q100 0 157 44t57 91h14v-137q0 -22 -21 -22h-423v14q23 0 36 27.5t13 56.5v503q0 29 -13 57t-36 28v14h423h9t6 -1t5 -4t1 -8v-147h-14
q0 50 -56.5 93t-157.5 43zM196 774q-17 0 -28.5 11.5t-11.5 27.5q0 17 11.5 29t28.5 12q16 0 27.5 -12t11.5 -29q0 -16 -11.5 -27.5t-27.5 -11.5zM366 774q-16 0 -28 12t-12 28t12 28t28 12t28 -12t12 -28t-12 -28t-28 -12z" />
    <glyph glyph-name="Igrave" unicode="&#xcc;" horiz-adv-x="282" 
d="M223 700v-14q-23 0 -36 -27t-13 -63v-493q0 -29 13.5 -59t35.5 -30v-14h-164v14q22 0 35.5 30t13.5 59v493q0 29 -13.5 59.5t-35.5 30.5v14h164zM214 755l-5 -2q-7 -4 -20 5l-152 99q-17 12 -10 25l14 27q8 13 22 2l150 -141q11 -9 1 -15z" />
    <glyph glyph-name="Iacute" unicode="&#xcd;" horiz-adv-x="282" 
d="M223 700v-14q-23 0 -36 -27t-13 -63v-493q0 -29 13.5 -59t35.5 -30v-14h-164v14q22 0 35.5 30t13.5 59v493q0 29 -13.5 59.5t-35.5 30.5v14h164zM71 753l-5 2q-10 6 1 15l150 145q14 11 22 -2l15 -28q7 -13 -10 -25l-153 -102q-13 -9 -20 -5z" />
    <glyph glyph-name="Icircumflex" unicode="&#xce;" horiz-adv-x="283" 
d="M226 700v-14q-23 0 -36 -27t-13 -63v-493q0 -29 13.5 -59t35.5 -30v-14h-164v14q22 0 35.5 30t13.5 59v493q0 29 -13.5 59.5t-35.5 30.5v14h164zM-1 770l132 141q4 4 11 4t11 -4l132 -140q9 -11 -4 -16l-5 -2q-3 -1 -7.5 1t-10.5 6.5t-8 5.5l-108 93l-109 -94
q-18 -14 -28 -12l-3 1q-13 6 -3 16z" />
    <glyph glyph-name="Idieresis" unicode="&#xcf;" horiz-adv-x="282" 
d="M57 791q-17 0 -28.5 11.5t-11.5 27.5q0 17 11.5 29t28.5 12q16 0 27.5 -12t11.5 -29q0 -16 -11.5 -27.5t-27.5 -11.5zM225 791q-17 0 -28.5 11.5t-11.5 28.5t11.5 28.5t28.5 11.5t28.5 -11.5t11.5 -28.5t-11.5 -28.5t-28.5 -11.5zM225 700v-14q-23 0 -36 -27t-13 -63
v-493q0 -29 13.5 -59t35.5 -30v-14h-164v14q22 0 35.5 30t13.5 59v493q0 29 -13.5 59.5t-35.5 30.5v14h164z" />
    <glyph glyph-name="Eth" unicode="&#xd0;" horiz-adv-x="636" 
d="M56 365h36v232q0 29 -13.5 59t-35.5 30v14h268q129 0 197 -73t68 -175q0 -79 -31 -152t-82 -126.5t-115.5 -93.5t-133 -60t-132.5 -20h-39v14q23 0 36 17.5t13 42.5v250h-36v41zM194 52q46 16 93 44.5t96 75t80 119t31 157.5q0 93 -55 154.5t-153 61.5h-76q-48 0 -48 -48
v-231q0 -20 18 -20h161l-4 -41h-155q-20 0 -20 -17v-229q0 -36 32 -26z" />
    <glyph glyph-name="Ntilde" unicode="&#xd1;" horiz-adv-x="690" 
d="M506 700h128v-14q-22 0 -35.5 -30.5t-13.5 -59.5l-5 -596h-20q-68 69 -116 143q-50 77 -166 236.5t-150 211.5l2 -488q0 -29 13 -59t35 -30v-14h-129v14q22 0 35.5 30t13.5 59l4 523q-2 3 -10.5 22.5t-18 28.5t-25.5 9v14h89q13 0 21 -11l402 -576l-6 483
q0 29 -13.5 59.5t-34.5 30.5v14zM190 783v14q61 52 116 52q37 0 84 -27.5t77 -27.5q20 0 53 30l9 -15q-47 -50 -95 -50q-29 0 -74 27.5t-88 27.5q-39 0 -82 -31z" />
    <glyph glyph-name="Ograve" unicode="&#xd2;" horiz-adv-x="816" 
d="M408 712q148 0 248.5 -105t100.5 -255t-100.5 -255.5t-248.5 -105.5t-248.5 105.5t-100.5 255.5t100.5 255t248.5 105zM426 35q115 0 189 91t63 227q-12 137 -94 227t-195 90q-111 0 -186 -94t-62 -223q14 -138 94.5 -228t190.5 -90zM496 755l-5 -2q-7 -4 -20 5l-152 99
q-17 12 -10 25l14 27q8 13 22 2l150 -141q11 -9 1 -15z" />
    <glyph glyph-name="Oacute" unicode="&#xd3;" horiz-adv-x="816" 
d="M408 712q148 0 248.5 -105t100.5 -255t-100.5 -255.5t-248.5 -105.5t-248.5 105.5t-100.5 255.5t100.5 255t248.5 105zM426 35q115 0 189 91t63 227q-12 137 -94 227t-195 90q-111 0 -186 -94t-62 -223q14 -138 94.5 -228t190.5 -90zM312 753l-5 2q-10 6 1 15l150 145
q14 11 22 -2l15 -28q7 -13 -10 -25l-153 -102q-13 -9 -20 -5z" />
    <glyph glyph-name="Ocircumflex" unicode="&#xd4;" horiz-adv-x="816" 
d="M408 712q148 0 248.5 -105t100.5 -255t-100.5 -255.5t-248.5 -105.5t-248.5 105.5t-100.5 255.5t100.5 255t248.5 105zM426 35q115 0 189 91t63 227q-12 137 -94 227t-195 90q-111 0 -186 -94t-62 -223q14 -138 94.5 -228t190.5 -90zM265 770l132 141q4 4 11 4t11 -4
l132 -140q9 -11 -4 -16l-5 -2q-3 -1 -7.5 1t-10.5 6.5t-8 5.5l-108 93l-109 -94q-18 -14 -28 -12l-3 1q-13 6 -3 16z" />
    <glyph glyph-name="Otilde" unicode="&#xd5;" horiz-adv-x="816" 
d="M408 712q148 0 248.5 -105t100.5 -255t-100.5 -255.5t-248.5 -105.5t-248.5 105.5t-100.5 255.5t100.5 255t248.5 105zM426 35q115 0 189 91t63 227q-12 137 -94 227t-195 90q-111 0 -186 -94t-62 -223q14 -138 94.5 -228t190.5 -90zM249 783v14q61 52 116 52
q37 0 84 -27.5t77 -27.5q20 0 53 30l9 -15q-47 -50 -95 -50q-29 0 -74 27.5t-88 27.5q-39 0 -82 -31z" />
    <glyph glyph-name="Odieresis" unicode="&#xd6;" horiz-adv-x="816" 
d="M408 712q148 0 248.5 -105t100.5 -255t-100.5 -255.5t-248.5 -105.5t-248.5 105.5t-100.5 255.5t100.5 255t248.5 105zM426 35q115 0 189 91t63 227q-12 137 -94 227t-195 90q-111 0 -186 -94t-62 -223q14 -138 94.5 -228t190.5 -90zM323 774q-17 0 -28.5 11.5
t-11.5 27.5q0 17 11.5 29t28.5 12q16 0 27.5 -12t11.5 -29q0 -16 -11.5 -27.5t-27.5 -11.5zM493 774q-17 0 -28.5 12t-11.5 28t11.5 28t28.5 12t28.5 -12t11.5 -28t-11.5 -28t-28.5 -12z" />
    <glyph glyph-name="multiply" unicode="&#xd7;" horiz-adv-x="540" 
d="M118 177l128 128l-134 135l25 25l135 -134l122 122l25 -24l-123 -123l131 -131l-25 -25l-131 131l-128 -128z" />
    <glyph glyph-name="Oslash" unicode="&#xd8;" horiz-adv-x="816" 
d="M625 700h32l-40 -58q66 -50 103 -126.5t37 -163.5q0 -150 -100.5 -255.5t-248.5 -105.5q-107 0 -188 55l-30 -46h-36l42 63q-64 50 -100.5 126t-36.5 163q0 150 100.5 255t248.5 105q102 0 187 -54zM435 25q107 0 178 86t65 241q-6 129 -99 233l-321 -484q81 -76 177 -76
zM141 352q4 -57 31 -123.5t64 -104.5l323 481q-74 75 -174 75q-119 0 -186.5 -96t-57.5 -232z" />
    <glyph glyph-name="Ugrave" unicode="&#xd9;" 
d="M494 700h131v-14q-22 0 -35 -30t-13 -59l-4 -325q0 -133 -67.5 -208t-159.5 -75q-39 0 -72 6t-68 23t-59 44t-39.5 73.5t-15.5 107.5v354q0 29 -13.5 59t-35.5 30v14h165v-14q-21 0 -34.5 -30.5t-13.5 -58.5v-346q0 -87 53.5 -153t134.5 -66q100 0 149 68t49 170l-4 327
q0 28 -13.5 58.5t-34.5 30.5v14zM436 755l-5 -2q-7 -4 -20 5l-152 99q-17 12 -10 25l14 27q8 13 22 2l150 -141q11 -9 1 -15z" />
    <glyph glyph-name="Uacute" unicode="&#xda;" 
d="M494 700h131v-14q-22 0 -35 -30t-13 -59l-4 -325q0 -133 -67.5 -208t-159.5 -75q-39 0 -72 6t-68 23t-59 44t-39.5 73.5t-15.5 107.5v354q0 29 -13.5 59t-35.5 30v14h165v-14q-21 0 -34.5 -30.5t-13.5 -58.5v-346q0 -87 53.5 -153t134.5 -66q100 0 149 68t49 170l-4 327
q0 28 -13.5 58.5t-34.5 30.5v14zM267 753l-5 2q-10 6 1 15l150 145q14 11 22 -2l15 -28q7 -13 -10 -25l-153 -102q-13 -9 -20 -5z" />
    <glyph glyph-name="Ucircumflex" unicode="&#xdb;" 
d="M494 700h131v-14q-22 0 -35 -30t-13 -59l-4 -325q0 -133 -67.5 -208t-159.5 -75q-39 0 -72 6t-68 23t-59 44t-39.5 73.5t-15.5 107.5v354q0 29 -13.5 59t-35.5 30v14h165v-14q-21 0 -34.5 -30.5t-13.5 -58.5v-346q0 -87 53.5 -153t134.5 -66q100 0 149 68t49 170l-4 327
q0 28 -13.5 58.5t-34.5 30.5v14zM203 770l132 141q4 4 11 4t11 -4l132 -140q9 -11 -4 -16l-5 -2q-3 -1 -7.5 1t-10.5 6.5t-8 5.5l-108 93l-109 -94q-18 -14 -28 -12l-3 1q-13 6 -3 16z" />
    <glyph glyph-name="Udieresis" unicode="&#xdc;" 
d="M494 700h131v-14q-22 0 -35 -30t-13 -59l-4 -325q0 -133 -67.5 -208t-159.5 -75q-39 0 -72 6t-68 23t-59 44t-39.5 73.5t-15.5 107.5v354q0 29 -13.5 59t-35.5 30v14h165v-14q-21 0 -34.5 -30.5t-13.5 -58.5v-346q0 -87 53.5 -153t134.5 -66q100 0 149 68t49 170l-4 327
q0 28 -13.5 58.5t-34.5 30.5v14zM275 774q-17 0 -28.5 11.5t-11.5 27.5q0 17 11.5 29t28.5 12q16 0 27.5 -12t11.5 -29q0 -16 -11.5 -27.5t-27.5 -11.5zM445 774q-17 0 -28.5 12t-11.5 28t11.5 28t28.5 12t28.5 -12t11.5 -28t-11.5 -28t-28.5 -12z" />
    <glyph glyph-name="Yacute" unicode="&#xdd;" horiz-adv-x="586" 
d="M424 700h129v-14q-23 0 -41.5 -18.5t-55.5 -70.5l-130 -193v-301q0 -29 13 -59t35 -30v-14h-166v14q22 0 35 30t13 59v265l-143 229q-3 5 -8 14q-16 28 -24 40.5t-21 23.5t-27 11v14h179v-14q-25 0 -32 -18t12 -53l118 -186l115 168q18 26 23.5 46.5t-1 31.5t-23.5 11v14
zM256 753l-5 2q-10 6 1 15l150 145q14 11 22 -2l15 -28q7 -13 -10 -25l-153 -102q-13 -9 -20 -5z" />
    <glyph glyph-name="Thorn" unicode="&#xde;" horiz-adv-x="555" 
d="M515 439q0 -26 -12 -51t-37 -48t-49 -41t-64 -39t-64 -33t-67 -31t-57 -26v-67q0 -29 13.5 -59t35.5 -30v-14h-168v14q22 0 35.5 30t13.5 59v493q0 29 -13.5 59.5t-35.5 30.5v14h168v-14q-22 0 -35.5 -30.5t-13.5 -59.5v-16h166q85 0 134.5 -36t49.5 -105zM165 501v-302
q101 44 178 109.5t77 131.5q0 40 -27.5 69.5t-69.5 29.5h-122q-22 0 -29 -7.5t-7 -30.5z" />
    <glyph glyph-name="germandbls" unicode="&#xdf;" horiz-adv-x="596" 
d="M360 393q0 -16 19 -35.5t46 -40t54.5 -44.5t46.5 -56.5t19 -67.5q0 -63 -45.5 -109.5t-101.5 -46.5q-54 0 -87.5 30.5t-33.5 64.5q0 23 19.5 34.5t36.5 6.5q0 -11 2 -25t7.5 -35t20 -34.5t35.5 -13.5q28 0 56 37t28 82q0 28 -17.5 51t-42.5 39.5t-50 34.5t-42.5 47.5
t-17.5 67.5q0 28 16 54t35.5 43t36.5 41t18 48q0 40 -26.5 73.5t-66.5 33.5q-69 0 -118.5 -67t-49.5 -176v-322q0 -30 14 -62t37 -32v-14h-167v14q22 0 36.5 32t14.5 62v306h-57v9l6 17h51q0 107 78 184.5t167 77.5q63 0 100 -38t37 -81q0 -35 -18 -63t-39 -43.5t-39 -37.5
t-18 -46z" />
    <glyph glyph-name="agrave" unicode="&#xe0;" horiz-adv-x="538" 
d="M459 98q0 -39 13 -62.5t38 -23.5v-12h-64q-23 0 -36.5 14.5t-16.5 33.5q-71 -61 -152 -61q-76 0 -127.5 33.5t-51.5 100.5q0 44 34 79.5t82.5 58.5t97.5 43t83 43.5t34 50.5v30q0 27 -27.5 54t-71.5 27q-36 0 -62 -15.5t-38 -39t-17.5 -42.5t-5.5 -34q-11 -10 -28 -10
q-18 0 -29.5 11.5t-11.5 33.5q0 48 57 90t136 42q164 0 164 -163v-282zM250 23q38 0 84 28.5t59 55.5v218q-23 -16 -73.5 -42t-88 -46t-68 -50.5t-30.5 -62.5q0 -52 32.5 -76.5t84.5 -24.5zM368 590l-5 -2q-7 -4 -20 5l-152 99q-17 12 -10 25l14 27q8 13 22 2l150 -141
q11 -9 1 -15z" />
    <glyph glyph-name="aacute" unicode="&#xe1;" horiz-adv-x="538" 
d="M459 98q0 -39 13 -62.5t38 -23.5v-12h-64q-23 0 -36.5 14.5t-16.5 33.5q-71 -61 -152 -61q-76 0 -127.5 33.5t-51.5 100.5q0 44 34 79.5t82.5 58.5t97.5 43t83 43.5t34 50.5v30q0 27 -27.5 54t-71.5 27q-36 0 -62 -15.5t-38 -39t-17.5 -42.5t-5.5 -34q-11 -10 -28 -10
q-18 0 -29.5 11.5t-11.5 33.5q0 48 57 90t136 42q164 0 164 -163v-282zM250 23q38 0 84 28.5t59 55.5v218q-23 -16 -73.5 -42t-88 -46t-68 -50.5t-30.5 -62.5q0 -52 32.5 -76.5t84.5 -24.5zM211 588l-5 2q-10 6 1 15l150 145q14 11 22 -2l15 -28q7 -13 -10 -25l-153 -102
q-13 -9 -20 -5z" />
    <glyph glyph-name="acircumflex" unicode="&#xe2;" horiz-adv-x="538" 
d="M459 98q0 -39 13 -62.5t38 -23.5v-12h-64q-23 0 -36.5 14.5t-16.5 33.5q-71 -61 -152 -61q-76 0 -127.5 33.5t-51.5 100.5q0 44 34 79.5t82.5 58.5t97.5 43t83 43.5t34 50.5v30q0 27 -27.5 54t-71.5 27q-36 0 -62 -15.5t-38 -39t-17.5 -42.5t-5.5 -34q-11 -10 -28 -10
q-18 0 -29.5 11.5t-11.5 33.5q0 48 57 90t136 42q164 0 164 -163v-282zM250 23q38 0 84 28.5t59 55.5v218q-23 -16 -73.5 -42t-88 -46t-68 -50.5t-30.5 -62.5q0 -52 32.5 -76.5t84.5 -24.5zM154 605l132 141q4 4 11 4t11 -4l132 -140q9 -11 -4 -16l-5 -2q-3 -1 -7.5 1
t-10.5 6.5t-8 5.5l-108 93l-109 -94q-18 -14 -28 -12l-3 1q-13 6 -3 16z" />
    <glyph glyph-name="atilde" unicode="&#xe3;" horiz-adv-x="538" 
d="M459 98q0 -39 13 -62.5t38 -23.5v-12h-64q-23 0 -36.5 14.5t-16.5 33.5q-71 -61 -152 -61q-76 0 -127.5 33.5t-51.5 100.5q0 44 34 79.5t82.5 58.5t97.5 43t83 43.5t34 50.5v30q0 27 -27.5 54t-71.5 27q-36 0 -62 -15.5t-38 -39t-17.5 -42.5t-5.5 -34q-11 -10 -28 -10
q-18 0 -29.5 11.5t-11.5 33.5q0 48 57 90t136 42q164 0 164 -163v-282zM250 23q38 0 84 28.5t59 55.5v218q-23 -16 -73.5 -42t-88 -46t-68 -50.5t-30.5 -62.5q0 -52 32.5 -76.5t84.5 -24.5zM127 618v14q61 52 116 52q37 0 84 -27.5t77 -27.5q20 0 53 30l9 -15
q-47 -50 -95 -50q-29 0 -74 27.5t-88 27.5q-39 0 -82 -31z" />
    <glyph glyph-name="adieresis" unicode="&#xe4;" horiz-adv-x="538" 
d="M459 98q0 -39 13 -62.5t38 -23.5v-12h-64q-23 0 -36.5 14.5t-16.5 33.5q-71 -61 -152 -61q-76 0 -127.5 33.5t-51.5 100.5q0 44 34 79.5t82.5 58.5t97.5 43t83 43.5t34 50.5v30q0 27 -27.5 54t-71.5 27q-36 0 -62 -15.5t-38 -39t-17.5 -42.5t-5.5 -34q-11 -10 -28 -10
q-18 0 -29.5 11.5t-11.5 33.5q0 48 57 90t136 42q164 0 164 -163v-282zM250 23q38 0 84 28.5t59 55.5v218q-23 -16 -73.5 -42t-88 -46t-68 -50.5t-30.5 -62.5q0 -52 32.5 -76.5t84.5 -24.5zM201 609q-17 0 -28.5 11.5t-11.5 27.5q0 17 11.5 29t28.5 12q16 0 27.5 -12
t11.5 -29q0 -16 -11.5 -27.5t-27.5 -11.5zM371 609q-17 0 -28.5 11.5t-11.5 28.5t11.5 28.5t28.5 11.5t28.5 -11.5t11.5 -28.5t-11.5 -28.5t-28.5 -11.5z" />
    <glyph glyph-name="aring" unicode="&#xe5;" horiz-adv-x="538" 
d="M459 98q0 -39 13 -62.5t38 -23.5v-12h-64q-23 0 -36.5 14.5t-16.5 33.5q-71 -61 -152 -61q-76 0 -127.5 33.5t-51.5 100.5q0 44 34 79.5t82.5 58.5t97.5 43t83 43.5t34 50.5v30q0 27 -27.5 54t-71.5 27q-36 0 -62 -15.5t-38 -39t-17.5 -42.5t-5.5 -34q-11 -10 -28 -10
q-18 0 -29.5 11.5t-11.5 33.5q0 48 57 90t136 42q164 0 164 -163v-282zM250 23q38 0 84 28.5t59 55.5v218q-23 -16 -73.5 -42t-88 -46t-68 -50.5t-30.5 -62.5q0 -52 32.5 -76.5t84.5 -24.5zM385 636q0 -36 -25 -61.5t-63 -25.5q-37 0 -62.5 25.5t-25.5 61.5t25.5 61t62.5 25
q38 0 63 -25t25 -61zM245 636q4 -32 20 -52t38 -20q20 0 33 20.5t10 51.5q-2 32 -18.5 53t-38.5 21q-20 0 -32.5 -21t-11.5 -53z" />
    <glyph glyph-name="ae" unicode="&#xe6;" horiz-adv-x="913" 
d="M835 99l13 -14q-99 -91 -214 -91q-110 0 -188 109q-22 -44 -79 -80t-116 -36q-85 0 -137 33t-52 101q0 44 34 79.5t82.5 58.5t97.5 43t83 43.5t34 50.5v30q0 28 -27.5 54.5t-73.5 26.5q-36 0 -61 -17t-36 -42t-15 -43.5t-4 -31.5q-14 -10 -30 -10q-44 0 -44 46
q0 51 56 92.5t147 41.5q49 0 90 -26t54 -67q30 38 77.5 64.5t87.5 26.5q103 0 169.5 -61t66.5 -145q0 -32 -14.5 -46t-50.5 -14l-323 -2q13 -103 70.5 -168t150.5 -65q89 0 152 59zM624 507q-74 0 -120.5 -67.5t-43.5 -136.5l324 4q0 86 -46.5 143t-113.5 57zM250 23
q38 0 68 17t45 40.5t22.5 42t7.5 26.5v185q-19 -14 -96.5 -54.5t-120.5 -79t-43 -83.5q0 -46 33 -70t84 -24z" />
    <glyph glyph-name="ccedilla" unicode="&#xe7;" horiz-adv-x="587" 
d="M523 114l18 -20q-104 -100 -210 -100q-3 0 -10 0.5t-11 0.5l-15 -32q36 -3 64.5 -21t28.5 -51q0 -83 -186 -83l-2 12q142 7 142 67q0 22 -20.5 38t-61.5 18q0 24 26 55q-96 17 -161 94t-65 179q0 118 72 193.5t182 75.5q88 0 146.5 -52t58.5 -105q0 -44 -42 -44
q-10 0 -18 3.5t-11 7.5l-3 3q0 11 -7 34.5t-22 52.5t-44.5 50t-66.5 21q-56 0 -109.5 -59t-53.5 -154q0 -124 58.5 -192.5t155.5 -68.5q82 0 167 77z" />
    <glyph glyph-name="egrave" unicode="&#xe8;" horiz-adv-x="585" 
d="M507 99l13 -14q-72 -91 -190 -91q-107 0 -188.5 82t-81.5 195q0 117 74 193.5t165 76.5q95 0 159 -61.5t64 -144.5q0 -62 -52 -62l-339 -2q6 -60 30 -106.5t57 -72.5t66.5 -39t64.5 -13q95 0 158 59zM299 508q-75 0 -123.5 -68t-45.5 -137l326 4q0 85 -46 143t-111 58z
M393 590l-5 -2q-7 -4 -20 5l-152 99q-17 12 -10 25l14 27q8 13 22 2l150 -141q11 -9 1 -15z" />
    <glyph glyph-name="eacute" unicode="&#xe9;" horiz-adv-x="585" 
d="M507 99l13 -14q-72 -91 -190 -91q-107 0 -188.5 82t-81.5 195q0 117 74 193.5t165 76.5q95 0 159 -61.5t64 -144.5q0 -62 -52 -62l-339 -2q6 -60 30 -106.5t57 -72.5t66.5 -39t64.5 -13q95 0 158 59zM299 508q-75 0 -123.5 -68t-45.5 -137l326 4q0 85 -46 143t-111 58z
M224 588l-5 2q-10 6 1 15l150 145q14 11 22 -2l15 -28q7 -13 -10 -25l-153 -102q-13 -9 -20 -5z" />
    <glyph glyph-name="ecircumflex" unicode="&#xea;" horiz-adv-x="585" 
d="M507 99l13 -14q-72 -91 -190 -91q-107 0 -188.5 82t-81.5 195q0 117 74 193.5t165 76.5q95 0 159 -61.5t64 -144.5q0 -62 -52 -62l-339 -2q6 -60 30 -106.5t57 -72.5t66.5 -39t64.5 -13q95 0 158 59zM299 508q-75 0 -123.5 -68t-45.5 -137l326 4q0 85 -46 143t-111 58z
M163 605l132 141q4 4 11 4t11 -4l132 -140q9 -11 -4 -16l-5 -2q-3 -1 -7.5 1t-10.5 6.5t-8 5.5l-108 93l-109 -94q-18 -14 -28 -12l-3 1q-13 6 -3 16z" />
    <glyph glyph-name="edieresis" unicode="&#xeb;" horiz-adv-x="585" 
d="M507 99l13 -14q-72 -91 -190 -91q-107 0 -188.5 82t-81.5 195q0 117 74 193.5t165 76.5q95 0 159 -61.5t64 -144.5q0 -62 -52 -62l-339 -2q6 -60 30 -106.5t57 -72.5t66.5 -39t64.5 -13q95 0 158 59zM299 508q-75 0 -123.5 -68t-45.5 -137l326 4q0 85 -46 143t-111 58z
M212 609q-17 0 -28.5 11.5t-11.5 27.5q0 17 11.5 29t28.5 12q16 0 27.5 -12t11.5 -29q0 -16 -11.5 -27.5t-27.5 -11.5zM382 609q-16 0 -28 11.5t-12 28.5t12 28.5t28 11.5t28 -11.5t12 -28.5t-12 -28.5t-28 -11.5z" />
    <glyph glyph-name="igrave" unicode="&#xec;" horiz-adv-x="268" 
d="M171 103q0 -29 16.5 -60t39.5 -31v-12h-173v12q23 0 39.5 31t16.5 60v334q0 28 -12.5 49.5t-36.5 21.5v15l110 22v-442zM209 590l-5 -2q-7 -4 -20 5l-152 99q-17 12 -10 25l14 27q8 13 22 2l150 -141q11 -9 1 -15z" />
    <glyph glyph-name="iacute" unicode="&#xed;" horiz-adv-x="268" 
d="M171 103q0 -29 16.5 -60t39.5 -31v-12h-173v12q23 0 39.5 31t16.5 60v334q0 28 -12.5 49.5t-36.5 21.5v15l110 22v-442zM63 588l-5 2q-10 6 1 15l150 145q14 11 22 -2l15 -28q7 -13 -10 -25l-153 -102q-13 -9 -20 -5z" />
    <glyph glyph-name="icircumflex" unicode="&#xee;" horiz-adv-x="268" 
d="M167 103q0 -29 16.5 -60t39.5 -31v-12h-173v12q23 0 39.5 31t16.5 60v334q0 28 -12.5 49.5t-36.5 21.5v15l110 22v-442zM-14 605l132 141q4 4 11 4t11 -4l132 -140q9 -11 -4 -16l-5 -2q-3 -1 -7.5 1t-10.5 6.5t-8 5.5l-108 93l-109 -94q-18 -14 -28 -12l-3 1q-13 6 -3 16
z" />
    <glyph glyph-name="idieresis" unicode="&#xef;" horiz-adv-x="268" 
d="M47 609q-17 0 -28.5 11.5t-11.5 27.5q0 17 11.5 29t28.5 12q16 0 27.5 -12t11.5 -29q0 -16 -11.5 -27.5t-27.5 -11.5zM215 609q-17 0 -28.5 11.5t-11.5 28.5t11.5 28.5t28.5 11.5t28.5 -11.5t11.5 -28.5t-11.5 -28.5t-28.5 -11.5zM170 103q0 -29 16.5 -60t39.5 -31v-12
h-173v12q23 0 39.5 31t16.5 60v334q0 28 -12.5 49.5t-36.5 21.5v15l110 22v-442z" />
    <glyph glyph-name="eth" unicode="&#xf0;" horiz-adv-x="610" 
d="M348 612q189 -178 189 -381q0 -105 -70 -172.5t-173 -67.5q-100 0 -163.5 68t-63.5 167q0 98 68 166.5t169 68.5q60 0 92 -17q-12 26 -92 142l-95 -56l-9 12l95 58q-33 45 -109 115v19q71 -42 148 -109l102 63l11 -17zM285 24q68 0 120 59t52 138q0 54 -8.5 90.5
t-31.5 85.5q-39 32 -97 32q-60 0 -123 -66t-63 -143t47 -136.5t104 -59.5z" />
    <glyph glyph-name="ntilde" unicode="&#xf1;" horiz-adv-x="602" 
d="M508 353v-248q0 -37 14 -65t37 -28v-12h-167v12q24 0 37.5 28.5t13.5 64.5v248q0 137 -108 137q-53 0 -102.5 -33t-70.5 -62v-290q0 -32 14 -62.5t37 -30.5v-12h-167v12q24 0 37.5 29.5t13.5 63.5v334q0 29 -11 50t-35 21v12l101 13l10 -98q29 38 81.5 71.5t101.5 33.5
q163 0 163 -189zM154 618v14q61 52 116 52q37 0 84 -27.5t77 -27.5q20 0 53 30l9 -15q-47 -50 -95 -50q-29 0 -74 27.5t-88 27.5q-39 0 -82 -31z" />
    <glyph glyph-name="ograve" unicode="&#xf2;" horiz-adv-x="646" 
d="M323 544q115 0 190.5 -80t75.5 -196t-75.5 -196.5t-190.5 -80.5q-114 0 -189.5 80.5t-75.5 196.5t75.5 196t189.5 80zM337 18q72 0 125.5 75.5t44.5 179.5q-10 107 -64.5 172t-132.5 65q-76 0 -128.5 -71t-43.5 -176q8 -105 67 -175t132 -70zM427 590l-5 -2q-7 -4 -20 5
l-152 99q-17 12 -10 25l14 27q8 13 22 2l150 -141q11 -9 1 -15z" />
    <glyph glyph-name="oacute" unicode="&#xf3;" horiz-adv-x="646" 
d="M323 544q115 0 190.5 -80t75.5 -196t-75.5 -196.5t-190.5 -80.5q-114 0 -189.5 80.5t-75.5 196.5t75.5 196t189.5 80zM337 18q72 0 125.5 75.5t44.5 179.5q-10 107 -64.5 172t-132.5 65q-76 0 -128.5 -71t-43.5 -176q8 -105 67 -175t132 -70zM233 588l-5 2q-10 6 1 15
l150 145q14 11 22 -2l15 -28q7 -13 -10 -25l-153 -102q-13 -9 -20 -5z" />
    <glyph glyph-name="ocircumflex" unicode="&#xf4;" horiz-adv-x="646" 
d="M323 544q115 0 190.5 -80t75.5 -196t-75.5 -196.5t-190.5 -80.5q-114 0 -189.5 80.5t-75.5 196.5t75.5 196t189.5 80zM337 18q72 0 125.5 75.5t44.5 179.5q-10 107 -64.5 172t-132.5 65q-76 0 -128.5 -71t-43.5 -176q8 -105 67 -175t132 -70zM186 605l132 141q4 4 11 4
t11 -4l132 -140q9 -11 -4 -16l-5 -2q-3 -1 -7.5 1t-10.5 6.5t-8 5.5l-108 93l-109 -94q-18 -14 -28 -12l-3 1q-13 6 -3 16z" />
    <glyph glyph-name="otilde" unicode="&#xf5;" horiz-adv-x="646" 
d="M323 544q115 0 190.5 -80t75.5 -196t-75.5 -196.5t-190.5 -80.5q-114 0 -189.5 80.5t-75.5 196.5t75.5 196t189.5 80zM337 18q72 0 125.5 75.5t44.5 179.5q-10 107 -64.5 172t-132.5 65q-76 0 -128.5 -71t-43.5 -176q8 -105 67 -175t132 -70zM169 618v14q61 52 116 52
q37 0 84 -27.5t77 -27.5q20 0 53 30l9 -15q-47 -50 -95 -50q-29 0 -74 27.5t-88 27.5q-39 0 -82 -31z" />
    <glyph glyph-name="odieresis" unicode="&#xf6;" horiz-adv-x="646" 
d="M323 544q115 0 190.5 -80t75.5 -196t-75.5 -196.5t-190.5 -80.5q-114 0 -189.5 80.5t-75.5 196.5t75.5 196t189.5 80zM337 18q72 0 125.5 75.5t44.5 179.5q-10 107 -64.5 172t-132.5 65q-76 0 -128.5 -71t-43.5 -176q8 -105 67 -175t132 -70zM244 609q-17 0 -28.5 11.5
t-11.5 27.5q0 17 11.5 29t28.5 12q16 0 27.5 -12t11.5 -29q0 -16 -11.5 -27.5t-27.5 -11.5zM414 609q-16 0 -28 11.5t-12 28.5t12 28.5t28 11.5t28 -11.5t12 -28.5t-12 -28.5t-28 -11.5z" />
    <glyph glyph-name="divide" unicode="&#xf7;" horiz-adv-x="517" 
d="M256 77q-17 0 -29 12t-12 28q0 17 12 28.5t29 11.5q16 0 27.5 -11.5t11.5 -28.5q0 -16 -11.5 -28t-27.5 -12zM255 381q-17 0 -29 12t-12 28q0 17 12 28.5t29 11.5q16 0 27.5 -11.5t11.5 -28.5q0 -16 -11.5 -28t-27.5 -12zM84 290h342v-38h-342v38z" />
    <glyph glyph-name="oslash" unicode="&#xf8;" horiz-adv-x="646" 
d="M329 544q68 0 135 -39l41 60h29l-50 -74q105 -84 105 -223q0 -115 -75 -196t-185 -81q-87 0 -153 43l-36 -48h-26l43 62q-99 85 -99 220q0 117 76 196.5t195 79.5zM340 18q69 0 122.5 75.5t46.5 174.5q-8 105 -60 171l-239 -359q58 -62 130 -62zM135 268
q2 -38 18.5 -87.5t38.5 -77.5l240 355q-59 52 -125 52q-73 0 -126 -71.5t-46 -170.5z" />
    <glyph glyph-name="ugrave" unicode="&#xf9;" horiz-adv-x="575" 
d="M72 432q0 56 -8 66q-7 10 -23 10v12l96 15v-346q0 -88 34.5 -121.5t80.5 -33.5q39 0 85.5 32t69.5 64v302v10q0 25 -1 36t-8 20.5t-22 9.5v12l96 15v-437q0 -33 13.5 -59.5t37.5 -26.5v-12h-62q-20 0 -37 18t-17 41v15q-29 -26 -77 -52.5t-95 -26.5q-163 0 -163 194v243z
M341 590l-5 -2q-7 -4 -20 5l-152 99q-17 12 -10 25l14 27q8 13 22 2l150 -141q11 -9 1 -15z" />
    <glyph glyph-name="uacute" unicode="&#xfa;" horiz-adv-x="575" 
d="M72 432q0 56 -8 66q-7 10 -23 10v12l96 15v-346q0 -88 34.5 -121.5t80.5 -33.5q39 0 85.5 32t69.5 64v302v10q0 25 -1 36t-8 20.5t-22 9.5v12l96 15v-437q0 -33 13.5 -59.5t37.5 -26.5v-12h-62q-20 0 -37 18t-17 41v15q-29 -26 -77 -52.5t-95 -26.5q-163 0 -163 194v243z
M201 588l-5 2q-10 6 1 15l150 145q14 11 22 -2l15 -28q7 -13 -10 -25l-153 -102q-13 -9 -20 -5z" />
    <glyph glyph-name="ucircumflex" unicode="&#xfb;" horiz-adv-x="575" 
d="M72 432q0 56 -8 66q-7 10 -23 10v12l96 15v-346q0 -88 34.5 -121.5t80.5 -33.5q39 0 85.5 32t69.5 64v302v10q0 25 -1 36t-8 20.5t-22 9.5v12l96 15v-437q0 -33 13.5 -59.5t37.5 -26.5v-12h-62q-20 0 -37 18t-17 41v15q-29 -26 -77 -52.5t-95 -26.5q-163 0 -163 194v243z
M122 605l132 141q4 4 11 4t11 -4l132 -140q9 -11 -4 -16l-5 -2q-3 -1 -7.5 1t-10.5 6.5t-8 5.5l-108 93l-109 -94q-18 -14 -28 -12l-3 1q-13 6 -3 16z" />
    <glyph glyph-name="udieresis" unicode="&#xfc;" horiz-adv-x="575" 
d="M72 432q0 56 -8 66q-7 10 -23 10v12l96 15v-346q0 -88 34.5 -121.5t80.5 -33.5q39 0 85.5 32t69.5 64v302v10q0 25 -1 36t-8 20.5t-22 9.5v12l96 15v-437q0 -33 13.5 -59.5t37.5 -26.5v-12h-62q-20 0 -37 18t-17 41v15q-29 -26 -77 -52.5t-95 -26.5q-163 0 -163 194v243z
M181 609q-17 0 -28.5 11.5t-11.5 27.5q0 17 11.5 29t28.5 12q16 0 27.5 -12t11.5 -29q0 -16 -11.5 -27.5t-27.5 -11.5zM351 609q-17 0 -28.5 11.5t-11.5 28.5t11.5 28.5t28.5 11.5t28.5 -11.5t11.5 -28.5t-11.5 -28.5t-28.5 -11.5z" />
    <glyph glyph-name="yacute" unicode="&#xfd;" horiz-adv-x="599" 
d="M437 535h136v-12q-32 0 -62 -86l-193 -534q-17 -46 -53 -88t-87 -42q-59 0 -101 36t-42 84q0 31 17.5 52.5t39.5 21.5q24 0 24 -28q0 -6 -5.5 -24.5t-5.5 -29.5q0 -30 22 -52.5t61 -22.5q17 0 33 9.5t27.5 23t20 27.5t13.5 24l4 9l37 100l-207 424q-52 96 -90 96v12h190
v-12q-27 -1 -34.5 -33.5t7.5 -62.5l164 -347l112 337q14 34 8.5 69t-36.5 37v12zM259 588l-5 2q-10 6 1 15l150 145q14 11 22 -2l15 -28q7 -13 -10 -25l-153 -102q-13 -9 -20 -5z" />
    <glyph glyph-name="thorn" unicode="&#xfe;" horiz-adv-x="552" 
d="M493 300q0 -133 -97 -217.5t-234 -70.5v-131q0 -30 14 -62t37 -32v-14h-167v14q23 0 37 32t14 62v773q0 28 -13.5 51t-37.5 23v14l116 31v-237q25 0 49.5 0.5t31.5 0.5q116 0 183 -58t67 -179zM162 436v-397q36 -4 80 10.5t84.5 44t67.5 81.5t27 115q0 94 -42.5 151.5
t-98.5 57.5h-50q-40 0 -54 -16.5t-14 -46.5z" />
    <glyph glyph-name="ydieresis" unicode="&#xff;" horiz-adv-x="599" 
d="M437 535h136v-12q-32 0 -62 -86l-193 -534q-17 -46 -53 -88t-87 -42q-59 0 -101 36t-42 84q0 31 17.5 52.5t39.5 21.5q24 0 24 -28q0 -6 -5.5 -24.5t-5.5 -29.5q0 -30 22 -52.5t61 -22.5q17 0 33 9.5t27.5 23t20 27.5t13.5 24l4 9l37 100l-207 424q-52 96 -90 96v12h190
v-12q-27 -1 -34.5 -33.5t7.5 -62.5l164 -347l112 337q14 34 8.5 69t-36.5 37v12zM250 609q-17 0 -28.5 11.5t-11.5 27.5q0 17 11.5 29t28.5 12q16 0 27.5 -12t11.5 -29q0 -16 -11.5 -27.5t-27.5 -11.5zM420 609q-16 0 -28 11.5t-12 28.5t12 28.5t28 11.5t28 -11.5t12 -28.5
t-12 -28.5t-28 -11.5z" />
    <glyph glyph-name="Amacron" unicode="&#x100;" horiz-adv-x="655" 
d="M362 665l203 -574q27 -77 64 -77v-14h-178v14q24 0 37 17t6 44l-34 107h-303l-32 -96q-24 -72 38 -72v-14h-137v14q36 0 64 80l203 571q-3 10 -9 16.5t-10 6.5v12h44q6 0 11.5 -1t9 -2t6.5 -3.5t5 -4t4 -6t2.5 -5.5t3 -6.5t2.5 -6.5zM168 210h281l-130 386q-3 10 -10 10
t-10 -9zM172 805h290v-24h-290v24z" />
    <glyph glyph-name="amacron" unicode="&#x101;" horiz-adv-x="538" 
d="M459 98q0 -39 13 -62.5t38 -23.5v-12h-64q-23 0 -36.5 14.5t-16.5 33.5q-71 -61 -152 -61q-76 0 -127.5 33.5t-51.5 100.5q0 44 34 79.5t82.5 58.5t97.5 43t83 43.5t34 50.5v30q0 27 -27.5 54t-71.5 27q-36 0 -62 -15.5t-38 -39t-17.5 -42.5t-5.5 -34q-11 -10 -28 -10
q-18 0 -29.5 11.5t-11.5 33.5q0 48 57 90t136 42q164 0 164 -163v-282zM250 23q38 0 84 28.5t59 55.5v218q-23 -16 -73.5 -42t-88 -46t-68 -50.5t-30.5 -62.5q0 -52 32.5 -76.5t84.5 -24.5zM141 640h290v-24h-290v24z" />
    <glyph glyph-name="Abreve" unicode="&#x102;" horiz-adv-x="655" 
d="M362 665l203 -574q27 -77 64 -77v-14h-178v14q24 0 37 17t6 44l-34 107h-303l-32 -96q-24 -72 38 -72v-14h-137v14q36 0 64 80l203 571q-3 10 -9 16.5t-10 6.5v12h44q6 0 11.5 -1t9 -2t6.5 -3.5t5 -4t4 -6t2.5 -5.5t3 -6.5t2.5 -6.5zM168 210h281l-130 386q-3 10 -10 10
t-10 -9zM318 779q34 0 56.5 25.5t19.5 58.5h40q0 -45 -33 -75t-90 -30q-56 0 -89.5 30t-33.5 75h38q3 -33 31 -58.5t61 -25.5z" />
    <glyph glyph-name="abreve" unicode="&#x103;" horiz-adv-x="538" 
d="M459 98q0 -39 13 -62.5t38 -23.5v-12h-64q-23 0 -36.5 14.5t-16.5 33.5q-71 -61 -152 -61q-76 0 -127.5 33.5t-51.5 100.5q0 44 34 79.5t82.5 58.5t97.5 43t83 43.5t34 50.5v30q0 27 -27.5 54t-71.5 27q-36 0 -62 -15.5t-38 -39t-17.5 -42.5t-5.5 -34q-11 -10 -28 -10
q-18 0 -29.5 11.5t-11.5 33.5q0 48 57 90t136 42q164 0 164 -163v-282zM250 23q38 0 84 28.5t59 55.5v218q-23 -16 -73.5 -42t-88 -46t-68 -50.5t-30.5 -62.5q0 -52 32.5 -76.5t84.5 -24.5zM302 614q34 0 56.5 25.5t19.5 58.5h40q0 -45 -33 -75t-90 -30q-56 0 -89.5 30
t-33.5 75h38q3 -33 31 -58.5t61 -25.5z" />
    <glyph glyph-name="Aogonek" unicode="&#x104;" horiz-adv-x="655" 
d="M370 642l195 -551q25 -77 64 -77v-14h-121q-34 0 -75.5 -32.5t-41.5 -66.5q0 -47 38.5 -63t88.5 5l8 -12q-37 -28 -81 -28q-35 0 -63 21.5t-28 57.5q0 47 31 83t80 54q38 19 29 56q-23 66 -34 107h-303l-32 -96q-24 -72 38 -72v-14h-137v14q36 0 64 80l203 571
q-8 23 -26 23v12h31q53 0 72 -58zM168 210h281l-130 386q-3 10 -10 10t-10 -9z" />
    <glyph glyph-name="aogonek" unicode="&#x105;" horiz-adv-x="538" 
d="M459 98q0 -84 51 -84v-14h-22q-22 0 -60 -36.5t-38 -63.5q0 -47 39 -63t88 5l8 -12q-37 -28 -77 -28q-45 0 -70.5 24.5t-25.5 62.5q0 60 86 111q-20 3 -31 17t-14 31q-71 -61 -152 -61q-76 0 -127.5 33.5t-51.5 100.5q0 44 34 79.5t82.5 58.5t97.5 43t83 43.5t34 50.5v30
q0 27 -27.5 54t-71.5 27q-36 0 -62 -15.5t-38 -39t-17.5 -42.5t-5.5 -34q-11 -10 -28 -10q-18 0 -29.5 11.5t-11.5 33.5q0 48 57 90t136 42q164 0 164 -163v-282zM250 23q38 0 84 28.5t59 55.5v218q-23 -16 -73.5 -42t-88 -46t-68 -50.5t-30.5 -62.5q0 -52 32.5 -76.5
t84.5 -24.5z" />
    <glyph glyph-name="Cacute" unicode="&#x106;" horiz-adv-x="650" 
d="M388 678q-96 0 -172 -88.5t-76 -219.5q0 -71 18.5 -130t47.5 -96t64.5 -63t68.5 -36.5t61 -10.5q15 0 29 1.5t25.5 3t23.5 5.5t20 6.5t19.5 8.5t17 9t17 11t16 11.5t17 13t16.5 12.5l13 -11q-78 -110 -224 -115q-144 0 -237 109.5t-93 265.5q0 147 97 246.5t241 99.5
q98 0 152.5 -46.5t54.5 -101.5q0 -30 -13.5 -45.5t-33.5 -15.5q-10 0 -17.5 2t-10.5 4l-2 3q0 11 -1.5 26t-10 41.5t-22.5 47.5t-41.5 36.5t-64.5 15.5zM304 753l-5 2q-10 6 1 15l150 145q14 11 22 -2l15 -28q7 -13 -10 -25l-153 -102q-13 -9 -20 -5z" />
    <glyph glyph-name="cacute" unicode="&#x107;" horiz-adv-x="587" 
d="M523 114l18 -20q-104 -100 -210 -100q-111 0 -191 81.5t-80 195.5q0 118 72 193.5t182 75.5q88 0 146.5 -52t58.5 -105q0 -44 -42 -44q-10 0 -18 3.5t-11 7.5l-3 3q0 11 -7 34.5t-22 52.5t-44.5 50t-66.5 21q-56 0 -109.5 -59t-53.5 -154q0 -124 58.5 -192.5t155.5 -68.5
q82 0 167 77zM255 588l-5 2q-10 6 1 15l150 145q14 11 22 -2l15 -28q7 -13 -10 -25l-153 -102q-13 -9 -20 -5z" />
    <glyph glyph-name="Ccircumflex" unicode="&#x108;" horiz-adv-x="650" 
d="M388 678q-96 0 -172 -88.5t-76 -219.5q0 -71 18.5 -130t47.5 -96t64.5 -63t68.5 -36.5t61 -10.5q15 0 29 1.5t25.5 3t23.5 5.5t20 6.5t19.5 8.5t17 9t17 11t16 11.5t17 13t16.5 12.5l13 -11q-78 -110 -224 -115q-144 0 -237 109.5t-93 265.5q0 147 97 246.5t241 99.5
q98 0 152.5 -46.5t54.5 -101.5q0 -30 -13.5 -45.5t-33.5 -15.5q-10 0 -17.5 2t-10.5 4l-2 3q0 11 -1.5 26t-10 41.5t-22.5 47.5t-41.5 36.5t-64.5 15.5zM234 770l132 141q4 4 11 4t11 -4l132 -140q9 -11 -4 -16l-5 -2q-3 -1 -7.5 1t-10.5 6.5t-8 5.5l-108 93l-109 -94
q-18 -14 -28 -12l-3 1q-13 6 -3 16z" />
    <glyph glyph-name="ccircumflex" unicode="&#x109;" horiz-adv-x="587" 
d="M523 114l18 -20q-104 -100 -210 -100q-111 0 -191 81.5t-80 195.5q0 118 72 193.5t182 75.5q88 0 146.5 -52t58.5 -105q0 -44 -42 -44q-10 0 -18 3.5t-11 7.5l-3 3q0 11 -7 34.5t-22 52.5t-44.5 50t-66.5 21q-56 0 -109.5 -59t-53.5 -154q0 -124 58.5 -192.5t155.5 -68.5
q82 0 167 77zM171 605l132 141q4 4 11 4t11 -4l132 -140q9 -11 -4 -16l-5 -2q-3 -1 -7.5 1t-10.5 6.5t-8 5.5l-108 93l-109 -94q-18 -14 -28 -12l-3 1q-13 6 -3 16z" />
    <glyph glyph-name="Cdotaccent" unicode="&#x10a;" horiz-adv-x="650" 
d="M388 678q-96 0 -172 -88.5t-76 -219.5q0 -71 18.5 -130t47.5 -96t64.5 -63t68.5 -36.5t61 -10.5q15 0 29 1.5t25.5 3t23.5 5.5t20 6.5t19.5 8.5t17 9t17 11t16 11.5t17 13t16.5 12.5l13 -11q-78 -110 -224 -115q-144 0 -237 109.5t-93 265.5q0 147 97 246.5t241 99.5
q98 0 152.5 -46.5t54.5 -101.5q0 -30 -13.5 -45.5t-33.5 -15.5q-10 0 -17.5 2t-10.5 4l-2 3q0 11 -1.5 26t-10 41.5t-22.5 47.5t-41.5 36.5t-64.5 15.5zM385 769q-17 0 -29 12t-12 29t12 29.5t29 12.5t29 -12.5t12 -29.5t-12 -29t-29 -12z" />
    <glyph glyph-name="cdotaccent" unicode="&#x10b;" horiz-adv-x="587" 
d="M523 114l18 -20q-104 -100 -210 -100q-111 0 -191 81.5t-80 195.5q0 118 72 193.5t182 75.5q88 0 146.5 -52t58.5 -105q0 -44 -42 -44q-10 0 -18 3.5t-11 7.5l-3 3q0 11 -7 34.5t-22 52.5t-44.5 50t-66.5 21q-56 0 -109.5 -59t-53.5 -154q0 -124 58.5 -192.5t155.5 -68.5
q82 0 167 77zM310 604q-17 0 -29 12t-12 29t12 29.5t29 12.5t29 -12.5t12 -29.5t-12 -29t-29 -12z" />
    <glyph glyph-name="Ccaron" unicode="&#x10c;" horiz-adv-x="650" 
d="M388 678q-96 0 -172 -88.5t-76 -219.5q0 -71 18.5 -130t47.5 -96t64.5 -63t68.5 -36.5t61 -10.5q15 0 29 1.5t25.5 3t23.5 5.5t20 6.5t19.5 8.5t17 9t17 11t16 11.5t17 13t16.5 12.5l13 -11q-78 -110 -224 -115q-144 0 -237 109.5t-93 265.5q0 147 97 246.5t241 99.5
q98 0 152.5 -46.5t54.5 -101.5q0 -30 -13.5 -45.5t-33.5 -15.5q-10 0 -17.5 2t-10.5 4l-2 3q0 11 -1.5 26t-10 41.5t-22.5 47.5t-41.5 36.5t-64.5 15.5zM245 902q-10 10 3 16l3 1q10 2 28 -12l109 -94l108 93q2 1 8 5.5t10.5 6.5t7.5 1l5 -2q13 -5 4 -16l-132 -140
q-4 -4 -11 -4t-11 4z" />
    <glyph glyph-name="ccaron" unicode="&#x10d;" horiz-adv-x="587" 
d="M523 114l18 -20q-104 -100 -210 -100q-111 0 -191 81.5t-80 195.5q0 118 72 193.5t182 75.5q88 0 146.5 -52t58.5 -105q0 -44 -42 -44q-10 0 -18 3.5t-11 7.5l-3 3q0 11 -7 34.5t-22 52.5t-44.5 50t-66.5 21q-56 0 -109.5 -59t-53.5 -154q0 -124 58.5 -192.5t155.5 -68.5
q82 0 167 77zM174 737q-10 10 3 16l3 1q10 2 28 -12l109 -94l108 93q2 1 8 5.5t10.5 6.5t7.5 1l5 -2q13 -5 4 -16l-132 -140q-4 -4 -11 -4t-11 4z" />
    <glyph glyph-name="Dcaron" unicode="&#x10e;" horiz-adv-x="636" 
d="M43 700h243q131 0 210.5 -74.5t79.5 -173.5q0 -132 -75 -237.5t-189.5 -160t-239.5 -54.5h-29v14q24 0 36.5 15.5t12.5 39.5v533q0 28 -13.5 56t-35.5 28v14zM194 53q39 13 77 33t79.5 54.5t73 76.5t52 102.5t20.5 128.5q0 93 -57 154.5t-158 61.5h-71q-48 0 -48 -48
v-537q0 -38 32 -26zM141 902q-10 10 3 16l3 1q10 2 28 -12l109 -94l108 93q2 1 8 5.5t10.5 6.5t7.5 1l5 -2q13 -5 4 -16l-132 -140q-4 -4 -11 -4t-11 4z" />
    <glyph glyph-name="dcaron" unicode="&#x10f;" horiz-adv-x="782" 
d="M472 103q0 -38 18 -64.5t43 -26.5v-12h-63q-23 0 -43 13.5t-20 38.5q-14 -23 -48 -40.5t-65 -17.5q-114 0 -174 68.5t-60 174.5q0 84 49 154.5t118 107t137 36.5h43v104q0 26 -15.5 47.5t-39.5 21.5v12l120 30v-647zM297 42q40 0 71.5 19.5t38.5 41.5v397h-53
q-75 0 -147.5 -76t-72.5 -178q0 -53 13.5 -93t32.5 -60.5t44 -32.5t41.5 -15t31.5 -3zM638 703q51 0 51 -80q0 -48 -33 -96t-89 -54v14q31 4 59 35.5t16 77.5q-2 8 -23.5 22.5t-24.5 32.5q-3 19 9.5 33.5t34.5 14.5z" />
    <glyph glyph-name="Dcroat" unicode="&#x110;" horiz-adv-x="636" 
d="M56 365h36v232q0 29 -13.5 59t-35.5 30v14h268q129 0 197 -73t68 -175q0 -79 -31 -152t-82 -126.5t-115.5 -93.5t-133 -60t-132.5 -20h-39v14q23 0 36 17.5t13 42.5v250h-36v41zM194 52q46 16 93 44.5t96 75t80 119t31 157.5q0 93 -55 154.5t-153 61.5h-76q-48 0 -48 -48
v-231q0 -20 18 -20h161l-4 -41h-155q-20 0 -20 -17v-229q0 -36 32 -26z" />
    <glyph glyph-name="dcroat" unicode="&#x111;" horiz-adv-x="576" 
d="M472 108q0 -39 17.5 -67.5t43.5 -28.5v-12h-62q-23 0 -43.5 13t-20.5 38q-47 -57 -123 -57q-105 0 -164.5 69.5t-59.5 173.5q0 83 47 153t118 107.5t146 37.5h36v52h-82v26l82 1q0 40 -15 66t-40 26v14l120 30v-137h71l-5 -26h-66v-479zM293 42q43 0 74.5 19t39.5 42v397
h-53q-79 0 -149.5 -77.5t-70.5 -175.5q0 -104 47 -154.5t112 -50.5z" />
    <glyph glyph-name="Emacron" unicode="&#x112;" horiz-adv-x="558" 
d="M259 676q-55 0 -76 -29t-21 -91v-196q196 0 196 58h14v-136h-14q0 35 -52.5 46t-143.5 11v-208q0 -59 21.5 -83t75.5 -24q100 0 157 44t57 91h14v-137q0 -22 -21 -22h-423v14q23 0 36 27.5t13 56.5v503q0 29 -13 57t-36 28v14h423h9t6 -1t5 -4t1 -8v-147h-14
q0 50 -56.5 93t-157.5 43zM138 805h290v-24h-290v24z" />
    <glyph glyph-name="emacron" unicode="&#x113;" horiz-adv-x="585" 
d="M507 99l13 -14q-72 -91 -190 -91q-107 0 -188.5 82t-81.5 195q0 117 74 193.5t165 76.5q95 0 159 -61.5t64 -144.5q0 -62 -52 -62l-339 -2q6 -60 30 -106.5t57 -72.5t66.5 -39t64.5 -13q95 0 158 59zM299 508q-75 0 -123.5 -68t-45.5 -137l326 4q0 85 -46 143t-111 58z
M163 640h290v-24h-290v24z" />
    <glyph glyph-name="Ebreve" unicode="&#x114;" horiz-adv-x="558" 
d="M259 676q-55 0 -76 -29t-21 -91v-196q196 0 196 58h14v-136h-14q0 35 -52.5 46t-143.5 11v-208q0 -59 21.5 -83t75.5 -24q100 0 157 44t57 91h14v-137q0 -22 -21 -22h-423v14q23 0 36 27.5t13 56.5v503q0 29 -13 57t-36 28v14h423h9t6 -1t5 -4t1 -8v-147h-14
q0 50 -56.5 93t-157.5 43zM301 779q34 0 56.5 25.5t19.5 58.5h40q0 -45 -33 -75t-90 -30q-56 0 -89.5 30t-33.5 75h38q3 -33 31 -58.5t61 -25.5z" />
    <glyph glyph-name="ebreve" unicode="&#x115;" horiz-adv-x="585" 
d="M507 99l13 -14q-72 -91 -190 -91q-107 0 -188.5 82t-81.5 195q0 117 74 193.5t165 76.5q95 0 159 -61.5t64 -144.5q0 -62 -52 -62l-339 -2q6 -60 30 -106.5t57 -72.5t66.5 -39t64.5 -13q95 0 158 59zM299 508q-75 0 -123.5 -68t-45.5 -137l326 4q0 85 -46 143t-111 58z
M320 614q34 0 56.5 25.5t19.5 58.5h40q0 -45 -33 -75t-90 -30q-56 0 -89.5 30t-33.5 75h38q3 -33 31 -58.5t61 -25.5z" />
    <glyph glyph-name="Edotaccent" unicode="&#x116;" horiz-adv-x="558" 
d="M259 676q-55 0 -76 -29t-21 -91v-196q196 0 196 58h14v-136h-14q0 35 -52.5 46t-143.5 11v-208q0 -59 21.5 -83t75.5 -24q100 0 157 44t57 91h14v-137q0 -22 -21 -22h-423v14q23 0 36 27.5t13 56.5v503q0 29 -13 57t-36 28v14h423h9t6 -1t5 -4t1 -8v-147h-14
q0 50 -56.5 93t-157.5 43zM281 769q-17 0 -29 12t-12 29t12 29.5t29 12.5t29 -12.5t12 -29.5t-12 -29t-29 -12z" />
    <glyph glyph-name="edotaccent" unicode="&#x117;" horiz-adv-x="585" 
d="M507 99l13 -14q-72 -91 -190 -91q-107 0 -188.5 82t-81.5 195q0 117 74 193.5t165 76.5q95 0 159 -61.5t64 -144.5q0 -62 -52 -62l-339 -2q6 -60 30 -106.5t57 -72.5t66.5 -39t64.5 -13q95 0 158 59zM299 508q-75 0 -123.5 -68t-45.5 -137l326 4q0 85 -46 143t-111 58z
M299 604q-17 0 -29 12t-12 29t12 29.5t29 12.5t29 -12.5t12 -29.5t-12 -29t-29 -12z" />
    <glyph glyph-name="Eogonek" unicode="&#x118;" horiz-adv-x="558" 
d="M259 676q-55 0 -76 -29t-21 -91v-196q196 0 196 58h14v-136h-14q0 35 -52.5 46t-143.5 11v-208q0 -59 21.5 -83t75.5 -24q100 0 157 44t57 91h14v-137q0 -22 -21 -22h-31q-22 0 -55 -32.5t-33 -67.5q0 -47 38.5 -63t88.5 5l8 -12q-37 -28 -77 -28q-45 0 -70.5 24.5
t-25.5 62.5q0 59 85 111h-351v14q23 0 36 27.5t13 56.5v503q0 29 -13 57t-36 28v14h423h9t6 -1t5 -4t1 -8v-147h-14q0 50 -56.5 93t-157.5 43z" />
    <glyph glyph-name="eogonek" unicode="&#x119;" horiz-adv-x="585" 
d="M507 99l13 -14q-27 -36 -68 -60q-79 -64 -79 -109q0 -47 38.5 -63t88.5 5l8 -12q-37 -28 -77 -28q-45 0 -70.5 24.5t-25.5 62.5q0 52 66 98q-38 -9 -71 -9q-107 0 -188.5 82t-81.5 195q0 117 74 193.5t165 76.5q95 0 159 -61.5t64 -144.5q0 -62 -52 -62l-339 -2
q6 -60 30 -106.5t57 -72.5t66.5 -39t64.5 -13q95 0 158 59zM299 508q-75 0 -123.5 -68t-45.5 -137l326 4q0 85 -46 143t-111 58z" />
    <glyph glyph-name="Ecaron" unicode="&#x11a;" horiz-adv-x="558" 
d="M259 676q-55 0 -76 -29t-21 -91v-196q196 0 196 58h14v-136h-14q0 35 -52.5 46t-143.5 11v-208q0 -59 21.5 -83t75.5 -24q100 0 157 44t57 91h14v-137q0 -22 -21 -22h-423v14q23 0 36 27.5t13 56.5v503q0 29 -13 57t-36 28v14h423h9t6 -1t5 -4t1 -8v-147h-14
q0 50 -56.5 93t-157.5 43zM144 902q-10 10 3 16l3 1q10 2 28 -12l109 -94l108 93q2 1 8 5.5t10.5 6.5t7.5 1l5 -2q13 -5 4 -16l-132 -140q-4 -4 -11 -4t-11 4z" />
    <glyph glyph-name="ecaron" unicode="&#x11b;" horiz-adv-x="585" 
d="M507 99l13 -14q-72 -91 -190 -91q-107 0 -188.5 82t-81.5 195q0 117 74 193.5t165 76.5q95 0 159 -61.5t64 -144.5q0 -62 -52 -62l-339 -2q6 -60 30 -106.5t57 -72.5t66.5 -39t64.5 -13q95 0 158 59zM299 508q-75 0 -123.5 -68t-45.5 -137l326 4q0 85 -46 143t-111 58z
M164 737q-10 10 3 16l3 1q10 2 28 -12l109 -94l108 93q2 1 8 5.5t10.5 6.5t7.5 1l5 -2q13 -5 4 -16l-132 -140q-4 -4 -11 -4t-11 4z" />
    <glyph glyph-name="Gcircumflex" unicode="&#x11c;" horiz-adv-x="696" 
d="M236 770l132 141q4 4 11 4t11 -4l132 -140q9 -11 -4 -16l-5 -2q-3 -1 -7.5 1t-10.5 6.5t-8 5.5l-108 93l-109 -94q-18 -14 -28 -12l-3 1q-13 6 -3 16zM450 351h187v-14q-30 0 -30 -67v-222q-3 -1 -25.5 -12.5t-42 -19.5t-52.5 -16t-65 -8q-59 0 -123 30t-117 79t-87 119
t-34 144t22.5 134.5t58 99t81.5 65t90.5 37.5t88.5 11q93 0 144.5 -40.5t54.5 -87.5q2 -21 -11.5 -37.5t-35.5 -14.5q-6 1 -12.5 3.5t-9.5 5.5l-3 2q0 13 -5 32t-17 45t-40.5 44t-68.5 18t-82 -21t-79 -58.5t-61 -97.5t-24 -131q0 -76 30 -141.5t74 -105.5t89.5 -62.5
t81.5 -22.5q67 0 110 23v186q0 37 -29.5 62t-57.5 25v14z" />
    <glyph glyph-name="gcircumflex" unicode="&#x11d;" horiz-adv-x="617" 
d="M143 615l132 141q4 4 11 4t11 -4l132 -140q9 -11 -4 -16l-5 -2q-3 -1 -7.5 1t-10.5 6.5t-8 5.5l-108 93l-109 -94q-18 -14 -28 -12l-3 1q-13 6 -3 16zM505 599q26 0 46 -16t20 -39q0 -18 -8.5 -29t-17.5 -11q-5 0 -21.5 25.5t-35.5 25.5q-13 0 -32.5 -16.5t-34.5 -40.5
q42 -30 69.5 -74t27.5 -93q0 -85 -64 -143.5t-157 -58.5q-23 0 -57.5 9.5t-54.5 21.5q-52 -43 -22 -74q34 -36 167 -36q47 0 80 -3.5t67 -15t52 -36.5t18 -64q0 -62 -75.5 -109.5t-161.5 -47.5q-41 0 -79 5.5t-75 17t-59.5 34.5t-22.5 54q0 28 18.5 43t37.5 16l18 2
q-21 -55 26 -97t138 -42q67 0 111 31.5t44 82.5q0 24 -13 41t-29.5 25t-45.5 12.5t-45.5 5t-45.5 0.5q-207 0 -207 77q0 47 66 104q-69 61 -69 145q0 86 64 144t155 58q51 0 100 -22q54 88 108 88zM308 163q59 0 100.5 45t36.5 124q-6 79 -53.5 124t-106.5 45
q-51 0 -93 -45.5t-36 -123.5q6 -79 50 -124t102 -45z" />
    <glyph glyph-name="Gbreve" unicode="&#x11e;" horiz-adv-x="696" 
d="M404 779q34 0 56.5 25.5t19.5 58.5h40q0 -45 -33 -75t-90 -30q-56 0 -89.5 30t-33.5 75h38q3 -33 31 -58.5t61 -25.5zM450 351h187v-14q-30 0 -30 -67v-222q-3 -1 -25.5 -12.5t-42 -19.5t-52.5 -16t-65 -8q-59 0 -123 30t-117 79t-87 119t-34 144t22.5 134.5t58 99
t81.5 65t90.5 37.5t88.5 11q93 0 144.5 -40.5t54.5 -87.5q2 -21 -11.5 -37.5t-35.5 -14.5q-6 1 -12.5 3.5t-9.5 5.5l-3 2q0 13 -5 32t-17 45t-40.5 44t-68.5 18t-82 -21t-79 -58.5t-61 -97.5t-24 -131q0 -76 30 -141.5t74 -105.5t89.5 -62.5t81.5 -22.5q67 0 110 23v186
q0 37 -29.5 62t-57.5 25v14z" />
    <glyph glyph-name="gbreve" unicode="&#x11f;" horiz-adv-x="617" 
d="M302 614q34 0 56.5 25.5t19.5 58.5h40q0 -45 -33 -75t-90 -30q-56 0 -89.5 30t-33.5 75h38q3 -33 31 -58.5t61 -25.5zM505 599q26 0 46 -16t20 -39q0 -18 -8.5 -29t-17.5 -11q-5 0 -21.5 25.5t-35.5 25.5q-13 0 -32.5 -16.5t-34.5 -40.5q42 -30 69.5 -74t27.5 -93
q0 -85 -64 -143.5t-157 -58.5q-23 0 -57.5 9.5t-54.5 21.5q-52 -43 -22 -74q34 -36 167 -36q47 0 80 -3.5t67 -15t52 -36.5t18 -64q0 -62 -75.5 -109.5t-161.5 -47.5q-41 0 -79 5.5t-75 17t-59.5 34.5t-22.5 54q0 28 18.5 43t37.5 16l18 2q-21 -55 26 -97t138 -42
q67 0 111 31.5t44 82.5q0 24 -13 41t-29.5 25t-45.5 12.5t-45.5 5t-45.5 0.5q-207 0 -207 77q0 47 66 104q-69 61 -69 145q0 86 64 144t155 58q51 0 100 -22q54 88 108 88zM308 163q59 0 100.5 45t36.5 124q-6 79 -53.5 124t-106.5 45q-51 0 -93 -45.5t-36 -123.5
q6 -79 50 -124t102 -45z" />
    <glyph glyph-name="Gdotaccent" unicode="&#x120;" horiz-adv-x="696" 
d="M398 769q-17 0 -29 12t-12 29t12 29.5t29 12.5t29 -12.5t12 -29.5t-12 -29t-29 -12zM450 351h187v-14q-30 0 -30 -67v-222q-3 -1 -25.5 -12.5t-42 -19.5t-52.5 -16t-65 -8q-59 0 -123 30t-117 79t-87 119t-34 144t22.5 134.5t58 99t81.5 65t90.5 37.5t88.5 11
q93 0 144.5 -40.5t54.5 -87.5q2 -21 -11.5 -37.5t-35.5 -14.5q-6 1 -12.5 3.5t-9.5 5.5l-3 2q0 13 -5 32t-17 45t-40.5 44t-68.5 18t-82 -21t-79 -58.5t-61 -97.5t-24 -131q0 -76 30 -141.5t74 -105.5t89.5 -62.5t81.5 -22.5q67 0 110 23v186q0 37 -29.5 62t-57.5 25v14z
" />
    <glyph glyph-name="gdotaccent" unicode="&#x121;" horiz-adv-x="617" 
d="M295 604q-17 0 -29 12t-12 29t12 29.5t29 12.5t29 -12.5t12 -29.5t-12 -29t-29 -12zM505 599q26 0 46 -16t20 -39q0 -18 -8.5 -29t-17.5 -11q-5 0 -21.5 25.5t-35.5 25.5q-13 0 -32.5 -16.5t-34.5 -40.5q42 -30 69.5 -74t27.5 -93q0 -85 -64 -143.5t-157 -58.5
q-23 0 -57.5 9.5t-54.5 21.5q-52 -43 -22 -74q34 -36 167 -36q47 0 80 -3.5t67 -15t52 -36.5t18 -64q0 -62 -75.5 -109.5t-161.5 -47.5q-41 0 -79 5.5t-75 17t-59.5 34.5t-22.5 54q0 28 18.5 43t37.5 16l18 2q-21 -55 26 -97t138 -42q67 0 111 31.5t44 82.5q0 24 -13 41
t-29.5 25t-45.5 12.5t-45.5 5t-45.5 0.5q-207 0 -207 77q0 47 66 104q-69 61 -69 145q0 86 64 144t155 58q51 0 100 -22q54 88 108 88zM308 163q59 0 100.5 45t36.5 124q-6 79 -53.5 124t-106.5 45q-51 0 -93 -45.5t-36 -123.5q6 -79 50 -124t102 -45z" />
    <glyph glyph-name="uni0122" unicode="&#x122;" horiz-adv-x="696" 
d="M433 -38q35 -2 57 -19.5t22 -51.5q0 -83 -186 -83l-2 12q142 7 142 67q0 22 -20.5 38t-61.5 18v12q21 7 49 7zM450 351h187v-14q-30 0 -30 -67v-222q-3 -1 -25.5 -12.5t-42 -19.5t-52.5 -16t-65 -8q-59 0 -123 30t-117 79t-87 119t-34 144t22.5 134.5t58 99t81.5 65
t90.5 37.5t88.5 11q93 0 144.5 -40.5t54.5 -87.5q2 -21 -11.5 -37.5t-35.5 -14.5q-6 1 -12.5 3.5t-9.5 5.5l-3 2q0 13 -5 32t-17 45t-40.5 44t-68.5 18t-82 -21t-79 -58.5t-61 -97.5t-24 -131q0 -76 30 -141.5t74 -105.5t89.5 -62.5t81.5 -22.5q67 0 110 23v186
q0 37 -29.5 62t-57.5 25v14z" />
    <glyph glyph-name="uni0123" unicode="&#x123;" horiz-adv-x="623" 
d="M312 612q-35 2 -57 19.5t-22 51.5q0 83 186 83l2 -12q-142 -7 -142 -67q0 -22 20.5 -38t61.5 -18v-12q-21 -7 -49 -7zM511 599q26 0 46 -16t20 -39q0 -18 -8.5 -29t-17.5 -11q-5 0 -21.5 25.5t-35.5 25.5q-13 0 -32.5 -16.5t-34.5 -40.5q42 -30 69.5 -74t27.5 -93
q0 -85 -64 -143.5t-157 -58.5q-23 0 -57.5 9.5t-54.5 21.5q-52 -43 -22 -74q34 -36 167 -36q47 0 80 -3.5t67 -15t52 -36.5t18 -64q0 -62 -75.5 -109.5t-161.5 -47.5q-41 0 -79 5.5t-75 17t-59.5 34.5t-22.5 54q0 28 18.5 43t37.5 16l18 2q-21 -55 26 -97t138 -42
q67 0 111 31.5t44 82.5q0 24 -13 41t-29.5 25t-45.5 12.5t-45.5 5t-45.5 0.5q-207 0 -207 77q0 47 66 104q-69 61 -69 145q0 86 64 144t155 58q51 0 100 -22q54 88 108 88zM314 163q59 0 100.5 45t36.5 124q-6 79 -53.5 124t-106.5 45q-51 0 -93 -45.5t-36 -123.5
q6 -79 50 -124t102 -45z" />
    <glyph glyph-name="Hcircumflex" unicode="&#x124;" horiz-adv-x="695" 
d="M635 686q-22 0 -35 -30.5t-13 -59.5v-493q0 -29 13 -59t35 -30v-14h-167v14q22 0 35 30t13 59v220h-337v-220q0 -29 13.5 -59t34.5 -30v-14h-167v14q22 0 35.5 30t13.5 59v493q0 29 -13.5 59.5t-35.5 30.5v14h167v-14q-21 0 -34.5 -30.5t-13.5 -59.5v-239h337v239
q0 29 -13 59.5t-35 30.5v14h167v-14zM201 770l132 141q4 4 11 4t11 -4l132 -140q9 -11 -4 -16l-5 -2q-3 -1 -7.5 1t-10.5 6.5t-8 5.5l-108 93l-109 -94q-18 -14 -28 -12l-3 1q-13 6 -3 16z" />
    <glyph glyph-name="hcircumflex" unicode="&#x125;" horiz-adv-x="596" 
d="M1 820l132 141q4 4 11 4t11 -4l132 -140q9 -11 -4 -16l-5 -2q-3 -1 -7.5 1t-10.5 6.5t-8 5.5l-108 93l-109 -94q-18 -14 -28 -12l-3 1q-13 6 -3 16zM502 353v-250q0 -36 14 -63.5t37 -27.5v-12h-166v12q24 0 37.5 29t13.5 62v250q0 137 -98 137q-54 0 -101.5 -31.5
t-71.5 -63.5v-292q0 -38 13.5 -64.5t37.5 -26.5v-12h-167v12q24 0 37.5 26.5t13.5 64.5v557q0 28 -13.5 50t-37.5 22v12l116 29v-335q104 104 188 104q77 0 112 -42t35 -147z" />
    <glyph glyph-name="Hbar" unicode="&#x126;" horiz-adv-x="695" 
d="M635 700v-14q-22 0 -35 -30.5t-13 -59.5v-69h44l-6 -25h-38v-399q0 -29 13 -59t35 -30v-14h-167v14q22 0 35 30t13 59v220h-337v-220q0 -29 13.5 -59t34.5 -30v-14h-167v14q22 0 35.5 30t13.5 59v399h-49v25h49v69q0 29 -13.5 59.5t-35.5 30.5v14h167v-14
q-21 0 -34.5 -30.5t-13.5 -59.5v-69h337v69q0 29 -13 59.5t-35 30.5v14h167zM179 357h337v145h-337v-145z" />
    <glyph glyph-name="hbar" unicode="&#x127;" horiz-adv-x="596" 
d="M507 108q0 -32 12 -64t34 -32v-12h-161v12q24 0 37.5 30t13.5 66v245q0 73 -27 105t-68 32q-57 0 -103 -31t-73 -64v-287q0 -36 13.5 -66t37.5 -30v-12h-167v12q24 0 37.5 30t13.5 66v496h-61v25h61v27q0 29 -13.5 52.5t-37.5 23.5v12l116 29v-144h126l-5 -25h-121v-166
q101 104 191 104q76 0 110 -42.5t34 -146.5v-245z" />
    <glyph glyph-name="Itilde" unicode="&#x128;" horiz-adv-x="282" 
d="M222 700v-14q-23 0 -36 -27t-13 -63v-493q0 -29 13.5 -59t35.5 -30v-14h-164v14q22 0 35.5 30t13.5 59v493q0 29 -13.5 59.5t-35.5 30.5v14h164zM-26 783v14q61 52 116 52q37 0 84 -27.5t77 -27.5q20 0 53 30l9 -15q-47 -50 -95 -50q-29 0 -74 27.5t-88 27.5
q-39 0 -82 -31z" />
    <glyph glyph-name="itilde" unicode="&#x129;" horiz-adv-x="268" 
d="M167 103q0 -29 16.5 -60t39.5 -31v-12h-173v12q23 0 39.5 31t16.5 60v334q0 28 -12.5 49.5t-36.5 21.5v15l110 22v-442zM-29 618v14q61 52 116 52q37 0 84 -27.5t77 -27.5q20 0 53 30l9 -15q-47 -50 -95 -50q-29 0 -74 27.5t-88 27.5q-39 0 -82 -31z" />
    <glyph glyph-name="Imacron" unicode="&#x12a;" horiz-adv-x="282" 
d="M222 700v-14q-23 0 -36 -27t-13 -63v-493q0 -29 13.5 -59t35.5 -30v-14h-164v14q22 0 35.5 30t13.5 59v493q0 29 -13.5 59.5t-35.5 30.5v14h164zM-4 805h290v-24h-290v24z" />
    <glyph glyph-name="imacron" unicode="&#x12b;" horiz-adv-x="268" 
d="M168 103q0 -29 16.5 -60t39.5 -31v-12h-173v12q23 0 39.5 31t16.5 60v334q0 28 -12.5 49.5t-36.5 21.5v15l110 22v-442zM-15 640h290v-24h-290v24z" />
    <glyph glyph-name="Ibreve" unicode="&#x12c;" horiz-adv-x="282" 
d="M224 700v-14q-23 0 -36 -27t-13 -63v-493q0 -29 13.5 -59t35.5 -30v-14h-164v14q22 0 35.5 30t13.5 59v493q0 29 -13.5 59.5t-35.5 30.5v14h164zM148 779q34 0 56.5 25.5t19.5 58.5h40q0 -45 -33 -75t-90 -30q-56 0 -89.5 30t-33.5 75h38q3 -33 31 -58.5t61 -25.5z" />
    <glyph glyph-name="ibreve" unicode="&#x12d;" horiz-adv-x="268" 
d="M171 103q0 -29 16.5 -60t39.5 -31v-12h-173v12q23 0 39.5 31t16.5 60v334q0 28 -12.5 49.5t-36.5 21.5v15l110 22v-442zM133 614q34 0 56.5 25.5t19.5 58.5h40q0 -45 -33 -75t-90 -30q-56 0 -89.5 30t-33.5 75h38q3 -33 31 -58.5t61 -25.5z" />
    <glyph glyph-name="Iogonek" unicode="&#x12e;" horiz-adv-x="282" 
d="M227 700v-14q-23 0 -36 -27t-13 -63v-493q0 -29 13.5 -59t35.5 -30v-14h-74q-68 -56 -68 -100q0 -47 38.5 -63t88.5 5l8 -12q-37 -28 -77 -28q-45 0 -70.5 24.5t-25.5 62.5q0 59 85 111h-69v14q22 0 35.5 30t13.5 59v493q0 29 -13.5 59.5t-35.5 30.5v14h164z" />
    <glyph glyph-name="iogonek" unicode="&#x12f;" horiz-adv-x="268" 
d="M171 103q0 -29 16.5 -60t39.5 -31v-12h-33q-35 0 -71.5 -35.5t-36.5 -64.5q0 -47 39 -63t88 5l8 -12q-37 -28 -77 -28q-45 0 -70.5 24.5t-25.5 62.5q0 59 85 111h-79v12q23 0 39.5 31t16.5 60v334q0 29 -12.5 52t-36.5 23v12l110 21v-442zM129 620q-18 0 -30.5 13.5
t-12.5 31.5q0 17 12.5 30t30.5 13q19 0 31.5 -13t12.5 -30q0 -18 -13 -31.5t-31 -13.5z" />
    <glyph glyph-name="Idotaccent" unicode="&#x130;" horiz-adv-x="282" 
d="M223 700v-14q-23 0 -36 -27t-13 -63v-493q0 -29 13.5 -59t35.5 -30v-14h-164v14q22 0 35.5 30t13.5 59v493q0 29 -13.5 59.5t-35.5 30.5v14h164zM139 769q-17 0 -29 12t-12 29t12 29.5t29 12.5t29 -12.5t12 -29.5t-12 -29t-29 -12z" />
    <glyph glyph-name="dotlessi" unicode="&#x131;" horiz-adv-x="268" 
d="M171 103q0 -29 16.5 -60t39.5 -31v-12h-173v12q23 0 39.5 31t16.5 60v334q0 28 -12.5 49.5t-36.5 21.5v15l110 22v-442z" />
    <glyph glyph-name="Jcircumflex" unicode="&#x134;" horiz-adv-x="278" 
d="M68 700h166v-14q-23 0 -36 -28.5t-13 -61.5v-459q0 -121 -36.5 -207t-113.5 -104l-4 7q37 33 61.5 99.5t24.5 142.5v521q0 33 -13.5 61.5t-35.5 28.5v14zM10 770l132 141q4 4 11 4t11 -4l132 -140q9 -11 -4 -16l-5 -2q-3 -1 -7.5 1t-10.5 6.5t-8 5.5l-108 93l-109 -94
q-18 -14 -28 -12l-3 1q-13 6 -3 16z" />
    <glyph glyph-name="jcircumflex" unicode="&#x135;" horiz-adv-x="252" 
d="M179 545v-505q0 -50 -6 -93t-21 -84.5t-44 -65.5t-70 -24q-49 0 -90.5 27.5t-41.5 69.5q0 22 12 36t32 14q9 0 15.5 -5t8.5 -10l3 -5q-2 -19 0.5 -38.5t17.5 -39t43 -19.5q75 0 75 197v419q0 28 -18.5 59.5t-42.5 31.5v12zM-13 605l132 141q4 4 11 4t11 -4l132 -140
q9 -11 -4 -16l-5 -2q-3 -1 -7.5 1t-10.5 6.5t-8 5.5l-108 93l-109 -94q-18 -14 -28 -12l-3 1q-13 6 -3 16z" />
    <glyph glyph-name="uni0136" unicode="&#x136;" horiz-adv-x="656" 
d="M426 596l-167 -187q9 -15 34 -52.5t73 -100t96 -116t103 -93.5t95 -40v-14h-42q-29 0 -52.5 3t-46.5 13t-39.5 18t-39 30t-36.5 36.5t-41 50t-42.5 58t-51 72.5t-58.5 82l-33 -31v-222q0 -29 13.5 -59t34.5 -30v-14h-167v14q22 0 35.5 30t13.5 59v493q0 29 -13.5 59.5
t-35.5 30.5v14h167v-14q-21 0 -34.5 -30.5t-13.5 -59.5v-236l192 236q67 78 38 89q-4 1 -9 1v14h151v-14q-30 0 -52.5 -17t-71.5 -73zM349 -38q35 -2 57 -19.5t22 -51.5q0 -83 -186 -83l-2 12q142 7 142 67q0 22 -20.5 38t-61.5 18v12q21 7 49 7z" />
    <glyph glyph-name="uni0137" unicode="&#x137;" horiz-adv-x="559" 
d="M453 118q17 -59 34 -82.5t46 -23.5v-12h-168v12q38 0 24 70q-15 79 -69 150q-51 67 -100 67l-53 -57v-139q0 -30 14 -60.5t37 -30.5v-12h-167v12q23 0 37 30.5t14 60.5v556q0 28 -13.5 50.5t-37.5 22.5v12l116 29v-481l122 135q57 63 48 89q-2 10 -16 10v9h156v-9
q-13 0 -23.5 -2t-23 -9.5t-21.5 -14.5t-27.5 -25.5t-32.5 -33.5t-44.5 -48t-56.5 -60q67 -12 121.5 -64.5t83.5 -150.5zM290 -38q35 -2 57 -19.5t22 -51.5q0 -83 -186 -83l-2 12q142 7 142 67q0 22 -20.5 38t-61.5 18v12q21 7 49 7z" />
    <glyph glyph-name="kgreenlandic" unicode="&#x138;" horiz-adv-x="559" 
d="M451 123q17 -59 35 -85t47 -26v-12h-164v12q33 0 19 68q-15 82 -68 153q-51 65 -101 66l-52 -57v-134q0 -31 14 -63.5t37 -32.5v-12h-167v12q23 0 37 32.5t14 63.5v319q0 29 -13.5 54.5t-37.5 25.5v14l116 14v-243l122 135q61 68 47 89q-4 6 -15 6v13h156v-13
q-27 0 -74.5 -38.5t-154.5 -150.5q151 -34 203 -210z" />
    <glyph glyph-name="Lacute" unicode="&#x139;" horiz-adv-x="563" 
d="M486 149h17v-149h-444v14q22 0 35.5 30t13.5 59v493q0 29 -13.5 59t-35.5 30v15h167v-15q-21 0 -34.5 -30t-13.5 -59v-473q0 -49 29.5 -73t97.5 -24q37 0 66.5 5t48.5 11.5t32 18t19.5 21t10 24t4 22t0.5 21.5zM114 753l-5 2q-10 6 1 15l150 145q14 11 22 -2l15 -28
q7 -13 -10 -25l-153 -102q-13 -9 -20 -5z" />
    <glyph glyph-name="lacute" unicode="&#x13a;" horiz-adv-x="265" 
d="M168 773v-670q0 -37 15.5 -64t40.5 -27v-12h-177v12q24 0 40 28.5t16 62.5v556q0 27 -16 49t-40 22v12zM49 790l-5 2q-10 6 1 15l150 145q14 11 22 -2l15 -28q7 -13 -10 -25l-153 -102q-13 -9 -20 -5z" />
    <glyph glyph-name="uni013B" unicode="&#x13b;" horiz-adv-x="563" 
d="M486 149h17v-149h-444v14q22 0 35.5 30t13.5 59v493q0 29 -13.5 59t-35.5 30v15h167v-15q-21 0 -34.5 -30t-13.5 -59v-473q0 -49 29.5 -73t97.5 -24q37 0 66.5 5t48.5 11.5t32 18t19.5 21t10 24t4 22t0.5 21.5zM299 -38q35 -2 57 -19.5t22 -51.5q0 -83 -186 -83l-2 12
q142 7 142 67q0 22 -20.5 38t-61.5 18v12q21 7 49 7z" />
    <glyph glyph-name="uni013C" unicode="&#x13c;" horiz-adv-x="265" 
d="M168 773v-670q0 -37 15.5 -64t40.5 -27v-12h-177v12q24 0 40 28.5t16 62.5v556q0 27 -16 49t-40 22v12zM145 -38q35 -2 57 -19.5t22 -51.5q0 -83 -186 -83l-2 12q142 7 142 67q0 22 -20.5 38t-61.5 18v12q21 7 49 7z" />
    <glyph glyph-name="Lcaron" unicode="&#x13d;" horiz-adv-x="578" 
d="M486 149h17v-149h-444v14q22 0 35.5 30t13.5 59v493q0 29 -13.5 59t-35.5 30v15h167v-15q-21 0 -34.5 -30t-13.5 -59v-473q0 -49 29.5 -73t97.5 -24q37 0 66.5 5t48.5 11.5t32 18t19.5 21t10 24t4 22t0.5 21.5zM454 777q51 0 51 -80q0 -48 -33 -96t-89 -54v14
q31 4 59 35.5t16 77.5q-2 8 -23.5 22.5t-24.5 32.5q-3 19 9.5 33.5t34.5 14.5z" />
    <glyph glyph-name="lcaron" unicode="&#x13e;" horiz-adv-x="485" 
d="M169 773v-670q0 -37 15.5 -64t40.5 -27v-12h-177v12q24 0 40 28.5t16 62.5v556q0 27 -16 49t-40 22v12zM341 759q51 0 51 -80q0 -48 -33 -96t-89 -54v14q31 4 59 35.5t16 77.5q-2 8 -23.5 22.5t-24.5 32.5q-3 19 9.5 33.5t34.5 14.5z" />
    <glyph glyph-name="Lslash" unicode="&#x141;" horiz-adv-x="563" 
d="M486 149h17v-149h-444v14q22 0 35.5 30t13.5 59v152l-48 -40l-11 15l59 51v315q0 29 -13.5 59.5t-35.5 30.5v14h167v-14q-22 0 -35 -27.5t-13 -62.5v-255l76 67l14 -19l-90 -77v-171q0 -61 25 -88t92 -27q40 0 71 5t51 11.5t34 18t20.5 20.5t10 24t4 22.5t0.5 21.5z" />
    <glyph glyph-name="lslash" unicode="&#x142;" horiz-adv-x="265" 
d="M170 773v-413l61 50l15 -20l-76 -66v-216q0 -30 14 -62t37 -32v-14h-167v14q23 0 37 33.5t14 64.5v163l-64 -53l-15 17l79 67v349q0 28 -13.5 51t-37.5 23v14z" />
    <glyph glyph-name="Nacute" unicode="&#x143;" horiz-adv-x="690" 
d="M506 700h128v-14q-22 0 -35.5 -30.5t-13.5 -59.5l-5 -596h-20q-68 69 -116 143q-50 77 -166 236.5t-150 211.5l2 -488q0 -29 13 -59t35 -30v-14h-129v14q22 0 35.5 30t13.5 59l4 523q-2 3 -10.5 22.5t-18 28.5t-25.5 9v14h89q13 0 21 -11l402 -576l-6 483
q0 29 -13.5 59.5t-34.5 30.5v14zM305 753l-5 2q-10 6 1 15l150 145q14 11 22 -2l15 -28q7 -13 -10 -25l-153 -102q-13 -9 -20 -5z" />
    <glyph glyph-name="nacute" unicode="&#x144;" horiz-adv-x="602" 
d="M508 353v-248q0 -37 14 -65t37 -28v-12h-167v12q24 0 37.5 28.5t13.5 64.5v248q0 137 -108 137q-53 0 -102.5 -33t-70.5 -62v-290q0 -32 14 -62.5t37 -30.5v-12h-167v12q24 0 37.5 29.5t13.5 63.5v334q0 29 -11 50t-35 21v12l101 13l10 -98q29 38 81.5 71.5t101.5 33.5
q163 0 163 -189zM243 588l-5 2q-10 6 1 15l150 145q14 11 22 -2l15 -28q7 -13 -10 -25l-153 -102q-13 -9 -20 -5z" />
    <glyph glyph-name="uni0145" unicode="&#x145;" horiz-adv-x="690" 
d="M506 700h128v-14q-22 0 -35.5 -30.5t-13.5 -59.5l-5 -596h-20q-68 69 -116 143q-50 77 -166 236.5t-150 211.5l2 -488q0 -29 13 -59t35 -30v-14h-129v14q22 0 35.5 30t13.5 59l4 523q-2 3 -10.5 22.5t-18 28.5t-25.5 9v14h89q13 0 21 -11l402 -576l-6 483
q0 29 -13.5 59.5t-34.5 30.5v14zM339 -38q35 -2 57 -19.5t22 -51.5q0 -83 -186 -83l-2 12q142 7 142 67q0 22 -20.5 38t-61.5 18v12q21 7 49 7z" />
    <glyph glyph-name="uni0146" unicode="&#x146;" horiz-adv-x="602" 
d="M508 353v-248q0 -37 14 -65t37 -28v-12h-167v12q24 0 37.5 28.5t13.5 64.5v248q0 137 -108 137q-53 0 -102.5 -33t-70.5 -62v-290q0 -32 14 -62.5t37 -30.5v-12h-167v12q24 0 37.5 29.5t13.5 63.5v334q0 29 -11 50t-35 21v12l101 13l10 -98q29 38 81.5 71.5t101.5 33.5
q163 0 163 -189zM309 -38q35 -2 57 -19.5t22 -51.5q0 -83 -186 -83l-2 12q142 7 142 67q0 22 -20.5 38t-61.5 18v12q21 7 49 7z" />
    <glyph glyph-name="Ncaron" unicode="&#x147;" horiz-adv-x="690" 
d="M506 700h128v-14q-22 0 -35.5 -30.5t-13.5 -59.5l-5 -596h-20q-68 69 -116 143q-50 77 -166 236.5t-150 211.5l2 -488q0 -29 13 -59t35 -30v-14h-129v14q22 0 35.5 30t13.5 59l4 523q-2 3 -10.5 22.5t-18 28.5t-25.5 9v14h89q13 0 21 -11l402 -576l-6 483
q0 29 -13.5 59.5t-34.5 30.5v14zM212 902q-10 10 3 16l3 1q10 2 28 -12l109 -94l108 93q2 1 8 5.5t10.5 6.5t7.5 1l5 -2q13 -5 4 -16l-132 -140q-4 -4 -11 -4t-11 4z" />
    <glyph glyph-name="ncaron" unicode="&#x148;" horiz-adv-x="602" 
d="M508 353v-248q0 -37 14 -65t37 -28v-12h-167v12q24 0 37.5 28.5t13.5 64.5v248q0 137 -108 137q-53 0 -102.5 -33t-70.5 -62v-290q0 -32 14 -62.5t37 -30.5v-12h-167v12q24 0 37.5 29.5t13.5 63.5v334q0 29 -11 50t-35 21v12l101 13l10 -98q29 38 81.5 71.5t101.5 33.5
q163 0 163 -189zM174 737q-10 10 3 16l3 1q10 2 28 -12l109 -94l108 93q2 1 8 5.5t10.5 6.5t7.5 1l5 -2q13 -5 4 -16l-132 -140q-4 -4 -11 -4t-11 4z" />
    <glyph glyph-name="Eng" unicode="&#x14a;" horiz-adv-x="702" 
d="M647 392q0 -98 -22 -189t-66 -153.5t-100 -62.5q-53 0 -87.5 32t-34.5 75q0 28 12.5 46t36.5 18q12 0 19 -6t8 -12l1 -6q-3 -16 -4 -40.5t13.5 -47t41.5 -22.5q45 0 74 90t29 223q0 87 -15.5 150t-41.5 95t-52.5 46.5t-54.5 14.5q-57 0 -119.5 -40t-94.5 -80v-523h-119
v14q25 0 37 35.5t12 81.5v428q0 33 -22.5 63.5t-51.5 30.5v15l144 32v-130q36 47 106 92.5t131 45.5q94 0 157 -85.5t63 -230.5z" />
    <glyph glyph-name="eng" unicode="&#x14b;" horiz-adv-x="578" 
d="M509 353v-334q0 -102 -34.5 -174t-106.5 -72q-46 0 -89 26.5t-43 68.5q0 23 11 37.5t33 14.5q9 0 15.5 -5t8.5 -10l3 -5q-2 -9 0 -25t6 -32t18.5 -28t36.5 -12q75 0 75 197v353q0 137 -111 137q-49 0 -95.5 -30.5t-74.5 -64.5v-395h-116v14q23 0 37 32t14 62v329
q0 29 -11 50t-35 21v14l101 13l10 -98q29 39 81 72t101 33q79 0 122 -44t43 -145z" />
    <glyph glyph-name="Omacron" unicode="&#x14c;" horiz-adv-x="816" 
d="M250 805h314v-24h-314v24zM408 712q148 0 248.5 -105t100.5 -255t-100.5 -255.5t-248.5 -105.5t-248.5 105.5t-100.5 255.5t100.5 255t248.5 105zM426 35q115 0 189 91t63 227q-12 137 -94 227t-195 90q-111 0 -186 -94t-62 -223q14 -138 94.5 -228t190.5 -90z" />
    <glyph glyph-name="omacron" unicode="&#x14d;" horiz-adv-x="646" 
d="M323 544q115 0 190.5 -80t75.5 -196t-75.5 -196.5t-190.5 -80.5q-114 0 -189.5 80.5t-75.5 196.5t75.5 196t189.5 80zM337 18q72 0 125.5 75.5t44.5 179.5q-10 107 -64.5 172t-132.5 65q-76 0 -128.5 -71t-43.5 -176q8 -105 67 -175t132 -70zM181 640h290v-24h-290v24z
" />
    <glyph glyph-name="Obreve" unicode="&#x14e;" horiz-adv-x="816" 
d="M408 712q148 0 248.5 -105t100.5 -255t-100.5 -255.5t-248.5 -105.5t-248.5 105.5t-100.5 255.5t100.5 255t248.5 105zM426 35q115 0 189 91t63 227q-12 137 -94 227t-195 90q-111 0 -186 -94t-62 -223q14 -138 94.5 -228t190.5 -90zM405 779q34 0 56.5 25.5t19.5 58.5
h40q0 -45 -33 -75t-90 -30q-56 0 -89.5 30t-33.5 75h38q3 -33 31 -58.5t61 -25.5z" />
    <glyph glyph-name="obreve" unicode="&#x14f;" horiz-adv-x="646" 
d="M323 544q115 0 190.5 -80t75.5 -196t-75.5 -196.5t-190.5 -80.5q-114 0 -189.5 80.5t-75.5 196.5t75.5 196t189.5 80zM337 18q72 0 125.5 75.5t44.5 179.5q-10 107 -64.5 172t-132.5 65q-76 0 -128.5 -71t-43.5 -176q8 -105 67 -175t132 -70zM336 614q34 0 56.5 25.5
t19.5 58.5h40q0 -45 -33 -75t-90 -30q-56 0 -89.5 30t-33.5 75h38q3 -33 31 -58.5t61 -25.5z" />
    <glyph glyph-name="Ohungarumlaut" unicode="&#x150;" horiz-adv-x="816" 
d="M408 712q148 0 248.5 -105t100.5 -255t-100.5 -255.5t-248.5 -105.5t-248.5 105.5t-100.5 255.5t100.5 255t248.5 105zM426 35q115 0 189 91t63 227q-12 137 -94 227t-195 90q-111 0 -186 -94t-62 -223q14 -138 94.5 -228t190.5 -90zM272 754q-5 1 -6 6t4 9l134 126
q4 5 11 4.5t11 -6.5l14 -25q3 -6 -0.5 -13.5t-8.5 -11.5l-129 -82q-19 -11 -27 -8zM434 755q-5 2 -5 6.5t5 8.5l142 136q4 5 11 4.5t11 -6.5l14 -27q3 -6 -0.5 -13.5t-8.5 -11.5l-137 -90q-20 -12 -27 -9z" />
    <glyph glyph-name="ohungarumlaut" unicode="&#x151;" horiz-adv-x="646" 
d="M323 544q115 0 190.5 -80t75.5 -196t-75.5 -196.5t-190.5 -80.5q-114 0 -189.5 80.5t-75.5 196.5t75.5 196t189.5 80zM337 18q72 0 125.5 75.5t44.5 179.5q-10 107 -64.5 172t-132.5 65q-76 0 -128.5 -71t-43.5 -176q8 -105 67 -175t132 -70zM202 589q-5 1 -6 6t4 9
l134 126q4 5 11 4.5t11 -6.5l14 -25q3 -6 -0.5 -13.5t-8.5 -11.5l-129 -82q-19 -11 -27 -8zM364 590q-5 2 -5 6.5t5 8.5l142 136q4 5 11 4.5t11 -6.5l14 -27q3 -6 -0.5 -13.5t-8.5 -11.5l-137 -90q-20 -12 -27 -9z" />
    <glyph glyph-name="OE" unicode="&#x152;" horiz-adv-x="1024" 
d="M735 674q-52 0 -74.5 -32t-22.5 -94v-188q186 0 186 58h14v-136h-14q0 57 -186 57v-188q0 -63 21.5 -94t75.5 -31q102 0 153 43t51 100h14v-147q0 -22 -21 -22h-435q-37 -9 -79 -9q-148 0 -253.5 106t-105.5 255q0 150 100.5 255t248.5 105q58 0 101 -12h423q21 0 21 -23
v-147h-14q0 58 -50.5 101t-153.5 43zM437 23q86 0 129 42q2 14 2 18v542q-22 25 -67 40t-97 15q-114 0 -193 -103.5t-70 -236.5q9 -130 97 -223.5t199 -93.5z" />
    <glyph glyph-name="oe" unicode="&#x153;" horiz-adv-x="978" 
d="M900 99l13 -14q-72 -91 -182 -91q-55 0 -99 27t-89 74q-31 -32 -55 -51.5t-66.5 -36t-92.5 -16.5q-119 0 -195 80t-76 197t76 196.5t195 79.5q102 0 196 -94q29 38 74.5 64.5t96.5 26.5q88 0 153.5 -60.5t65.5 -149.5q0 -56 -62 -56l-299 -2q8 -103 63 -168t133 -65
q87 0 150 59zM345 25q76 0 118 68t33 175q-10 106 -65 174t-133 68q-76 0 -122.5 -69t-37.5 -173q10 -105 69.5 -174t137.5 -69zM700 508q-49 0 -84.5 -34.5t-50 -80t-12.5 -89.5l296 3q0 87 -41.5 144t-107.5 57z" />
    <glyph glyph-name="Racute" unicode="&#x154;" horiz-adv-x="668" 
d="M358 326q21 -56 47 -105.5t62 -99t82.5 -79t96.5 -29.5v-14h-23q-126 0 -193.5 58t-141.5 225q-89 -53 -127 -66v-113q0 -29 13.5 -59t34.5 -30v-14h-167v14q22 0 35.5 30t13.5 59v493q0 29 -13.5 59.5t-35.5 30.5v14h272q79 0 130 -42.5t51 -115.5q0 -50 -43 -117
t-94 -99zM161 604v-354q96 43 175.5 124.5t79.5 168.5q0 47 -34 84t-97 37h-66q-23 0 -40.5 -18t-17.5 -42zM182 753l-5 2q-10 6 1 15l150 145q14 11 22 -2l15 -28q7 -13 -10 -25l-153 -102q-13 -9 -20 -5z" />
    <glyph glyph-name="racute" unicode="&#x155;" horiz-adv-x="453" 
d="M302 541q42 0 68 -26.5t26 -59.5q0 -28 -15 -45.5t-34 -17.5q-4 0 -9.5 21.5t-24.5 43t-56 21.5q-27 0 -60.5 -34.5t-34.5 -96.5v-242q0 -30 14 -61.5t37 -31.5v-12h-167v12q23 0 37 31.5t14 61.5v325q0 29 -13.5 53.5t-37.5 24.5v12l116 15v-103q32 46 70.5 77.5
t69.5 31.5zM171 588l-5 2q-10 6 1 15l150 145q14 11 22 -2l15 -28q7 -13 -10 -25l-153 -102q-13 -9 -20 -5z" />
    <glyph glyph-name="uni0156" unicode="&#x156;" horiz-adv-x="705" 
d="M368 326q21 -56 47 -105.5t62 -99t82.5 -79t96.5 -29.5v-14h-23q-126 0 -193.5 58t-141.5 225q-89 -53 -127 -66v-113q0 -29 13.5 -59t34.5 -30v-14h-167v14q22 0 35.5 30t13.5 59v493q0 29 -13.5 59.5t-35.5 30.5v14h272q79 0 130 -42.5t51 -115.5q0 -50 -43 -117
t-94 -99zM171 604v-354q96 43 175.5 124.5t79.5 168.5q0 47 -34 84t-97 37h-66q-23 0 -40.5 -18t-17.5 -42zM339 -38q35 -2 57 -19.5t22 -51.5q0 -83 -186 -83l-2 12q142 7 142 67q0 22 -20.5 38t-61.5 18v12q21 7 49 7z" />
    <glyph glyph-name="uni0157" unicode="&#x157;" horiz-adv-x="453" 
d="M302 541q42 0 68 -26.5t26 -59.5q0 -28 -15 -45.5t-34 -17.5q-4 0 -9.5 21.5t-24.5 43t-56 21.5q-27 0 -60.5 -34.5t-34.5 -96.5v-242q0 -30 14 -61.5t37 -31.5v-12h-167v12q23 0 37 31.5t14 61.5v325q0 29 -13.5 53.5t-37.5 24.5v12l116 15v-103q32 46 70.5 77.5
t69.5 31.5zM139 -38q35 -2 57 -19.5t22 -51.5q0 -83 -186 -83l-2 12q142 7 142 67q0 22 -20.5 38t-61.5 18v12q21 7 49 7z" />
    <glyph glyph-name="Rcaron" unicode="&#x158;" horiz-adv-x="668" 
d="M358 326q21 -56 47 -105.5t62 -99t82.5 -79t96.5 -29.5v-14h-23q-126 0 -193.5 58t-141.5 225q-89 -53 -127 -66v-113q0 -29 13.5 -59t34.5 -30v-14h-167v14q22 0 35.5 30t13.5 59v493q0 29 -13.5 59.5t-35.5 30.5v14h272q79 0 130 -42.5t51 -115.5q0 -50 -43 -117
t-94 -99zM161 604v-354q96 43 175.5 124.5t79.5 168.5q0 47 -34 84t-97 37h-66q-23 0 -40.5 -18t-17.5 -42zM122 902q-10 10 3 16l3 1q10 2 28 -12l109 -94l108 93q2 1 8 5.5t10.5 6.5t7.5 1l5 -2q13 -5 4 -16l-132 -140q-4 -4 -11 -4t-11 4z" />
    <glyph glyph-name="rcaron" unicode="&#x159;" horiz-adv-x="453" 
d="M302 541q42 0 68 -26.5t26 -59.5q0 -28 -15 -45.5t-34 -17.5q-4 0 -9.5 21.5t-24.5 43t-56 21.5q-27 0 -60.5 -34.5t-34.5 -96.5v-242q0 -30 14 -61.5t37 -31.5v-12h-167v12q23 0 37 31.5t14 61.5v325q0 29 -13.5 53.5t-37.5 24.5v12l116 15v-103q32 46 70.5 77.5
t69.5 31.5zM104 737q-10 10 3 16l3 1q10 2 28 -12l109 -94l108 93q2 1 8 5.5t10.5 6.5t7.5 1l5 -2q13 -5 4 -16l-132 -140q-4 -4 -11 -4t-11 4z" />
    <glyph glyph-name="Sacute" unicode="&#x15a;" horiz-adv-x="571" 
d="M152 560q0 -40 37 -80t89.5 -73.5l105 -67t89.5 -74t37 -81.5q0 -82 -69 -141t-187 -59q-78 0 -140.5 51.5t-62.5 111.5q0 25 7.5 46t18 32.5t21 19.5t18.5 11l7 3q-12 -24 -14 -56t7.5 -64.5t28.5 -60t53.5 -45t78.5 -17.5q71 0 116.5 43t45.5 93q0 43 -36 80.5t-87 67
t-102 61t-87 78t-36 103.5q0 79 52 122t143 43q47 0 87 -12.5t64.5 -32t38.5 -42.5t12.5 -46t-17.5 -40q-9 -10 -22 -10t-21 5l-9 5q0 12 -6.5 33t-20.5 47.5t-42 45.5t-64 19q-55 0 -94.5 -31.5t-39.5 -87.5zM225 753l-5 2q-10 6 1 15l150 145q14 11 22 -2l15 -28
q7 -13 -10 -25l-153 -102q-13 -9 -20 -5z" />
    <glyph glyph-name="sacute" unicode="&#x15b;" horiz-adv-x="486" 
d="M145 414q0 -33 29.5 -59.5t71.5 -46t83.5 -40.5t71 -54.5t29.5 -76.5q0 -71 -54.5 -107.5t-134.5 -36.5q-68 0 -126.5 45t-58.5 90q0 30 13 46.5t25 17.5l13 2q-16 -42 29 -102t122 -60q44 0 79 28.5t35 63.5q0 32 -29.5 56t-71 42.5t-83.5 39t-71.5 56.5t-29.5 85
q0 62 53.5 101.5t123.5 39.5q74 0 123.5 -48t20.5 -83q-10 -13 -22.5 -16.5t-19.5 -0.5l-7 2q0 13 -9 38.5t-35 52.5t-61 27q-50 0 -79.5 -32.5t-29.5 -69.5zM186 588l-5 2q-10 6 1 15l150 145q14 11 22 -2l15 -28q7 -13 -10 -25l-153 -102q-13 -9 -20 -5z" />
    <glyph glyph-name="Scircumflex" unicode="&#x15c;" horiz-adv-x="571" 
d="M152 560q0 -40 37 -80t89.5 -73.5l105 -67t89.5 -74t37 -81.5q0 -82 -69 -141t-187 -59q-78 0 -140.5 51.5t-62.5 111.5q0 25 7.5 46t18 32.5t21 19.5t18.5 11l7 3q-12 -24 -14 -56t7.5 -64.5t28.5 -60t53.5 -45t78.5 -17.5q71 0 116.5 43t45.5 93q0 43 -36 80.5t-87 67
t-102 61t-87 78t-36 103.5q0 79 52 122t143 43q47 0 87 -12.5t64.5 -32t38.5 -42.5t12.5 -46t-17.5 -40q-9 -10 -22 -10t-21 5l-9 5q0 12 -6.5 33t-20.5 47.5t-42 45.5t-64 19q-55 0 -94.5 -31.5t-39.5 -87.5zM145 770l132 141q4 4 11 4t11 -4l132 -140q9 -11 -4 -16l-5 -2
q-3 -1 -7.5 1t-10.5 6.5t-8 5.5l-108 93l-109 -94q-18 -14 -28 -12l-3 1q-13 6 -3 16z" />
    <glyph glyph-name="scircumflex" unicode="&#x15d;" horiz-adv-x="486" 
d="M145 414q0 -33 29.5 -59.5t71.5 -46t83.5 -40.5t71 -54.5t29.5 -76.5q0 -71 -54.5 -107.5t-134.5 -36.5q-68 0 -126.5 45t-58.5 90q0 30 13 46.5t25 17.5l13 2q-16 -42 29 -102t122 -60q44 0 79 28.5t35 63.5q0 32 -29.5 56t-71 42.5t-83.5 39t-71.5 56.5t-29.5 85
q0 62 53.5 101.5t123.5 39.5q74 0 123.5 -48t20.5 -83q-10 -13 -22.5 -16.5t-19.5 -0.5l-7 2q0 13 -9 38.5t-35 52.5t-61 27q-50 0 -79.5 -32.5t-29.5 -69.5zM114 605l132 141q4 4 11 4t11 -4l132 -140q9 -11 -4 -16l-5 -2q-3 -1 -7.5 1t-10.5 6.5t-8 5.5l-108 93l-109 -94
q-18 -14 -28 -12l-3 1q-13 6 -3 16z" />
    <glyph glyph-name="Scedilla" unicode="&#x15e;" horiz-adv-x="571" 
d="M152 560q0 -40 37 -80t89.5 -73.5l105 -67t89.5 -74t37 -81.5q0 -82 -69 -141t-187 -59q-78 0 -140.5 51.5t-62.5 111.5q0 25 7.5 46t18 32.5t21 19.5t18.5 11l7 3q-12 -24 -14 -56t7.5 -64.5t28.5 -60t53.5 -45t78.5 -17.5q71 0 116.5 43t45.5 93q0 43 -36 80.5t-87 67
t-102 61t-87 78t-36 103.5q0 79 52 122t143 43q47 0 87 -12.5t64.5 -32t38.5 -42.5t12.5 -46t-17.5 -40q-9 -10 -22 -10t-21 5l-9 5q0 12 -6.5 33t-20.5 47.5t-42 45.5t-64 19q-55 0 -94.5 -31.5t-39.5 -87.5zM292 -38q35 -2 57 -19.5t22 -51.5q0 -83 -186 -83l-2 12
q142 7 142 67q0 22 -20.5 38t-61.5 18v12q21 7 49 7z" />
    <glyph glyph-name="scedilla" unicode="&#x15f;" horiz-adv-x="486" 
d="M145 414q0 -33 29.5 -59.5t71.5 -46t83.5 -40.5t71 -54.5t29.5 -76.5q0 -71 -54.5 -107.5t-134.5 -36.5q-68 0 -126.5 45t-58.5 90q0 30 13 46.5t25 17.5l13 2q-16 -42 29 -102t122 -60q44 0 79 28.5t35 63.5q0 32 -29.5 56t-71 42.5t-83.5 39t-71.5 56.5t-29.5 85
q0 62 53.5 101.5t123.5 39.5q74 0 123.5 -48t20.5 -83q-10 -13 -22.5 -16.5t-19.5 -0.5l-7 2q0 13 -9 38.5t-35 52.5t-61 27q-50 0 -79.5 -32.5t-29.5 -69.5zM251 -38q35 -2 57 -19.5t22 -51.5q0 -83 -186 -83l-2 12q142 7 142 67q0 22 -20.5 38t-61.5 18v12q21 7 49 7z" />
    <glyph glyph-name="Scaron" unicode="&#x160;" horiz-adv-x="571" 
d="M152 560q0 -40 37 -80t89.5 -73.5l105 -67t89.5 -74t37 -81.5q0 -82 -69 -141t-187 -59q-78 0 -140.5 51.5t-62.5 111.5q0 25 7.5 46t18 32.5t21 19.5t18.5 11l7 3q-12 -24 -14 -56t7.5 -64.5t28.5 -60t53.5 -45t78.5 -17.5q71 0 116.5 43t45.5 93q0 43 -36 80.5t-87 67
t-102 61t-87 78t-36 103.5q0 79 52 122t143 43q47 0 87 -12.5t64.5 -32t38.5 -42.5t12.5 -46t-17.5 -40q-9 -10 -22 -10t-21 5l-9 5q0 12 -6.5 33t-20.5 47.5t-42 45.5t-64 19q-55 0 -94.5 -31.5t-39.5 -87.5zM149 902q-10 10 3 16l3 1q10 2 28 -12l109 -94l108 93
q2 1 8 5.5t10.5 6.5t7.5 1l5 -2q13 -5 4 -16l-132 -140q-4 -4 -11 -4t-11 4z" />
    <glyph glyph-name="scaron" unicode="&#x161;" horiz-adv-x="486" 
d="M145 414q0 -33 29.5 -59.5t71.5 -46t83.5 -40.5t71 -54.5t29.5 -76.5q0 -71 -54.5 -107.5t-134.5 -36.5q-68 0 -126.5 45t-58.5 90q0 30 13 46.5t25 17.5l13 2q-16 -42 29 -102t122 -60q44 0 79 28.5t35 63.5q0 32 -29.5 56t-71 42.5t-83.5 39t-71.5 56.5t-29.5 85
q0 62 53.5 101.5t123.5 39.5q74 0 123.5 -48t20.5 -83q-10 -13 -22.5 -16.5t-19.5 -0.5l-7 2q0 13 -9 38.5t-35 52.5t-61 27q-50 0 -79.5 -32.5t-29.5 -69.5zM115 737q-10 10 3 16l3 1q10 2 28 -12l109 -94l108 93q2 1 8 5.5t10.5 6.5t7.5 1l5 -2q13 -5 4 -16l-132 -140
q-4 -4 -11 -4t-11 4z" />
    <glyph glyph-name="uni0162" unicode="&#x162;" horiz-adv-x="598" 
d="M535 678l8 -136h-13q0 57 -38.5 97t-117.5 40q-21 0 -30 -24t-9 -85v-467q0 -29 13 -59t35 -30v-14h-81q-19 -28 -19 -38q39 1 64 -17.5t25 -53.5q0 -83 -186 -83l-2 12q58 1 100 17t42 50q0 29 -25 42t-57 14q-2 5 2 14q3 7 41 43h-70v14q21 0 34.5 30.5t13.5 58.5v467
q-1 61 -10.5 85t-29.5 24q-82 0 -119 -39.5t-37 -97.5h-14l9 136q0 22 20 22h431q20 0 20 -22z" />
    <glyph glyph-name="uni0163" unicode="&#x163;" horiz-adv-x="418" 
d="M313 101q15 18 29 18q30 0 30 -40q0 -31 -38.5 -56.5t-77.5 -27.5q-3 -5 -8 -12.5t-8.5 -12.5t-3.5 -7q36 -2 62 -20t26 -52q0 -83 -186 -83l-2 12q1 0 14 1t19 1.5t20 2.5t22 4t20 5.5t19 8.5t14 11.5t10.5 15t3.5 18.5q0 26 -25.5 40t-56.5 15q0 11 2 15q2 5 8 11
t16.5 14.5t13.5 11.5q-59 7 -96 48t-37 119v338h-52v25q29 0 46.5 44t35.5 129q1 7 2 11l38 42v-216h167l-10 -35h-162v-332q0 -66 23.5 -103.5t58.5 -37.5q32 0 47.5 25.5t15.5 48.5z" />
    <glyph glyph-name="Tcaron" unicode="&#x164;" horiz-adv-x="598" 
d="M535 678l8 -136h-14q0 14 -2.5 28.5t-12 35t-24.5 36t-44 26.5t-67 11q-22 0 -33 -20t-11 -79v-477q0 -29 13 -59t35 -30v-14h-166v14q21 0 34.5 30.5t13.5 58.5v477q-1 59 -12 79t-33 20q-48 0 -80.5 -15.5t-46.5 -39.5t-19 -43.5t-5 -38.5h-14l9 136q0 22 20 22h431
q20 0 20 -22zM161 902q-10 10 3 16l3 1q10 2 28 -12l109 -94l108 93q2 1 8 5.5t10.5 6.5t7.5 1l5 -2q13 -5 4 -16l-132 -140q-4 -4 -11 -4t-11 4z" />
    <glyph glyph-name="tcaron" unicode="&#x165;" horiz-adv-x="603" 
d="M313 101q13 18 28 18q31 0 31 -40q0 -31 -39.5 -57.5t-84.5 -26.5q-58 0 -101.5 40.5t-43.5 126.5v338h-52v25q16 0 28.5 13.5t21.5 37t16 52t14 61.5q3 13 4 20l38 42v-216h167l-10 -35h-162v-332q0 -66 23.5 -103.5t56.5 -37.5q34 0 49.5 25t15.5 49zM459 703
q51 0 51 -80q0 -48 -33 -96t-89 -54v14q31 4 59 35.5t16 77.5q-2 8 -23.5 22.5t-24.5 32.5q-3 19 9.5 33.5t34.5 14.5z" />
    <glyph glyph-name="Tbar" unicode="&#x166;" horiz-adv-x="598" 
d="M535 678l8 -136h-13q0 56 -37.5 96.5t-108.5 40.5q-12 0 -20.5 -3t-14 -12t-8.5 -17t-4.5 -26.5t-1.5 -31v-39.5v-82h110v-25h-110v-340q0 -29 13 -59t35 -30v-14h-166v14q21 0 34.5 30.5t13.5 58.5v340h-114v25h114v82q-1 88 -11 107q-11 22 -39 22q-73 0 -109.5 -40.5
t-36.5 -96.5h-14l9 136q0 22 20 22h431q20 0 20 -22z" />
    <glyph glyph-name="tbar" unicode="&#x167;" horiz-adv-x="418" 
d="M313 101q15 18 29 18q30 0 30 -42q0 -28 -39.5 -55t-80.5 -27q-64 0 -106.5 41.5t-42.5 125.5v173h-52v25h52v140h-52v25q29 0 46.5 44t35.5 129q1 7 2 11l38 42v-216h167l-10 -35h-162v-140h152v-25h-152v-167q0 -66 23 -103.5t58 -37.5q32 0 48 25t16 49z" />
    <glyph glyph-name="Utilde" unicode="&#x168;" 
d="M494 700h131v-14q-22 0 -35 -30t-13 -59l-4 -325q0 -133 -67.5 -208t-159.5 -75q-39 0 -72 6t-68 23t-59 44t-39.5 73.5t-15.5 107.5v354q0 29 -13.5 59t-35.5 30v14h165v-14q-21 0 -34.5 -30.5t-13.5 -58.5v-346q0 -87 53.5 -153t134.5 -66q100 0 149 68t49 170l-4 327
q0 28 -13.5 58.5t-34.5 30.5v14zM182 783v14q61 52 116 52q37 0 84 -27.5t77 -27.5q20 0 53 30l9 -15q-47 -50 -95 -50q-29 0 -74 27.5t-88 27.5q-39 0 -82 -31z" />
    <glyph glyph-name="utilde" unicode="&#x169;" horiz-adv-x="575" 
d="M72 432q0 56 -8 66q-7 10 -23 10v12l96 15v-346q0 -88 34.5 -121.5t80.5 -33.5q39 0 85.5 32t69.5 64v302v10q0 25 -1 36t-8 20.5t-22 9.5v12l96 15v-437q0 -33 13.5 -59.5t37.5 -26.5v-12h-62q-20 0 -37 18t-17 41v15q-29 -26 -77 -52.5t-95 -26.5q-163 0 -163 194v243z
M102 618v14q61 52 116 52q37 0 84 -27.5t77 -27.5q20 0 53 30l9 -15q-47 -50 -95 -50q-29 0 -74 27.5t-88 27.5q-39 0 -82 -31z" />
    <glyph glyph-name="Umacron" unicode="&#x16a;" 
d="M197 805h310v-24h-310v24zM494 700h131v-14q-22 0 -35 -30t-13 -59l-4 -325q0 -133 -67.5 -208t-159.5 -75q-39 0 -72 6t-68 23t-59 44t-39.5 73.5t-15.5 107.5v354q0 29 -13.5 59t-35.5 30v14h165v-14q-21 0 -34.5 -30.5t-13.5 -58.5v-346q0 -87 53.5 -153t134.5 -66
q100 0 149 68t49 170l-4 327q0 28 -13.5 58.5t-34.5 30.5v14z" />
    <glyph glyph-name="umacron" unicode="&#x16b;" horiz-adv-x="575" 
d="M72 432q0 56 -8 66q-7 10 -23 10v12l96 15v-346q0 -88 34.5 -121.5t80.5 -33.5q39 0 85.5 32t69.5 64v302v10q0 25 -1 36t-8 20.5t-22 9.5v12l96 15v-437q0 -33 13.5 -59.5t37.5 -26.5v-12h-62q-20 0 -37 18t-17 41v15q-29 -26 -77 -52.5t-95 -26.5q-163 0 -163 194v243z
M133 640h290v-24h-290v24z" />
    <glyph glyph-name="Ubreve" unicode="&#x16c;" 
d="M494 700h131v-14q-22 0 -35 -30t-13 -59l-4 -325q0 -133 -67.5 -208t-159.5 -75q-39 0 -72 6t-68 23t-59 44t-39.5 73.5t-15.5 107.5v354q0 29 -13.5 59t-35.5 30v14h165v-14q-21 0 -34.5 -30.5t-13.5 -58.5v-346q0 -87 53.5 -153t134.5 -66q100 0 149 68t49 170l-4 327
q0 28 -13.5 58.5t-34.5 30.5v14zM355 779q34 0 56.5 25.5t19.5 58.5h40q0 -45 -33 -75t-90 -30q-56 0 -89.5 30t-33.5 75h38q3 -33 31 -58.5t61 -25.5z" />
    <glyph glyph-name="ubreve" unicode="&#x16d;" horiz-adv-x="575" 
d="M72 432q0 56 -8 66q-7 10 -23 10v12l96 15v-346q0 -88 34.5 -121.5t80.5 -33.5q39 0 85.5 32t69.5 64v302v10q0 25 -1 36t-8 20.5t-22 9.5v12l96 15v-437q0 -33 13.5 -59.5t37.5 -26.5v-12h-62q-20 0 -37 18t-17 41v15q-29 -26 -77 -52.5t-95 -26.5q-163 0 -163 194v243z
M267 614q34 0 56.5 25.5t19.5 58.5h40q0 -45 -33 -75t-90 -30q-56 0 -89.5 30t-33.5 75h38q3 -33 31 -58.5t61 -25.5z" />
    <glyph glyph-name="Uring" unicode="&#x16e;" 
d="M494 700h131v-14q-22 0 -35 -30t-13 -59l-4 -325q0 -133 -67.5 -208t-159.5 -75q-39 0 -72 6t-68 23t-59 44t-39.5 73.5t-15.5 107.5v354q0 29 -13.5 59t-35.5 30v14h165v-14q-21 0 -34.5 -30.5t-13.5 -58.5v-346q0 -87 53.5 -153t134.5 -66q100 0 149 68t49 170l-4 327
q0 28 -13.5 58.5t-34.5 30.5v14zM437 804q0 -36 -25 -61.5t-63 -25.5q-37 0 -62.5 25.5t-25.5 61.5t25.5 61t62.5 25q38 0 63 -25t25 -61zM297 804q4 -32 20 -52t38 -20q20 0 33 20.5t10 51.5q-2 32 -18.5 53t-38.5 21q-20 0 -32.5 -21t-11.5 -53z" />
    <glyph glyph-name="uring" unicode="&#x16f;" horiz-adv-x="575" 
d="M72 432q0 56 -8 66q-7 10 -23 10v12l96 15v-346q0 -88 34.5 -121.5t80.5 -33.5q39 0 85.5 32t69.5 64v302v10q0 25 -1 36t-8 20.5t-22 9.5v12l96 15v-437q0 -33 13.5 -59.5t37.5 -26.5v-12h-62q-20 0 -37 18t-17 41v15q-29 -26 -77 -52.5t-95 -26.5q-163 0 -163 194v243z
M351 639q0 -36 -25 -61.5t-63 -25.5q-37 0 -62.5 25.5t-25.5 61.5t25.5 61t62.5 25q38 0 63 -25t25 -61zM211 639q4 -32 20 -52t38 -20q20 0 33 20.5t10 51.5q-2 32 -18.5 53t-38.5 21q-20 0 -32.5 -21t-11.5 -53z" />
    <glyph glyph-name="Uhungarumlaut" unicode="&#x170;" 
d="M494 700h131v-14q-22 0 -35 -30t-13 -59l-4 -325q0 -133 -67.5 -208t-159.5 -75q-39 0 -72 6t-68 23t-59 44t-39.5 73.5t-15.5 107.5v354q0 29 -13.5 59t-35.5 30v14h165v-14q-21 0 -34.5 -30.5t-13.5 -58.5v-346q0 -87 53.5 -153t134.5 -66q100 0 149 68t49 170l-4 327
q0 28 -13.5 58.5t-34.5 30.5v14zM220 754q-5 1 -6 6t4 9l134 126q4 5 11 4.5t11 -6.5l14 -25q3 -6 -0.5 -13.5t-8.5 -11.5l-129 -82q-19 -11 -27 -8zM382 755q-5 2 -5 6.5t5 8.5l142 136q4 5 11 4.5t11 -6.5l14 -27q3 -6 -0.5 -13.5t-8.5 -11.5l-137 -90q-20 -12 -27 -9z
" />
    <glyph glyph-name="uhungarumlaut" unicode="&#x171;" horiz-adv-x="575" 
d="M72 432q0 56 -8 66q-7 10 -23 10v12l96 15v-346q0 -88 34.5 -121.5t80.5 -33.5q39 0 85.5 32t69.5 64v302v10q0 25 -1 36t-8 20.5t-22 9.5v12l96 15v-437q0 -33 13.5 -59.5t37.5 -26.5v-12h-62q-20 0 -37 18t-17 41v15q-29 -26 -77 -52.5t-95 -26.5q-163 0 -163 194v243z
M148 589q-5 1 -6 6t4 9l134 126q4 5 11 4.5t11 -6.5l14 -25q3 -6 -0.5 -13.5t-8.5 -11.5l-129 -82q-19 -11 -27 -8zM310 590q-5 2 -5 6.5t5 8.5l142 136q4 5 11 4.5t11 -6.5l14 -27q3 -6 -0.5 -13.5t-8.5 -11.5l-137 -90q-20 -12 -27 -9z" />
    <glyph glyph-name="Uogonek" unicode="&#x172;" 
d="M494 700h131v-14q-22 0 -35 -30t-13 -59l-4 -325q0 -97 -36.5 -163.5t-96.5 -96.5q-82 -67 -82 -112q0 -47 39 -63t88 5l8 -12q-37 -28 -77 -28q-45 0 -70.5 24.5t-25.5 62.5q0 57 79 107q-31 -7 -53 -7q-39 0 -72 6t-68 23t-59 44t-39.5 73.5t-15.5 107.5v354
q0 29 -13.5 59t-35.5 30v14h165v-14q-21 0 -34.5 -30.5t-13.5 -58.5v-346q0 -87 53.5 -153t134.5 -66q100 0 149 68t49 170l-4 327q0 28 -13.5 58.5t-34.5 30.5v14z" />
    <glyph glyph-name="uogonek" unicode="&#x173;" horiz-adv-x="575" 
d="M72 432q0 56 -8 66q-7 10 -23 10v12l96 15v-346q0 -88 34.5 -121.5t80.5 -33.5q39 0 85.5 32t69.5 64v302v10q0 25 -1 36t-8 20.5t-22 9.5v12l96 15v-437q0 -33 13.5 -59.5t37.5 -26.5v-12h-22q-24 0 -56 -36t-32 -64q0 -47 38.5 -63t88.5 5l8 -12q-37 -28 -77 -28
q-45 0 -70.5 24.5t-25.5 62.5q0 59 85 111q-20 0 -36.5 18t-16.5 41v15q-29 -26 -77 -52.5t-95 -26.5q-163 0 -163 194v243z" />
    <glyph glyph-name="Wcircumflex" unicode="&#x174;" horiz-adv-x="1028" 
d="M876 700h119v-14q-18 0 -28.5 -13.5t-24.5 -46.5q-2 -4 -3 -6.5t-2 -5.5l-194 -614h-27q-40 45 -74 147l-136 390l-142 -537h-42q-39 45 -74 147l-160 471q-13 36 -24.5 52t-30.5 16v14h162v-14q-49 0 -22 -89l182 -516l161 619h14l215 -619l152 516q28 89 -21 89v14z
M379 770l132 141q4 4 11 4t11 -4l132 -140q9 -11 -4 -16l-5 -2q-3 -1 -7.5 1t-10.5 6.5t-8 5.5l-108 93l-109 -94q-18 -14 -28 -12l-3 1q-13 6 -3 16z" />
    <glyph glyph-name="wcircumflex" unicode="&#x175;" horiz-adv-x="885" 
d="M717 535h142v-12q-36 0 -72 -86q-99 -295 -134 -385q-5 -13 -7 -26t-2 -20l1 -6h-73q-12 10 -37 73l-95 296l-81 -317q-5 -13 -7 -26t-2 -20l1 -6h-67q-4 1 -10 4.5t-21 22t-26 46.5q-21 55 -43 115.5t-36 101t-28.5 81.5t-25.5 66.5t-22.5 46.5t-22.5 30t-23 9v12h175
v-12q-29 0 -36.5 -30.5t5.5 -65.5q139 -371 148 -386l133 494h14q39 -137 79 -260t61 -179.5t21 -54.5l119 376q7 19 9 45q4 61 -37 61v12zM311 605l132 141q4 4 11 4t11 -4l132 -140q8 -9 -9 -18q-4 -1 -13 4q-3 2 -7.5 5.5t-5.5 3.5l-108 93l-109 -94q-18 -14 -28 -12
q-7 0 -9 6t3 11z" />
    <glyph glyph-name="Ycircumflex" unicode="&#x176;" horiz-adv-x="586" 
d="M424 700h129v-14q-23 0 -41.5 -18.5t-55.5 -70.5l-130 -193v-301q0 -29 13 -59t35 -30v-14h-166v14q22 0 35 30t13 59v265l-143 229q-3 5 -8 14q-16 28 -24 40.5t-21 23.5t-27 11v14h179v-14q-25 0 -32 -18t12 -53l118 -186l115 168q18 26 23.5 46.5t-1 31.5t-23.5 11v14
zM172 770l132 141q4 4 11 4t11 -4l132 -140q9 -11 -4 -16l-5 -2q-3 -1 -7.5 1t-10.5 6.5t-8 5.5l-108 93l-109 -94q-18 -14 -28 -12l-3 1q-13 6 -3 16z" />
    <glyph glyph-name="ycircumflex" unicode="&#x177;" horiz-adv-x="599" 
d="M437 535h136v-12q-32 0 -62 -86l-193 -534q-17 -46 -53 -88t-87 -42q-59 0 -101 36t-42 84q0 31 17.5 52.5t39.5 21.5q24 0 24 -28q0 -6 -5.5 -24.5t-5.5 -29.5q0 -30 22 -52.5t61 -22.5q17 0 33 9.5t27.5 23t20 27.5t13.5 24l4 9l37 100l-207 424q-52 96 -90 96v12h190
v-12q-27 -1 -34.5 -33.5t7.5 -62.5l164 -347l112 337q14 34 8.5 69t-36.5 37v12zM189 605l132 141q4 4 11 4t11 -4l132 -140q9 -11 -4 -16l-5 -2q-3 -1 -7.5 1t-10.5 6.5t-8 5.5l-108 93l-109 -94q-18 -14 -28 -12l-3 1q-13 6 -3 16z" />
    <glyph glyph-name="Ydieresis" unicode="&#x178;" horiz-adv-x="586" 
d="M424 700h129v-14q-23 0 -41.5 -18.5t-55.5 -70.5l-130 -193v-301q0 -29 13 -59t35 -30v-14h-166v14q22 0 35 30t13 59v265l-143 229q-3 5 -8 14q-16 28 -24 40.5t-21 23.5t-27 11v14h179v-14q-25 0 -32 -18t12 -53l118 -186l115 168q18 26 23.5 46.5t-1 31.5t-23.5 11v14
zM227 774q-17 0 -28.5 11.5t-11.5 27.5q0 17 11.5 29t28.5 12q16 0 27.5 -12t11.5 -29q0 -16 -11.5 -27.5t-27.5 -11.5zM397 774q-17 0 -28.5 12t-11.5 28t11.5 28t28.5 12t28.5 -12t11.5 -28t-11.5 -28t-28.5 -12z" />
    <glyph glyph-name="Zacute" unicode="&#x179;" horiz-adv-x="623" 
d="M345 41q204 0 204 56h14l-9 -97h-495q0 74 33 150t86.5 143t109.5 126.5t114 125t87 114.5h-212q-77 0 -111.5 -11.5t-34.5 -44.5h-14l8 97h457q0 -38 -45.5 -98.5t-110 -127.5t-129.5 -138.5t-110.5 -150.5t-45.5 -144h204zM273 753l-5 2q-10 6 1 15l150 145
q14 11 22 -2l15 -28q7 -13 -10 -25l-153 -102q-13 -9 -20 -5z" />
    <glyph glyph-name="zacute" unicode="&#x17a;" horiz-adv-x="514" 
d="M329 36q95 0 110 55h14l-17 -91h-395q7 51 48 108l256 328q25 33 27 62h-132q-49 0 -91 -13.5t-50 -40.5h-14l16 91h362q-2 -45 -47 -108l-257 -329q-28 -41 -30 -62h200zM208 588l-5 2q-10 6 1 15l150 145q14 11 22 -2l15 -28q7 -13 -10 -25l-153 -102q-13 -9 -20 -5z
" />
    <glyph glyph-name="Zdotaccent" unicode="&#x17b;" horiz-adv-x="623" 
d="M345 41q204 0 204 56h14l-9 -97h-495q0 74 33 150t86.5 143t109.5 126.5t114 125t87 114.5h-212q-77 0 -111.5 -11.5t-34.5 -44.5h-14l8 97h457q0 -38 -45.5 -98.5t-110 -127.5t-129.5 -138.5t-110.5 -150.5t-45.5 -144h204zM350 769q-17 0 -29 12t-12 29t12 29.5
t29 12.5t29 -12.5t12 -29.5t-12 -29t-29 -12z" />
    <glyph glyph-name="zdotaccent" unicode="&#x17c;" horiz-adv-x="514" 
d="M329 36q95 0 110 55h14l-17 -91h-395q7 51 48 108l256 328q25 33 27 62h-132q-49 0 -91 -13.5t-50 -40.5h-14l16 91h362q-2 -45 -47 -108l-257 -329q-28 -41 -30 -62h200zM282 604q-17 0 -29 12t-12 29t12 29.5t29 12.5t29 -12.5t12 -29.5t-12 -29t-29 -12z" />
    <glyph glyph-name="Zcaron" unicode="&#x17d;" horiz-adv-x="623" 
d="M345 41q204 0 204 56h14l-9 -97h-495q0 74 33 150t86.5 143t109.5 126.5t114 125t87 114.5h-212q-77 0 -111.5 -11.5t-34.5 -44.5h-14l8 97h457q0 -38 -45.5 -98.5t-110 -127.5t-129.5 -138.5t-110.5 -150.5t-45.5 -144h204zM207 902q-10 10 3 16l3 1q10 2 28 -12
l109 -94l108 93q2 1 8 5.5t10.5 6.5t7.5 1l5 -2q13 -5 4 -16l-132 -140q-4 -4 -11 -4t-11 4z" />
    <glyph glyph-name="zcaron" unicode="&#x17e;" horiz-adv-x="514" 
d="M329 36q95 0 110 55h14l-17 -91h-395q7 51 48 108l256 328q25 33 27 62h-132q-49 0 -91 -13.5t-50 -40.5h-14l16 91h362q-2 -45 -47 -108l-257 -329q-28 -41 -30 -62h200zM142 737q-10 10 3 16l3 1q10 2 28 -12l109 -94l108 93q2 1 8 5.5t10.5 6.5t7.5 1l5 -2
q13 -5 4 -16l-132 -140q-4 -4 -11 -4t-11 4z" />
    <glyph glyph-name="florin" unicode="&#x192;" horiz-adv-x="635" 
d="M498 705q44 0 77.5 -20.5t33.5 -62.5q0 -22 -9.5 -41t-32.5 -19q-10 0 -16 5t-7 9l-1 5q6 27 6 44q0 24 -17 39.5t-40 15.5q-40 0 -75 -41t-53 -125l-33 -153h132l-10 -24h-126l-54 -249q-4 -27 -15 -64t-33 -90.5t-61.5 -89t-88.5 -35.5q-44 0 -76.5 25t-32.5 71
q0 24 13 40.5t34 16.5q10 0 16 -6t7 -12v-7q-1 -3 -3 -8.5t-3.5 -12t-1.5 -14.5q0 -22 14.5 -43t40.5 -21q30 0 59 34.5t39 79.5l85 385h-62l5 24h61q1 7 2.5 19.5t9.5 48t18 68t29 72.5t41 68.5t55.5 48t72.5 19.5z" />
    <glyph glyph-name="uni0218" unicode="&#x218;" horiz-adv-x="571" 
d="M152 560q0 -40 37 -80t89.5 -73.5l105 -67t89.5 -74t37 -81.5q0 -82 -69 -141t-187 -59q-78 0 -140.5 51.5t-62.5 111.5q0 25 7.5 46t18 32.5t21 19.5t18.5 11l7 3q-12 -24 -14 -56t7.5 -64.5t28.5 -60t53.5 -45t78.5 -17.5q71 0 116.5 43t45.5 93q0 43 -36 80.5t-87 67
t-102 61t-87 78t-36 103.5q0 79 52 122t143 43q47 0 87 -12.5t64.5 -32t38.5 -42.5t12.5 -46t-17.5 -40q-9 -10 -22 -10t-21 5l-9 5q0 12 -6.5 33t-20.5 47.5t-42 45.5t-64 19q-55 0 -94.5 -31.5t-39.5 -87.5zM280 -40q23 0 35.5 -21t12.5 -52t-13.5 -61.5t-48.5 -57
t-85 -30.5v13q43 0 81.5 35t20.5 77q-3 6 -24.5 22t-21.5 33q0 21 13 31.5t30 10.5z" />
    <glyph glyph-name="uni0219" unicode="&#x219;" horiz-adv-x="486" 
d="M145 414q0 -33 29.5 -59.5t71.5 -46t83.5 -40.5t71 -54.5t29.5 -76.5q0 -71 -54.5 -107.5t-134.5 -36.5q-68 0 -126.5 45t-58.5 90q0 30 13 46.5t25 17.5l13 2q-16 -42 29 -102t122 -60q44 0 79 28.5t35 63.5q0 32 -29.5 56t-71 42.5t-83.5 39t-71.5 56.5t-29.5 85
q0 62 53.5 101.5t123.5 39.5q74 0 123.5 -48t20.5 -83q-10 -13 -22.5 -16.5t-19.5 -0.5l-7 2q0 13 -9 38.5t-35 52.5t-61 27q-50 0 -79.5 -32.5t-29.5 -69.5zM251 -20q23 0 35.5 -21.5t12.5 -51.5q0 -31 -13.5 -61.5t-48.5 -57t-85 -30.5v13q43 0 81.5 35t20.5 77
q-3 6 -24.5 22t-21.5 33q0 21 13 31.5t30 10.5z" />
    <glyph glyph-name="uni021A" unicode="&#x21a;" horiz-adv-x="598" 
d="M535 678l8 -136h-14q0 14 -2.5 28.5t-12 35t-24.5 36t-44 26.5t-67 11q-22 0 -33 -20t-11 -79v-477q0 -29 13 -59t35 -30v-14h-166v14q21 0 34.5 30.5t13.5 58.5v477q-1 59 -12 79t-33 20q-48 0 -80.5 -15.5t-46.5 -39.5t-19 -43.5t-5 -38.5h-14l9 136q0 22 20 22h431
q20 0 20 -22zM303 -21q23 0 35.5 -21.5t12.5 -51.5q0 -31 -13.5 -61.5t-48.5 -57t-85 -30.5v13q43 0 81.5 35t20.5 77q-3 6 -24.5 22t-21.5 33q0 21 13 31.5t30 10.5z" />
    <glyph glyph-name="uni021B" unicode="&#x21b;" horiz-adv-x="418" 
d="M313 101q13 18 28 18q31 0 31 -40q0 -31 -39.5 -57.5t-84.5 -26.5q-58 0 -101.5 40.5t-43.5 126.5v338h-52v25q16 0 28.5 13.5t21.5 37t16 52t14 61.5q3 13 4 20l38 42v-216h167l-10 -35h-162v-332q0 -66 23.5 -103.5t56.5 -37.5q34 0 49.5 25t15.5 49zM243 -21
q23 0 35.5 -21.5t12.5 -51.5q0 -31 -13.5 -61.5t-48.5 -57t-85 -30.5v13q43 0 81.5 35t20.5 77q-3 6 -24.5 22t-21.5 33q0 21 13 31.5t30 10.5z" />
    <glyph glyph-name="circumflex" unicode="&#x2c6;" horiz-adv-x="625" 
d="M170 605l132 141q4 4 11 4t11 -4l132 -140q9 -11 -4 -16l-5 -2q-3 -1 -7.5 1t-10.5 6.5t-8 5.5l-108 93l-109 -94q-18 -14 -28 -12l-3 1q-13 6 -3 16z" />
    <glyph glyph-name="caron" unicode="&#x2c7;" horiz-adv-x="607" 
d="M170 737q-10 10 3 16l3 1q10 2 28 -12l109 -94l108 93q2 1 8 5.5t10.5 6.5t7.5 1l5 -2q13 -5 4 -16l-132 -140q-4 -4 -11 -4t-11 4z" />
    <glyph glyph-name="breve" unicode="&#x2d8;" horiz-adv-x="606" 
d="M322 614q34 0 56.5 25.5t19.5 58.5h40q0 -45 -33 -75t-90 -30q-56 0 -89.5 30t-33.5 75h38q3 -33 31 -58.5t61 -25.5z" />
    <glyph glyph-name="dotaccent" unicode="&#x2d9;" horiz-adv-x="470" 
d="M237 604q-17 0 -29 12t-12 29t12 29.5t29 12.5t29 -12.5t12 -29.5t-12 -29t-29 -12z" />
    <glyph glyph-name="ring" unicode="&#x2da;" horiz-adv-x="365" 
d="M276 639q0 -36 -25 -61.5t-63 -25.5q-37 0 -62.5 25.5t-25.5 61.5t25.5 61t62.5 25q38 0 63 -25t25 -61zM136 639q4 -32 20 -52t38 -20q20 0 33 20.5t10 51.5q-2 32 -18.5 53t-38.5 21q-20 0 -32.5 -21t-11.5 -53z" />
    <glyph glyph-name="ogonek" unicode="&#x2db;" horiz-adv-x="616" 
d="M462 14h13q-26 -21 -41 -35t-29.5 -36.5t-14.5 -42.5q0 -47 39 -63t88 5l8 -12q-37 -28 -77 -28q-45 0 -70.5 24.5t-25.5 62.5q0 65 110 125z" />
    <glyph glyph-name="tilde" unicode="&#x2dc;" horiz-adv-x="576" 
d="M117 618v14q61 52 116 52q37 0 84 -27.5t77 -27.5q20 0 53 30l9 -15q-47 -50 -95 -50q-29 0 -74 27.5t-88 27.5q-39 0 -82 -31z" />
    <glyph glyph-name="hungarumlaut" unicode="&#x2dd;" horiz-adv-x="691" 
d="M208 589q-5 1 -6 6t4 9l134 126q4 5 11 4.5t11 -6.5l14 -25q3 -6 -0.5 -13.5t-8.5 -11.5l-129 -82q-19 -11 -27 -8zM370 590q-5 2 -5 6.5t5 8.5l142 136q4 5 11 4.5t11 -6.5l14 -27q3 -6 -0.5 -13.5t-8.5 -11.5l-137 -90q-20 -12 -27 -9z" />
    <glyph glyph-name="uni03A9" unicode="&#x3a9;" horiz-adv-x="865" 
d="M765 108h16l-11 -108h-273v15q33 14 78 64.5t82.5 133t37.5 162.5q0 133 -80 223.5t-188 90.5q-107 0 -182.5 -90t-75.5 -224q0 -68 33 -141.5t67.5 -118.5t86.5 -103v-12h-258l-11 108h16q0 -35 50 -55.5t146 -20.5q-85 67 -148 158.5t-63 184.5q0 150 101.5 246
t237.5 96q139 0 244 -96.5t105 -245.5q0 -81 -70 -192t-136 -151q92 0 143.5 21t51.5 55z" />
    <glyph glyph-name="pi" unicode="&#x3c0;" horiz-adv-x="636" 
d="M484 483l-7 -365q0 -62 41.5 -75t90.5 24v-11q-7 -7 -18.5 -18t-43 -29.5t-58.5 -18.5q-76 0 -76 136q0 72 10 209t11 150l-191 6h-3q-3 -9 -3 -17l-16 -300q0 -40 -11 -75t-26.5 -56t-31.5 -36.5t-27 -21.5l-11 -6l-33 25q38 15 64 103t35.5 187.5t9.5 198.5
q-31 -2 -68.5 -22.5t-49.5 -46.5l-33 19q2 4 7 11t24 24t41.5 30t61 22.5t82.5 8.5l259 -9q29 -1 54 16.5t26 42.5l27 -12q0 -4 -1 -10.5t-6.5 -23.5t-14 -29.5t-25 -23t-37.5 -9.5z" />
    <glyph glyph-name="uni1E02" unicode="&#x1e02;" horiz-adv-x="610" 
d="M259 769q-17 0 -29 12t-12 29t12 29.5t29 12.5t29 -12.5t12 -29.5t-12 -29t-29 -12zM549 268q0 -75 -61.5 -137t-160.5 -96.5t-210 -34.5h-74v14q24 0 36.5 15.5t12.5 40.5v541q0 27 -13 51t-36 24v14h257q173 0 173 -110q0 -41 -21.5 -71t-65.5 -63q57 -7 110 -61
t53 -127zM204 43q52 0 113.5 27t109.5 80t48 115q0 48 -33.5 90.5t-92.5 42.5q-73 0 -187 -78v-235q0 -29 9 -35.5t33 -6.5zM210 664q-48 0 -48 -45v-262q8 7 50 31.5t80.5 48.5t71 64t32.5 81q0 82 -125 82h-61z" />
    <glyph glyph-name="uni1E03" unicode="&#x1e03;" horiz-adv-x="545" 
d="M144 773v-238q81 10 159 -20.5t129.5 -97.5t51.5 -153q0 -120 -81 -197t-181 -77q-31 0 -79.5 10t-63.5 10v650q0 32 -13 51t-38 19v12zM206 26q76 0 138 61t62 170q0 113 -76.5 185.5t-185.5 58.5v-405q0 -70 62 -70zM262 784q-17 0 -29 12t-12 29t12 29.5t29 12.5
t29 -12.5t12 -29.5t-12 -29t-29 -12z" />
    <glyph glyph-name="uni1E0A" unicode="&#x1e0a;" horiz-adv-x="682" 
d="M53 700h243q131 0 210.5 -74.5t79.5 -173.5q0 -132 -75 -237.5t-189.5 -160t-239.5 -54.5h-29v14q24 0 36.5 15.5t12.5 39.5v533q0 28 -13.5 56t-35.5 28v14zM204 53q39 13 77 33t79.5 54.5t73 76.5t52 102.5t20.5 128.5q0 93 -57 154.5t-158 61.5h-71q-48 0 -48 -48
v-537q0 -38 32 -26zM276 769q-17 0 -29 12t-12 29t12 29.5t29 12.5t29 -12.5t12 -29.5t-12 -29t-29 -12z" />
    <glyph glyph-name="uni1E0B" unicode="&#x1e0b;" horiz-adv-x="566" 
d="M472 103q0 -38 18 -64.5t43 -26.5v-12h-63q-23 0 -43 13.5t-20 38.5q-14 -23 -48 -40.5t-65 -17.5q-114 0 -174 68.5t-60 174.5q0 84 49 154.5t118 107t137 36.5h43v104q0 26 -15.5 47.5t-39.5 21.5v12l120 30v-647zM297 42q40 0 71.5 19.5t38.5 41.5v397h-53
q-75 0 -147.5 -76t-72.5 -178q0 -53 13.5 -93t32.5 -60.5t44 -32.5t41.5 -15t31.5 -3zM302 768q-17 0 -29 12t-12 29t12 29.5t29 12.5t29 -12.5t12 -29.5t-12 -29t-29 -12z" />
    <glyph glyph-name="uni1E1E" unicode="&#x1e1e;" horiz-adv-x="531" 
d="M466 700q21 0 21 -23v-137h-14q0 55 -54.5 94.5t-159.5 39.5q-97 0 -97 -126v-188q196 0 196 58h14v-136h-14q0 57 -196 57v-238q0 -28 13.5 -57.5t34.5 -29.5v-14h-166v14q22 0 35.5 29t13.5 58v495q0 29 -13.5 59.5t-35.5 30.5v14h422zM268 769q-17 0 -29 12t-12 29
t12 29.5t29 12.5t29 -12.5t12 -29.5t-12 -29t-29 -12z" />
    <glyph glyph-name="uni1E1F" unicode="&#x1e1f;" horiz-adv-x="316" 
d="M230 753q49 0 87.5 -31t38.5 -69q0 -49 -40 -49q-8 0 -13.5 4.5t-7.5 9.5l-2 4q0 12 -2 25.5t-8 31.5t-20 30t-35 12q-31 0 -53.5 -34.5t-22.5 -76.5q0 -26 14 -82h131l-10 -28h-121v-397q0 -30 14 -60.5t37 -30.5v-12h-168v12q23 0 37 30.5t14 60.5v397h-59v28h59
q-8 48 -8 67q0 74 43 116t95 42zM231 789q-17 0 -29 12t-12 29t12 29.5t29 12.5t29 -12.5t12 -29.5t-12 -29t-29 -12z" />
    <glyph glyph-name="uni1E40" unicode="&#x1e40;" horiz-adv-x="833" 
d="M754 103q10 -89 49 -89v-14h-158v14q22 0 32 25.5t7 56.5l-59 545l-218 -641h-19q-39 45 -75 147l-158 402l-19 -446q-2 -51 4.5 -70t28.5 -19v-14h-119v14q40 0 48 89l38 507l-18 57q-7 19 -19 19v14h63q16 0 22 -11l228 -592l201 603h117v-14q-15 0 -22.5 -11.5
t-8 -31.5t1.5 -47zM409 731q-17 0 -29 12t-12 29t12 29.5t29 12.5t29 -12.5t12 -29.5t-12 -29t-29 -12z" />
    <glyph glyph-name="uni1E41" unicode="&#x1e41;" horiz-adv-x="916" 
d="M819 353v-248q0 -34 14 -63.5t37 -29.5v-12h-170v12q24 0 37.5 29.5t13.5 63.5v248q0 73 -32 105t-77 32t-85.5 -24.5t-54.5 -52.5l3 -42v-266q0 -34 14 -63.5t37 -29.5v-12h-167v12q23 0 37 30t14 63v248q0 72 -31.5 104.5t-74.5 32.5q-41 0 -93.5 -33.5t-73.5 -61.5
v-290q0 -35 13.5 -64t37.5 -29v-12h-167v12q23 0 37 31.5t14 61.5v328q0 30 -11.5 54t-34.5 24v12l101 12l10 -97q22 32 79 68t103 36q56 0 95.5 -30t49.5 -64q25 37 73 65.5t88 28.5q69 0 116.5 -49.5t47.5 -139.5zM499 604q-17 0 -29 12t-12 29t12 29.5t29 12.5t29 -12.5
t12 -29.5t-12 -29t-29 -12z" />
    <glyph glyph-name="uni1E56" unicode="&#x1e56;" horiz-adv-x="546" 
d="M506 553q0 -46 -34.5 -94.5t-91 -90t-109 -72t-109.5 -57.5v-136q0 -28 13.5 -58.5t34.5 -30.5v-14h-167v14q22 0 35.5 30t13.5 59v494q0 29 -13.5 59t-35.5 30v14h292q171 0 171 -147zM316 664h-86q-40 0 -54 -21t-14 -56v-313q100 55 182.5 134t82.5 146q0 44 -30.5 77
t-80.5 33zM257 769q-17 0 -29 12t-12 29t12 29.5t29 12.5t29 -12.5t12 -29.5t-12 -29t-29 -12z" />
    <glyph glyph-name="uni1E57" unicode="&#x1e57;" horiz-adv-x="548" 
d="M489 300q0 -83 -47.5 -152.5t-123.5 -106t-157 -29.5v-134q0 -35 13.5 -64t37.5 -29v-12h-166v12q23 0 37 31.5t14 61.5v569q0 29 -13.5 52.5t-37.5 23.5v12q66 0 103 0.5t43 0.5t11.5 0.5t15.5 0.5q121 0 195.5 -61.5t74.5 -175.5zM233 499q-63 0 -72 -53v-402
q100 -9 179.5 64t79.5 182q0 98 -50 153.5t-137 55.5zM249 604q-17 0 -29 12t-12 29t12 29.5t29 12.5t29 -12.5t12 -29.5t-12 -29t-29 -12z" />
    <glyph glyph-name="uni1E60" unicode="&#x1e60;" horiz-adv-x="571" 
d="M152 560q0 -40 37 -80t89.5 -73.5l105 -67t89.5 -74t37 -81.5q0 -82 -69 -141t-187 -59q-78 0 -140.5 51.5t-62.5 111.5q0 25 7.5 46t18 32.5t21 19.5t18.5 11l7 3q-12 -24 -14 -56t7.5 -64.5t28.5 -60t53.5 -45t78.5 -17.5q71 0 116.5 43t45.5 93q0 43 -36 80.5t-87 67
t-102 61t-87 78t-36 103.5q0 79 52 122t143 43q47 0 87 -12.5t64.5 -32t38.5 -42.5t12.5 -46t-17.5 -40q-9 -10 -22 -10t-21 5l-9 5q0 12 -6.5 33t-20.5 47.5t-42 45.5t-64 19q-55 0 -94.5 -31.5t-39.5 -87.5zM290 769q-17 0 -29 12t-12 29t12 29.5t29 12.5t29 -12.5
t12 -29.5t-12 -29t-29 -12z" />
    <glyph glyph-name="uni1E61" unicode="&#x1e61;" horiz-adv-x="486" 
d="M145 414q0 -33 29.5 -59.5t71.5 -46t83.5 -40.5t71 -54.5t29.5 -76.5q0 -71 -54.5 -107.5t-134.5 -36.5q-68 0 -126.5 45t-58.5 90q0 30 13 46.5t25 17.5l13 2q-16 -42 29 -102t122 -60q44 0 79 28.5t35 63.5q0 32 -29.5 56t-71 42.5t-83.5 39t-71.5 56.5t-29.5 85
q0 62 53.5 101.5t123.5 39.5q74 0 123.5 -48t20.5 -83q-10 -13 -22.5 -16.5t-19.5 -0.5l-7 2q0 13 -9 38.5t-35 52.5t-61 27q-50 0 -79.5 -32.5t-29.5 -69.5zM262 604q-17 0 -29 12t-12 29t12 29.5t29 12.5t29 -12.5t12 -29.5t-12 -29t-29 -12z" />
    <glyph glyph-name="uni1E6A" unicode="&#x1e6a;" horiz-adv-x="598" 
d="M535 678l8 -136h-14q0 14 -2.5 28.5t-12 35t-24.5 36t-44 26.5t-67 11q-22 0 -33 -20t-11 -79v-477q0 -29 13 -59t35 -30v-14h-166v14q21 0 34.5 30.5t13.5 58.5v477q-1 59 -12 79t-33 20q-48 0 -80.5 -15.5t-46.5 -39.5t-19 -43.5t-5 -38.5h-14l9 136q0 22 20 22h431
q20 0 20 -22zM304 769q-17 0 -29 12t-12 29t12 29.5t29 12.5t29 -12.5t12 -29.5t-12 -29t-29 -12z" />
    <glyph glyph-name="uni1E6B" unicode="&#x1e6b;" horiz-adv-x="418" 
d="M313 101q13 18 28 18q31 0 31 -40q0 -31 -39.5 -57.5t-84.5 -26.5q-58 0 -101.5 40.5t-43.5 126.5v338h-52v25q16 0 28.5 13.5t21.5 37t16 52t14 61.5q3 13 4 20l38 42v-216h167l-10 -35h-162v-332q0 -66 23.5 -103.5t56.5 -37.5q34 0 49.5 25t15.5 49zM142 769
q-17 0 -29 12t-12 29t12 29.5t29 12.5t29 -12.5t12 -29.5t-12 -29t-29 -12z" />
    <glyph glyph-name="Wgrave" unicode="&#x1e80;" horiz-adv-x="1028" 
d="M876 700h119v-14q-18 0 -28.5 -13.5t-24.5 -46.5q-2 -4 -3 -6.5t-2 -5.5l-194 -614h-27q-40 45 -74 147l-136 390l-142 -537h-42q-39 45 -74 147l-160 471q-13 36 -24.5 52t-30.5 16v14h162v-14q-49 0 -22 -89l182 -516l161 619h14l215 -619l152 516q28 89 -21 89v14z
M610 755l-5 -2q-7 -4 -20 5l-152 99q-17 12 -10 25l14 27q8 13 22 2l150 -141q11 -9 1 -15z" />
    <glyph glyph-name="wgrave" unicode="&#x1e81;" horiz-adv-x="885" 
d="M717 535h142v-12q-36 0 -72 -86q-99 -295 -134 -385q-5 -13 -7 -26t-2 -20l1 -6h-73q-12 10 -37 73l-95 296l-81 -317q-5 -13 -7 -26t-2 -20l1 -6h-67q-4 1 -10 4.5t-21 22t-26 46.5q-21 55 -43 115.5t-36 101t-28.5 81.5t-25.5 66.5t-22.5 46.5t-22.5 30t-23 9v12h175
v-12q-29 0 -36.5 -30.5t5.5 -65.5q139 -371 148 -386l133 494h14q39 -137 79 -260t61 -179.5t21 -54.5l119 376q7 19 9 45q4 61 -37 61v12zM528 590l-5 -2q-7 -4 -20 5l-152 99q-17 12 -10 25l5 10t6 11.5t6 8t9 4.5t10 -5l150 -141q11 -9 1 -15z" />
    <glyph glyph-name="Wacute" unicode="&#x1e82;" horiz-adv-x="1028" 
d="M876 700h119v-14q-18 0 -28.5 -13.5t-24.5 -46.5q-2 -4 -3 -6.5t-2 -5.5l-194 -614h-27q-40 45 -74 147l-136 390l-142 -537h-42q-39 45 -74 147l-160 471q-13 36 -24.5 52t-30.5 16v14h162v-14q-49 0 -22 -89l182 -516l161 619h14l215 -619l152 516q28 89 -21 89v14z
M455 753l-5 2q-10 6 1 15l150 145q14 11 22 -2l15 -28q7 -13 -10 -25l-153 -102q-13 -9 -20 -5z" />
    <glyph glyph-name="wacute" unicode="&#x1e83;" horiz-adv-x="885" 
d="M717 535h142v-12q-36 0 -72 -86q-99 -295 -134 -385q-5 -13 -7 -26t-2 -20l1 -6h-73q-12 10 -37 73l-95 296l-81 -317q-5 -13 -7 -26t-2 -20l1 -6h-67q-4 1 -10 4.5t-21 22t-26 46.5q-21 55 -43 115.5t-36 101t-28.5 81.5t-25.5 66.5t-22.5 46.5t-22.5 30t-23 9v12h175
v-12q-29 0 -36.5 -30.5t5.5 -65.5q139 -371 148 -386l133 494h14q39 -137 79 -260t61 -179.5t21 -54.5l119 376q7 19 9 45q4 61 -37 61v12zM384 588l-5 2q-10 6 1 15l150 145q14 11 22 -2l15 -28q7 -13 -10 -25l-153 -102q-13 -9 -20 -5z" />
    <glyph glyph-name="Wdieresis" unicode="&#x1e84;" horiz-adv-x="1028" 
d="M876 700h119v-14q-18 0 -28.5 -13.5t-24.5 -46.5q-2 -4 -3 -6.5t-2 -5.5l-194 -614h-27q-40 45 -74 147l-136 390l-142 -537h-42q-39 45 -74 147l-160 471q-13 36 -24.5 52t-30.5 16v14h162v-14q-49 0 -22 -89l182 -516l161 619h14l215 -619l152 516q28 89 -21 89v14z
M438 774q-17 0 -28.5 11.5t-11.5 27.5q0 17 11.5 29t28.5 12q16 0 27.5 -12t11.5 -29q0 -16 -11.5 -27.5t-27.5 -11.5zM608 774q-16 0 -28 12t-12 28t12 28t28 12t28 -12t12 -28t-12 -28t-28 -12z" />
    <glyph glyph-name="wdieresis" unicode="&#x1e85;" horiz-adv-x="885" 
d="M717 535h142v-12q-36 0 -72 -86q-99 -295 -134 -385q-5 -13 -7 -26t-2 -20l1 -6h-73q-12 10 -37 73l-95 296l-81 -317q-5 -13 -7 -26t-2 -20l1 -6h-67q-4 1 -10 4.5t-21 22t-26 46.5q-21 55 -43 115.5t-36 101t-28.5 81.5t-25.5 66.5t-22.5 46.5t-22.5 30t-23 9v12h175
v-12q-29 0 -36.5 -30.5t5.5 -65.5q139 -371 148 -386l133 494h14q39 -137 79 -260t61 -179.5t21 -54.5l119 376q7 19 9 45q4 61 -37 61v12zM536 609q-16 0 -28 11.5t-12 28.5t12 28.5t28 11.5t28 -11.5t12 -28.5t-12 -28.5t-28 -11.5zM366 609q-17 0 -28.5 11.5t-11.5 27.5
q0 17 11.5 29t28.5 12q16 0 27.5 -12t11.5 -29q0 -16 -11.5 -27.5t-27.5 -11.5z" />
    <glyph glyph-name="Ygrave" unicode="&#x1ef2;" horiz-adv-x="586" 
d="M424 700h129v-14q-23 0 -41.5 -18.5t-55.5 -70.5l-130 -193v-301q0 -29 13 -59t35 -30v-14h-166v14q22 0 35 30t13 59v265l-143 229q-3 5 -8 14q-16 28 -24 40.5t-21 23.5t-27 11v14h179v-14q-25 0 -32 -18t12 -53l118 -186l115 168q18 26 23.5 46.5t-1 31.5t-23.5 11v14
zM374 755l-5 -2q-7 -4 -20 5l-152 99q-17 12 -10 25l14 27q8 13 22 2l150 -141q11 -9 1 -15z" />
    <glyph glyph-name="ygrave" unicode="&#x1ef3;" horiz-adv-x="599" 
d="M437 535h136v-12q-32 0 -62 -86l-193 -534q-17 -46 -53 -88t-87 -42q-59 0 -101 36t-42 84q0 31 17.5 52.5t39.5 21.5q24 0 24 -28q0 -6 -5.5 -24.5t-5.5 -29.5q0 -30 22 -52.5t61 -22.5q17 0 33 9.5t27.5 23t20 27.5t13.5 24l4 9l37 100l-207 424q-52 96 -90 96v12h190
v-12q-27 -1 -34.5 -33.5t7.5 -62.5l164 -347l112 337q14 34 8.5 69t-36.5 37v12zM382 590l-5 -2q-7 -4 -20 5l-152 99q-17 12 -10 25l14 27q8 13 22 2l150 -141q11 -9 1 -15z" />
    <glyph glyph-name="endash" unicode="&#x2013;" horiz-adv-x="574" 
d="M82 283h410v-34h-410v34z" />
    <glyph glyph-name="emdash" unicode="&#x2014;" horiz-adv-x="844" 
d="M82 283h680v-34h-680v34z" />
    <glyph glyph-name="quoteleft" unicode="&#x2018;" horiz-adv-x="212" 
d="M94 499q-51 0 -51 80q0 48 33 96t89 54v-14q-31 -4 -59 -35.5t-16 -77.5q2 -8 23.5 -22.5t24.5 -32.5q3 -19 -9.5 -33.5t-34.5 -14.5z" />
    <glyph glyph-name="quoteright" unicode="&#x2019;" horiz-adv-x="222" 
d="M128 703q51 0 51 -80q0 -48 -33 -96t-89 -54v14q31 4 59 35.5t16 77.5q-2 8 -23.5 22.5t-24.5 32.5q-3 19 9.5 33.5t34.5 14.5z" />
    <glyph glyph-name="quotesinglbase" unicode="&#x201a;" horiz-adv-x="222" 
d="M128 116q51 0 51 -80q0 -48 -33 -96t-89 -54v14q31 4 59 35.5t16 77.5q-2 8 -23.5 22.5t-24.5 32.5q-3 19 9.5 33.5t34.5 14.5z" />
    <glyph glyph-name="quotedblleft" unicode="&#x201c;" horiz-adv-x="348" 
d="M93 499q-51 0 -51 80q0 48 33 96t89 54v-14q-31 -4 -59 -35.5t-16 -77.5q2 -8 23.5 -22.5t24.5 -32.5q3 -19 -9.5 -33.5t-34.5 -14.5zM230 499q-51 0 -51 80q0 48 33 96t89 54v-14q-31 -4 -59 -35.5t-16 -77.5q2 -8 23.5 -22.5t24.5 -32.5q3 -19 -9.5 -33.5t-34.5 -14.5z
" />
    <glyph glyph-name="quotedblright" unicode="&#x201d;" horiz-adv-x="359" 
d="M128 703q51 0 51 -80q0 -48 -33 -96t-89 -54v14q31 4 59 35.5t16 77.5q-2 8 -23.5 22.5t-24.5 32.5q-3 19 9.5 33.5t34.5 14.5zM265 703q51 0 51 -80q0 -48 -33 -96t-89 -54v14q31 4 59 35.5t16 77.5q-2 8 -23.5 22.5t-24.5 32.5q-3 19 9.5 33.5t34.5 14.5z" />
    <glyph glyph-name="quotedblbase" unicode="&#x201e;" horiz-adv-x="359" 
d="M128 117q51 0 51 -80q0 -48 -33 -96t-89 -54v14q31 4 59 35.5t16 77.5q-2 8 -23.5 22.5t-24.5 32.5q-3 19 9.5 33.5t34.5 14.5zM265 117q51 0 51 -80q0 -48 -33 -96t-89 -54v14q31 4 59 35.5t16 77.5q-2 8 -23.5 22.5t-24.5 32.5q-3 19 9.5 33.5t34.5 14.5z" />
    <glyph glyph-name="dagger" unicode="&#x2020;" horiz-adv-x="430" 
d="M380 506q9 0 9 -10t-9 -10l-42 -10q-12 0 -99 13h-16v-19q17 -83 17 -158l-15 -413q0 -8 -5 -11.5t-10 0t-5 11.5l-15 413q0 66 20 158v19h-18q-56 -13 -99 -13l-43 10q-8 0 -8 10t8 10l43 10q42 0 99 -12h18v22q-7 23 -13.5 74.5t-6.5 89.5l15 113q0 8 5 11.5t10 0
t5 -11.5l15 -113q0 -92 -17 -164v-22h16q54 12 99 12z" />
    <glyph glyph-name="daggerdbl" unicode="&#x2021;" horiz-adv-x="430" 
d="M380 184q9 0 9 -10t-9 -10l-42 -10q-6 0 -100 14h-16v-20q18 -36 18 -158l-15 -91q0 -8 -5 -11.5t-10 0t-5 11.5l-15 91q0 130 19 158v20h-16q-16 -2 -38 -6t-35.5 -6t-26.5 -2l-43 10q-8 0 -8 10t8 10l43 10q40 0 100 -13h16v20q-19 104 -19 151q0 46 20 147v20h-16
q-67 -13 -101 -13l-43 10q-8 0 -8 10t8 10l43 10q48 0 101 -13h16v21q-20 29 -20 156l15 93q0 8 5 11.5t10 0t5 -11.5l15 -93q0 -116 -18 -156v-21h15q58 13 101 13l42 -10q9 0 9 -10t-9 -10l-42 -10q-20 0 -101 13h-15v-20q18 -107 18 -147q0 -26 -18 -151v-20h16
q56 13 100 13z" />
    <glyph glyph-name="bullet" unicode="&#x2022;" horiz-adv-x="398" 
d="M273 290q0 -31 -21 -52.5t-54 -21.5q-32 0 -53 21.5t-21 52.5t21 52t53 21q33 0 54 -21t21 -52z" />
    <glyph glyph-name="ellipsis" unicode="&#x2026;" 
d="M342 -3q-17 0 -29 12t-12 28q0 17 12 28.5t29 11.5q16 0 27.5 -11.5t11.5 -28.5q0 -16 -11.5 -28t-27.5 -12zM125 -3q-17 0 -29 12t-12 28q0 17 12 28.5t29 11.5q16 0 27.5 -11.5t11.5 -28.5q0 -16 -11.5 -28t-27.5 -12zM558 -3q-17 0 -29 12t-12 28q0 17 12 28.5
t29 11.5q16 0 27.5 -11.5t11.5 -28.5q0 -16 -11.5 -28t-27.5 -12z" />
    <glyph glyph-name="perthousand" unicode="&#x2030;" horiz-adv-x="1142" 
d="M389 537q0 -73 -49.5 -123t-125.5 -50q-75 0 -124.5 50t-49.5 123q0 72 49.5 122t124.5 50q76 0 125.5 -50t49.5 -122zM544 336q76 0 125.5 -50t49.5 -122q0 -73 -49.5 -123t-125.5 -50q-75 0 -124.5 50t-49.5 123q0 72 49.5 122t124.5 50zM601 700h26l-471 -700h-35z
M103 537q5 -65 42 -109t83 -44q47 0 75.5 43.5t23.5 109.5q-5 65 -42 108.5t-85 43.5q-47 0 -74.5 -43t-22.5 -109zM556 12q46 0 74.5 43t23.5 109q-5 65 -41.5 108t-84.5 43q-47 0 -74.5 -43t-22.5 -108q5 -66 41.5 -109t83.5 -43zM921 336q76 0 125.5 -50t49.5 -122
q0 -73 -49.5 -123t-125.5 -50q-75 0 -124.5 50t-49.5 123q0 72 49.5 122t124.5 50zM933 12q46 0 74.5 43t23.5 109q-5 65 -41.5 108t-84.5 43q-47 0 -74.5 -43t-22.5 -108q5 -66 41.5 -109t83.5 -43z" />
    <glyph glyph-name="guilsinglleft" unicode="&#x2039;" horiz-adv-x="433" 
d="M318 535l-216 -209l218 -211h-42l-201 195v31l203 194h38z" />
    <glyph glyph-name="guilsinglright" unicode="&#x203a;" horiz-adv-x="433" 
d="M331 326l-216 209h38l203 -194v-31l-211 -195h-32z" />
    <glyph glyph-name="fraction" unicode="&#x2044;" horiz-adv-x="222" 
d="M332 700h31l-468 -700h-30z" />
    <glyph glyph-name="zerosuperior" unicode="&#x2070;" horiz-adv-x="365" 
d="M183 783q62 0 106 -53t44 -127q0 -75 -44 -128.5t-106 -53.5t-106.5 53.5t-44.5 128.5q0 74 44.5 127t106.5 53zM195 450q39 0 65.5 43t22.5 110q-4 66 -36 109t-72 43q-39 0 -67 -43.5t-24 -108.5q4 -66 37.5 -109.5t73.5 -43.5z" />
    <glyph glyph-name="foursuperior" unicode="&#x2074;" horiz-adv-x="283" 
d="M211 484q0 -15 8.5 -32t20.5 -17v-12h-94v12q12 0 21 17t9 32v16h-147q1 35 64 139.5t63 133.5h47q-9 -42 -69 -132.5t-70 -114.5h112v132q9 0 17.5 4t12.5 8l5 3v-147h30q0 -4 -1 -7t-2 -4.5t-4.5 -6t-6.5 -8.5h-16v-16z" />
    <glyph glyph-name="fivesuperior" unicode="&#x2075;" horiz-adv-x="302" 
d="M138 672q60 0 92.5 -39t32.5 -79q0 -47 -37.5 -90t-89.5 -43q-36 0 -66 18.5t-33 56.5q-1 18 7 32.5t23 14.5q8 0 15 -4.5t10 -8.5l3 -4q-12 -15 -12 -37q0 -20 15.5 -35t35.5 -15q33 0 56.5 32.5t23.5 70.5q0 42 -20 71t-64 29q-4 0 -29.5 -1.5t-30.5 -1.5
q-12 10 -12.5 32t4.5 56.5t5 49.5q16 -3 50 -3.5t72.5 1t41.5 1.5l6 -64h-13q-4 28 -67 28h-58q0 -7 -4.5 -31.5t-4.5 -41.5q5 0 22 2.5t26 2.5z" />
    <glyph glyph-name="sixsuperior" unicode="&#x2076;" horiz-adv-x="320" 
d="M161 656q51 0 84.5 -34t33.5 -83t-34 -83.5t-84 -34.5q-52 0 -88.5 33t-36.5 85q0 76 50.5 140.5t122.5 111.5l4 -13q-20 -18 -47.5 -54.5t-45.5 -72.5q25 5 41 5zM165 440q30 0 48 28.5t18 69.5q0 39 -24 68t-53 29q-19 0 -43 -8q-24 -48 -24 -91q0 -39 23.5 -67.5
t54.5 -28.5z" />
    <glyph glyph-name="sevensuperior" unicode="&#x2077;" horiz-adv-x="264" 
d="M116 737q-77 0 -81 -28h-9l6 64h213q0 -29 -32 -96.5t-64 -140t-32 -113.5h-57q11 47 77.5 171t66.5 143h-88z" />
    <glyph glyph-name="eightsuperior" unicode="&#x2078;" horiz-adv-x="325" 
d="M191 620q29 -18 45.5 -29t33 -31t16.5 -39q0 -42 -36.5 -71t-93.5 -29q-45 0 -78.5 27.5t-33.5 58.5q0 33 29 60t66 40q-26 18 -36.5 25.5t-24.5 26.5t-14 39q0 39 29 61.5t74 22.5q47 0 76 -23.5t29 -49.5q0 -54 -81 -89zM163 445q27 0 47.5 18.5t20.5 41.5
q0 27 -20 48.5t-59 45.5q-23 -12 -41.5 -36t-18.5 -50q0 -33 24.5 -50.5t46.5 -17.5zM165 760q-19 0 -36.5 -14t-17.5 -34q0 -26 17 -45.5t51 -40.5q38 28 46 55t-8 53t-52 26z" />
    <glyph glyph-name="ninesuperior" unicode="&#x2079;" horiz-adv-x="321" 
d="M155 540q-51 0 -85.5 34.5t-34.5 83.5q0 48 34.5 82.5t85.5 34.5q52 0 86.5 -32.5t34.5 -84.5q0 -77 -49 -142t-120 -111l-4 11q53 49 93 131q-23 -7 -41 -7zM152 755q-29 0 -47 -27t-18 -67t24 -70.5t53 -30.5q13 0 40 9q18 38 18 92q0 39 -21 66.5t-49 27.5z" />
    <glyph glyph-name="plus.superior" unicode="&#x207a;" horiz-adv-x="336" 
d="M45 635h108v114h29v-114h103v-30h-103v-110h-29v110h-108v30z" />
    <glyph glyph-name="n.superior" unicode="&#x207f;" horiz-adv-x="400" 
d="M335 652v-161q0 -24 8.5 -42t24.5 -18v-8h-110v8q15 0 24 18.5t9 41.5v161q0 89 -70 89q-34 0 -65.5 -21t-44.5 -40v-189q0 -21 9 -40.5t24 -19.5v-8h-110v8q16 0 25 19t9 41v217q0 46 -30 46v8l66 9l7 -64q18 25 52 46.5t66 21.5q106 0 106 -123z" />
    <glyph glyph-name="zeroinferior" unicode="&#x2080;" horiz-adv-x="365" 
d="M183 260q62 0 106 -53t44 -127q0 -75 -44 -128.5t-106 -53.5t-106.5 53.5t-44.5 128.5q0 74 44.5 127t106.5 53zM195 -73q39 0 65.5 43t22.5 110q-4 66 -36 109t-72 43q-39 0 -67 -43.5t-24 -108.5q4 -66 37.5 -109.5t73.5 -43.5z" />
    <glyph glyph-name="oneinferior" unicode="&#x2081;" horiz-adv-x="210" 
d="M130 256v-294q0 -15 9 -32t21 -17v-13h-101v13q12 0 21.5 17.5t9.5 31.5l-2 213q0 18 -1 25t-7 12.5t-19 5.5v12z" />
    <glyph glyph-name="twoinferior" unicode="&#x2082;" horiz-adv-x="320" 
d="M78 -63h97q74 0 78 28h13l-5 -65h-222q0 37 19 69t46 54.5t54 43.5t46 45t19 50q0 23 -17.5 46.5t-48.5 23.5q-26 0 -43.5 -22.5t-17.5 -52.5q0 -37 -19 -37q-29 0 -29 37q0 36 32.5 67.5t79.5 31.5q51 0 79 -28t28 -71q0 -33 -29.5 -66.5t-65 -56.5t-65 -49.5
t-29.5 -47.5z" />
    <glyph glyph-name="threeinferior" unicode="&#x2083;" horiz-adv-x="306" 
d="M155 130q56 -9 84 -41t28 -71q0 -43 -40 -82.5t-91 -39.5q-38 0 -68 22.5t-30 55.5q-1 16 8.5 30.5t22.5 14.5q8 0 14.5 -4.5t8.5 -8.5l3 -5q-10 -13 -10 -40q0 -15 15 -28t37 -13q30 0 54 30t24 62q0 45 -28.5 74t-80.5 29l11 20q30 18 56 43t26 40h-57q-61 0 -65 -28
h-14l4 62h178q0 -19 -6 -35.5t-18.5 -30.5t-21.5 -22t-25 -19.5t-19 -14.5z" />
    <glyph glyph-name="fourinferior" unicode="&#x2084;" horiz-adv-x="283" 
d="M211 -39q0 -15 8.5 -32t20.5 -17v-12h-94v12q12 0 21 17t9 32v16h-147q1 35 64 139.5t63 133.5h47q-9 -42 -69 -132.5t-70 -114.5h112v132q9 0 17.5 3.5t12.5 7.5l5 4v-147h30q0 -4 -1 -7t-2 -4.5t-4.5 -6t-6.5 -8.5h-16v-16z" />
    <glyph glyph-name="fiveinferior" unicode="&#x2085;" horiz-adv-x="302" 
d="M138 149q60 0 92.5 -39t32.5 -79q0 -47 -37.5 -90t-89.5 -43q-36 0 -66 18.5t-33 56.5q-1 18 7 32.5t23 14.5q8 0 15 -4t10 -8l3 -5q-12 -15 -12 -37q0 -20 15.5 -35t35.5 -15q33 0 56.5 32.5t23.5 70.5q0 43 -20 71.5t-64 28.5q-4 0 -29.5 -1.5t-30.5 -1.5
q-12 10 -12.5 32t4.5 56.5t5 49.5q16 -3 50 -3.5t72.5 1t41.5 1.5l6 -64h-13q-4 28 -67 28h-58q0 -7 -4.5 -31.5t-4.5 -41.5q5 0 22 2.5t26 2.5z" />
    <glyph glyph-name="sixinferior" unicode="&#x2086;" horiz-adv-x="320" 
d="M161 133q51 0 84.5 -34t33.5 -83t-34 -83.5t-84 -34.5q-52 0 -88.5 33t-36.5 85q0 76 50.5 140.5t122.5 111.5l4 -13q-20 -18 -47.5 -54.5t-45.5 -72.5q25 5 41 5zM165 -83q30 0 48 28.5t18 69.5q0 39 -24 68t-53 29q-19 0 -43 -8q-24 -48 -24 -91q0 -39 23.5 -67.5
t54.5 -28.5z" />
    <glyph glyph-name="seveninferior" unicode="&#x2087;" horiz-adv-x="264" 
d="M116 214q-77 0 -81 -28h-9l6 64h213q0 -29 -32 -96.5t-64 -140t-32 -113.5h-57q11 47 77.5 171t66.5 143h-88z" />
    <glyph glyph-name="eightinferior" unicode="&#x2088;" horiz-adv-x="325" 
d="M191 97q29 -18 45.5 -29t33 -31t16.5 -39q0 -42 -36.5 -71t-93.5 -29q-45 0 -78.5 27.5t-33.5 58.5q0 33 29 60t66 40q-26 18 -36.5 25.5t-24.5 26.5t-14 39q0 39 29 61.5t74 22.5q47 0 76 -23.5t29 -49.5q0 -54 -81 -89zM163 -78q27 0 47.5 18.5t20.5 41.5
q0 27 -20 48.5t-59 45.5q-23 -12 -41.5 -36t-18.5 -50q0 -33 24.5 -50.5t46.5 -17.5zM165 237q-19 0 -36.5 -14t-17.5 -34q0 -26 17 -45.5t51 -40.5q38 28 46 55t-8 53t-52 26z" />
    <glyph glyph-name="nineinferior" unicode="&#x2089;" horiz-adv-x="321" 
d="M155 17q-51 0 -85.5 34.5t-34.5 83.5q0 48 34.5 82.5t85.5 34.5q52 0 86.5 -32.5t34.5 -84.5q0 -77 -49 -142t-120 -111l-4 11q53 49 93 131q-23 -7 -41 -7zM152 232q-29 0 -47 -27t-18 -67t24 -70.5t53 -30.5q13 0 40 9q18 38 18 92q0 39 -21 66.5t-49 27.5z" />
    <glyph glyph-name="Euro" unicode="&#x20ac;" horiz-adv-x="634" 
d="M540 160h22l-21 -109q-9 -18 -52.5 -38.5t-110.5 -20.5q-101 0 -180 80.5t-97 192.5h-55l-3 13l10 17h41q-3 24 -3 80h-35l-3 12l10 17h32q12 122 100.5 213t194.5 91q102 0 143 -54l21 -89h-22q-9 46 -52.5 80.5t-100.5 32.5q-68 0 -135 -79.5t-77 -194.5h323l-6 -29
h-319q-2 -41 2 -80h314l-7 -30h-300q19 -101 82.5 -171t141.5 -70q55 0 91.5 42.5t50.5 93.5z" />
    <glyph glyph-name="trademark" unicode="&#x2122;" horiz-adv-x="514" 
d="M209 708q6 0 6 -7l1 -41h-3q0 16 -14 27t-37 11q-9 0 -9 -40v-92q0 -8 5.5 -17.5t12.5 -9.5v-4h-63v4q6 0 11.5 9.5t5.5 17.5v92q0 40 -9 40q-23 0 -37 -11t-14 -27h-3l2 41q0 7 6 7h139zM438 566q3 -27 17 -27v-4h-59v4q6 0 10.5 8t3.5 17l-19 127l-58 -156h-12
q-12 14 -23 44l-33 84l-8 -97q0 -27 14 -27v-4h-44v4q7 0 12.5 8t6.5 19l14 118l-4 11q-7 10 -9 10v3h26q4 0 7 -3l56 -136l53 139h41v-5q-10 0 -8 -29z" />
    <glyph glyph-name="Omega" unicode="&#x2126;" horiz-adv-x="865" 
d="M765 108h16l-11 -108h-273v15q33 14 78 64.5t82.5 133t37.5 162.5q0 133 -80 223.5t-188 90.5q-107 0 -182.5 -90t-75.5 -224q0 -68 33 -141.5t67.5 -118.5t86.5 -103v-12h-258l-11 108h16q0 -35 50 -55.5t146 -20.5q-85 67 -148 158.5t-63 184.5q0 150 101.5 246
t237.5 96q139 0 244 -96.5t105 -245.5q0 -81 -70 -192t-136 -151q92 0 143.5 21t51.5 55z" />
    <glyph glyph-name="partialdiff" unicode="&#x2202;" horiz-adv-x="626" 
d="M269 788q67 0 121.5 -47.5t85.5 -122t47.5 -156t16.5 -158.5q0 -66 -28.5 -135.5t-84.5 -119.5t-123 -50q-97 0 -167 65t-70 175q0 94 72 166t171 72q68 0 148 -46q-6 48 -18 97t-33 100t-56 83t-77 32q-40 0 -61 -43q-11 0 -21.5 8.5t-10.5 21.5q0 24 26.5 41t61.5 17z
M265 34q61 0 109 55.5t69.5 123t21.5 122.5q0 26 -3 55q-42 34 -83 46q-48 16 -92 0t-77.5 -50.5t-53.5 -85t-20 -103.5q0 -63 39.5 -113t89.5 -50z" />
    <glyph glyph-name="Delta" unicode="&#x2206;" horiz-adv-x="692" 
d="M338 700l285 -661v-39h-567v39l261 661h21zM310 590l-214 -551h449z" />
    <glyph glyph-name="product" unicode="&#x220f;" horiz-adv-x="652" 
d="M582 700v-13q-24 0 -37.5 -23.5t-13.5 -51.5v-577q0 -30 14 -62.5t37 -32.5v-13h-160v13q23 0 37 32.5t14 62.5v590q0 13 -8 23t-21 10h-238q-29 0 -29 -33v-590q0 -30 14 -62.5t37 -32.5v-13h-160v13q23 0 37 32.5t14 62.5v577q0 28 -13.5 51.5t-37.5 23.5v13h514z" />
    <glyph glyph-name="summation" unicode="&#x2211;" horiz-adv-x="596" 
d="M331 670h-184l196 -356l-236 -370h219q186 0 186 119h13v-141q0 -22 -21 -22h-463v8l238 375l-229 404v13h454q21 0 21 -23v-117h-13q0 29 -5.5 46t-23 33.5t-55 23.5t-97.5 7z" />
    <glyph glyph-name="minus" unicode="&#x2212;" horiz-adv-x="528" 
d="M86 290h342v-38h-342v38z" />
    <glyph glyph-name="radical" unicode="&#x221a;" horiz-adv-x="678" 
d="M406 -123h-14l-260 566l-75 -58l-13 19l122 95l232 -550l198 1005l27 -8z" />
    <glyph glyph-name="infinity" unicode="&#x221e;" horiz-adv-x="566" 
d="M264 345q56 89 119 89q53 0 87 -37.5t34 -103.5q0 -44 -32.5 -80t-70.5 -36q-44 0 -80 25t-50 64q-26 -34 -51 -51t-63 -17q-47 0 -72.5 32t-25.5 78q0 49 31 81t64 32q27 0 48.5 -11.5t32 -24.5t29.5 -40zM481 305q0 38 -23.5 61t-53.5 23q-18 0 -34.5 -8.5t-34.5 -29
t-27 -32.5t-28 -39q14 -26 44 -45.5t64 -19.5q44 0 68.5 28.5t24.5 61.5zM82 306q0 -31 16 -52t42 -21q22 0 45 17.5t36 34t35 48.5q-11 14 -33.5 30t-40.5 20q-36 10 -68 -9.5t-32 -67.5z" />
    <glyph glyph-name="integral" unicode="&#x222b;" horiz-adv-x="471" 
d="M362 903q25 0 46.5 -15t21.5 -37q0 -17 -10.5 -27.5t-26.5 -10.5q-7 0 -22 25.5t-29 25.5q-22 0 -38 -15t-24.5 -41.5t-13.5 -55.5t-6 -65t-0.5 -62.5t1.5 -54.5t1 -34v-242q0 -82 -9 -158.5t-26 -142.5t-46.5 -105.5t-66.5 -39.5q-24 0 -44.5 16t-20.5 38q0 15 9 28
t31 14q7 0 21 -26.5t34 -26.5q15 0 25.5 16t16.5 46t9.5 61.5t4.5 75t1 74t-0.5 71.5t-0.5 54v56v114v77q0 58 7 115t23.5 117t50.5 97.5t81 37.5z" />
    <glyph glyph-name="approxequal" unicode="&#x2248;" horiz-adv-x="726" 
d="M113 161v15q80 47 153 47q58 0 142 -34t121 -34q20 0 66 24l9 -13q-63 -43 -126 -43q-45 0 -122.5 36.5t-132.5 36.5q-47 0 -110 -35zM107 334v15q80 47 153 47q58 0 142 -34t121 -34q20 0 66 24l9 -13q-63 -43 -126 -43q-45 0 -122.5 36.5t-132.5 36.5q-47 0 -110 -35z
" />
    <glyph glyph-name="notequal" unicode="&#x2260;" horiz-adv-x="562" 
d="M102 410h209l89 226h29l-90 -226h113v-43h-129l-59 -148h188v-41h-204l-70 -178h-26l69 178h-119v41h135l58 148h-193v43z" />
    <glyph glyph-name="lessequal" unicode="&#x2264;" horiz-adv-x="505" 
d="M411 488l-286 -131l289 -132l-16 -36l-318 152v31l316 153zM87 136h320v-33h-320v33z" />
    <glyph glyph-name="greaterequal" unicode="&#x2265;" horiz-adv-x="505" 
d="M383 357l-287 131l15 36l317 -152v-31l-318 -151l-16 36zM101 136h320v-33h-320v33z" />
    <glyph glyph-name="lozenge" unicode="&#x25ca;" horiz-adv-x="604" 
d="M321 803l213 -435l-216 -446h-32l-216 446l213 435h38zM305 -56l194 424l-197 414l-197 -414z" />
    <glyph glyph-name="A.alt" unicode="&#xe000;" horiz-adv-x="655" 
d="M363 662l198 -559q10 -28 18 -45t21 -30.5t29 -13.5v-14h-178v14q15 0 25.5 7.5t15.5 30t-10 62.5q-37 45 -117.5 102.5t-161.5 95.5l-75 -216q-28 -82 35 -82v-14h-137v14q22 0 36.5 23t30.5 66l79 220q-67 31 -121 31q-43 0 -62.5 -24.5t-19.5 -56.5q-23 -6 -41 5
t-18 36q0 40 36.5 65t90.5 25q68 0 149 -39l107 300q-9 23 -19 23v12h43q23 0 31 -8.5t15 -29.5zM214 350q86 -47 160 -98.5t89 -81.5l-144 426q-2 10 -10 10t-10 -9z" />
    <glyph glyph-name="C_A" unicode="&#xe001;" horiz-adv-x="1283" 
d="M388 678q-96 0 -172 -88.5t-76 -219.5q0 -71 18.5 -130t47.5 -96t64.5 -63t68.5 -36.5t61 -10.5q15 0 29 1.5t25.5 3t23.5 5.5t20 6.5t19.5 8.5t17 9t17 11t16 11.5t17 13t16.5 12.5l13 -11q-78 -110 -224 -115q-144 0 -237 109.5t-93 265.5q0 147 97 246.5t241 99.5
q98 0 152.5 -46.5t54.5 -101.5q0 -30 -13.5 -45.5t-33.5 -15.5q-10 0 -17.5 2t-10.5 4l-2 3q0 11 -1.5 26t-10 41.5t-22.5 47.5t-41.5 36.5t-64.5 15.5zM991 662l198 -559q10 -28 18 -45t21 -30.5t29 -13.5v-14h-178v14q15 0 25.5 7.5t15.5 30t-10 62.5q-37 45 -117.5 102.5
t-161.5 95.5l-75 -216q-28 -82 35 -82v-14h-137v14q22 0 36.5 23t30.5 66l79 220q-67 31 -121 31q-43 0 -62.5 -24.5t-19.5 -56.5q-23 -6 -41 5t-18 36q0 40 36.5 65t90.5 25q68 0 149 -39l107 300q-9 23 -19 23v12h43q23 0 31 -8.5t15 -29.5zM842 350q86 -47 160 -98.5
t89 -81.5l-144 426q-2 10 -10 10t-10 -9z" />
    <glyph glyph-name="C_H" unicode="&#xe002;" horiz-adv-x="1323" 
d="M388 678q-96 0 -172 -88.5t-76 -219.5q0 -71 18.5 -130t47.5 -96t64.5 -63t68.5 -36.5t61 -10.5q15 0 29 1.5t25.5 3t23.5 5.5t20 6.5t19.5 8.5t17 9t17 11t16 11.5t17 13t16.5 12.5l13 -11q-78 -110 -224 -115q-144 0 -237 109.5t-93 265.5q0 147 97 246.5t241 99.5
q98 0 152.5 -46.5t54.5 -101.5q0 -30 -13.5 -45.5t-33.5 -15.5q-10 0 -17.5 2t-10.5 4l-2 3q0 11 -1.5 26t-10 41.5t-22.5 47.5t-41.5 36.5t-64.5 15.5zM1263 686q-22 0 -35 -30.5t-13 -59.5v-493q0 -29 13 -59t35 -30v-14h-167v14q22 0 35 30t13 59v213q-60 39 -150 39
q-63 0 -187 -44v-208q0 -29 13.5 -59t34.5 -30v-14h-167v14q22 0 35.5 30t13.5 59v190q-89 -21 -109 -21q-101 0 -148 87l8 7q49 -66 122 -66q56 0 127 30v266q0 29 -13.5 59.5t-35.5 30.5v14h167v-14q-21 0 -34.5 -30.5t-13.5 -59.5v-238q114 42 182 42q94 0 155 -49v245
q0 29 -13 59.5t-35 30.5v14h167v-14z" />
    <glyph glyph-name="C_o" unicode="&#xe003;" horiz-adv-x="841" 
d="M419 738q-64 0 -128 -47.5t-107.5 -132.5t-43.5 -180q0 -108 35 -197.5t91.5 -145.5t123.5 -86.5t135 -30.5q65 0 142.5 35t131.5 89l11 -12q-124 -164 -308 -164q-84 0 -163.5 37t-141.5 101.5t-99.5 159.5t-37.5 203q0 172 106 290t256 118q99 0 156 -46t57 -100
q0 -64 -51 -64q-7 0 -13.5 2.5t-9.5 4.5l-3 2q0 14 -5 36t-18 53.5t-43 53t-73 21.5zM793 271q0 -98 -67 -166t-169 -68q-101 0 -168.5 68t-67.5 166q0 97 67.5 164t168.5 67q102 0 169 -67t67 -164zM389 268q9 -89 60 -147.5t120 -58.5q70 0 115 61.5t37 149.5
q-9 90 -55.5 145.5t-119.5 55.5q-69 0 -117 -60t-40 -146z" />
    <glyph glyph-name="O_C" unicode="&#xe004;" horiz-adv-x="1023" 
d="M408 712q93 0 180 -49q86 48 185 48q97 0 150.5 -47t53.5 -98q0 -64 -46 -64q-10 0 -17.5 2t-10.5 4l-3 3q0 23 -6.5 49t-20.5 54t-42.5 46t-66.5 18q-72 0 -131 -46q120 -89 120 -280q0 -72 -33 -154t-76 -119q60 -45 136 -45q14 0 27 1.5t23 2.5t22 5.5t19 6.5t19 8.5
t16.5 9t17 11.5t16 11.5t17 13t16.5 12.5l13 -11q-78 -110 -222 -115q-89 0 -175 51q-85 -50 -181 -50q-148 0 -248.5 105.5t-100.5 255.5t100.5 255t248.5 105zM445 25q55 0 117 38q-61 51 -96 128t-35 164q0 82 28.5 152t79.5 117q-77 56 -161 56q-112 0 -180 -98
t-57 -231q7 -77 42.5 -149.5t105 -124.5t156.5 -52zM510 360q0 -75 29.5 -145t70.5 -107q38 51 56.5 106t15.5 138q-5 148 -96 235q-76 -93 -76 -227z" />
    <glyph glyph-name="O_O" unicode="&#xe005;" horiz-adv-x="1167" 
d="M408 712q93 0 175 -46q82 46 176 46q148 0 248.5 -105t100.5 -255t-100.5 -255.5t-248.5 -105.5q-93 0 -176 48q-83 -48 -175 -48q-148 0 -248.5 105.5t-100.5 255.5t100.5 255t248.5 105zM786 25q117 0 185 96t58 231q-10 134 -96 231t-204 97q-26 0 -61 -10t-56 -25
q68 -49 104.5 -127.5t36.5 -165.5q0 -77 -33.5 -150.5t-88.5 -124.5q32 -23 76 -37.5t79 -14.5zM442 25q62 0 112 33q-62 51 -101 130t-39 164q0 82 31 154.5t88 121.5q-75 52 -158 52q-110 0 -178.5 -98.5t-55.5 -229.5q14 -138 98 -232.5t203 -94.5zM489 342
q4 -63 37.5 -129.5t79.5 -109.5q86 106 76 259q-5 63 -38.5 128.5t-80.5 110.5q-86 -102 -74 -259z" />
    <glyph glyph-name="K.alt" unicode="&#xe006;" horiz-adv-x="599" 
d="M426 596l-168 -189q17 -25 51 -80t61 -98t66 -95.5t72.5 -87.5t74 -59t77.5 -24v-16h-42q-47 0 -86.5 14t-67.5 34.5t-61 61.5t-56.5 76.5t-66 100t-77.5 113.5l-25 -25v-219q0 -29 13.5 -59t34.5 -30v-14h-167v14q22 0 35.5 30t13.5 59v493q0 29 -13.5 59.5t-35.5 30.5
v14h167v-14q-21 0 -34.5 -30.5t-13.5 -59.5v-236l199 236q53 62 38 83q-4 7 -16 7v14h151v-14q-30 0 -52.5 -17t-71.5 -73z" />
    <glyph glyph-name="R.alt" unicode="&#xe007;" horiz-adv-x="630" 
d="M358 326q45 -145 137.5 -256t187.5 -111v-12h-23q-62 0 -108.5 13t-81 34.5t-66.5 66.5t-56.5 92.5t-59.5 128.5q-37 -22 -127 -67v-112q0 -29 13.5 -59t34.5 -30v-14h-167v14q22 0 35.5 30t13.5 59v496q0 29 -13.5 58t-35.5 29v14h272q75 0 128 -43t53 -115
q0 -50 -39.5 -113t-97.5 -103zM161 604v-354q111 49 183 133t72 160q0 46 -33.5 83.5t-90.5 37.5h-73q-23 0 -40.5 -18t-17.5 -42z" />
    <glyph glyph-name="ampersand.alt" unicode="&#xe008;" horiz-adv-x="810" 
d="M603 433h132v-12q-39 0 -99 -91l-54 -82q77 -83 77 -170q0 -59 -43 -110.5t-103 -51.5q-27 0 -45 16t-18 41q69 -18 112 25.5t43 106.5q0 21 -16 49t-41 45q-72 -113 -132 -165.5t-139 -52.5q-53 0 -102 18.5t-85 62t-36 103.5q0 39 19.5 75.5t51 63t65.5 46t70 31.5
q-110 84 -110 171q0 67 57 111t127 44q77 0 122 -45t45 -98q0 -47 -41.5 -93t-92.5 -75q3 -2 50 -31t84.5 -55t59.5 -46l37 66q8 14 14 29t8.5 29.5t-1.5 23.5t-16 9v12zM523 216q-20 14 -104.5 63.5t-135.5 85.5q-54 -29 -105 -82t-51 -111q0 -70 50.5 -110t112.5 -40
q104 0 233 194zM215 570q0 -51 30.5 -83.5t102.5 -77.5q33 16 64 60.5t29 85.5q-2 48 -29 85.5t-82 37.5q-44 0 -79.5 -33t-35.5 -75z" />
    <glyph glyph-name="c_h" unicode="&#xe009;" horiz-adv-x="1135" 
d="M523 114l18 -21q-103 -99 -210 -99q-117 0 -194 84.5t-77 192.5q0 127 70.5 197.5t172.5 70.5q21 0 39 -3q-24 45 -24 100q0 148 212 148q29 0 70.5 -3t72 -5.5t33.5 -2.5v-345q29 39 84.5 76.5t109.5 37.5q73 0 107 -43t34 -146v-245q0 -34 12 -65t39 -31v-12h-166v12
q26 0 38.5 31.5t12.5 64.5v245q0 72 -26.5 102.5t-66.5 30.5q-46 0 -99.5 -39.5t-78.5 -71.5v-267q0 -35 11.5 -65.5t39.5 -30.5v-12h-167v12q19 0 31.5 18t16 38t3.5 40v593q0 29 -34 46t-77 17q-171 0 -171 -125q0 -55 35 -116q49 -18 77 -52.5t28 -57.5
q0 -22 -13.5 -32.5t-28.5 -10.5q-29 0 -58 40.5t-46 86.5q-13 8 -49 8q-61 0 -111.5 -57t-50.5 -152q0 -48 11.5 -92t35.5 -82.5t67 -61.5t100 -23q82 0 167 77z" />
    <glyph glyph-name="c_k" unicode="&#xe00a;" horiz-adv-x="1098" 
d="M523 115l18 -21q-104 -100 -210 -100q-119 0 -195 84.5t-76 202.5q0 116 70 187t174 71q20 0 38 -3q-24 56 -24 97q0 83 55.5 117t160.5 34q30 0 58 -1.5t62 -5t52 -4.5v-481l122 135q60 66 48 89q-4 7 -16 7v12h156v-12q-12 0 -22 -2t-18 -5t-20 -12t-20.5 -16.5
t-26.5 -25.5t-31 -32t-41 -44t-50 -53q151 -32 204 -212q18 -60 34.5 -84.5t46.5 -24.5v-12h-168v12q38 0 25 70q-16 79 -71 150q-51 67 -99 67l-53 -57v-134q0 -31 13.5 -63.5t37.5 -32.5v-12h-167v12q25 0 38 32t13 64v587q0 31 -30.5 50t-80.5 19q-171 0 -171 -124
q0 -49 35 -117q52 -22 78.5 -54.5t26.5 -56.5q0 -15 -10.5 -28.5t-32.5 -13.5q-28 0 -57 40.5t-46 86.5q-15 8 -51 8q-58 0 -109 -57.5t-51 -151.5q0 -124 60.5 -191.5t160.5 -67.5q38 0 83.5 25t76.5 53z" />
    <glyph glyph-name="c_t" unicode="&#xe00b;" horiz-adv-x="956" 
d="M523 114l18 -21q-103 -99 -210 -99q-119 0 -195 84.5t-76 202.5q0 116 70 187t174 71q20 0 38 -3q-24 55 -24 110q0 77 60 132.5t157 55.5q73 0 124.5 -50t51.5 -122v-127h167l-10 -35h-162v-332q0 -65 23.5 -103t54.5 -38q36 0 51.5 24.5t15.5 49.5q14 18 29 18
q12 0 21 -9.5t9 -28.5q0 -33 -39.5 -59.5t-80.5 -26.5q-64 0 -106.5 41.5t-42.5 125.5v338h-52v25q81 0 81 138q0 56 -39 101.5t-96 45.5q-77 0 -126.5 -50.5t-49.5 -120.5q0 -58 35 -116q52 -22 78.5 -54.5t26.5 -55.5q0 -16 -10.5 -29.5t-32.5 -13.5q-28 0 -57 40.5
t-46 86.5q-16 8 -48 8q-25 0 -52.5 -12.5t-53 -36.5t-41.5 -66t-16 -94q0 -114 56 -186.5t151 -72.5q89 0 174 77z" />
    <glyph glyph-name="e.alt" unicode="&#xe00c;" horiz-adv-x="599" 
d="M525 113l14 -15q-80 -103 -200 -103t-199.5 80t-79.5 196q0 113 65.5 193t184.5 80q87 0 150 -64.5t63 -146.5q0 -28 -22 -41t-62 -19l-300 -60q22 -81 86 -125.5t133 -44.5q47 0 92.5 21.5t74.5 48.5zM298 511q-61 0 -104.5 -46.5t-58 -107t-3.5 -111.5l329 66
q-2 93 -50.5 146t-112.5 53z" />
    <glyph glyph-name="g_i" unicode="&#xe015;" horiz-adv-x="849" 
d="M620 796q70 0 108 -38t38 -76q0 -27 -13.5 -47.5t-45.5 -20.5q-17 0 -31.5 13t-14.5 32q0 10 3.5 27.5t4.5 29t-2 24t-17 19t-39 6.5q-59 0 -120.5 -77t-61.5 -190q44 -29 70 -75t26 -97q0 -85 -64.5 -141.5t-157.5 -56.5q-24 0 -58 9t-55 22q-46 -35 -28 -67
q24 -42 148 -42q46 0 77 -2t65 -9t54.5 -19.5t33.5 -35t13 -53.5q0 -62 -75.5 -109.5t-161.5 -47.5q-40 0 -79 5.5t-75.5 17.5t-59 34t-22.5 51q0 30 18.5 46t37.5 17l18 1q-21 -58 27 -98.5t137 -40.5q67 0 111 32t44 82q0 24 -13.5 41t-30 25t-46 12t-45.5 4.5t-46 0.5
q-206 0 -206 81q0 47 66 100q-69 61 -69 141q0 86 64.5 146.5t155.5 60.5q58 0 105 -25q0 112 63.5 200t148.5 88zM313 161q60 0 101.5 45.5t35.5 124.5t-53.5 124.5t-106.5 45.5q-52 0 -94 -46t-36 -124q6 -80 50.5 -125t102.5 -45zM752 103q0 -29 16.5 -60t39.5 -31v-12
h-173v12q23 0 39.5 31t16.5 60v334q0 28 -12.5 49.5t-36.5 21.5v15l110 22v-442z" />
    <glyph glyph-name="g_j" unicode="&#xe016;" horiz-adv-x="835" 
d="M620 796q70 0 108 -38t38 -76q0 -27 -13.5 -47.5t-45.5 -20.5q-17 0 -31.5 13t-14.5 32q0 10 3.5 27.5t4.5 29t-2 24t-17 19t-39 6.5q-59 0 -121 -78t-62 -191q44 -29 69.5 -74.5t25.5 -95.5q0 -85 -63.5 -140.5t-156.5 -55.5q-24 0 -58.5 9t-54.5 21q-45 -35 -27 -67
q24 -43 147 -43q46 0 77 -2t65 -9t54.5 -19.5t33.5 -35t13 -53.5q0 -62 -75.5 -109.5t-161.5 -47.5q-40 0 -79 5.5t-75.5 17.5t-59 34t-22.5 51q0 30 18.5 46t37.5 17l18 1q-21 -58 27 -98.5t137 -40.5q67 0 111 32t44 82q0 24 -13.5 41t-30 25t-46 12t-45.5 4.5t-46 0.5
q-206 0 -206 81q0 47 67 101q-68 60 -68 140q0 85 64 145t154 60q56 0 104 -24q0 111 64.5 200t148.5 89zM312 162q60 0 101 45t35 124q-5 79 -52.5 123.5t-106.5 44.5q-51 0 -92.5 -45.5t-35.5 -122.5q6 -79 50 -124t101 -45zM760 545v-495q0 -132 -63 -214.5t-156 -82.5
v20q50 3 101.5 72t51.5 165v397q0 29 -19 66t-42 37v12z" />
    <glyph glyph-name="i_p" unicode="&#xe017;" horiz-adv-x="821" 
d="M762 298q0 -84 -50 -154t-126 -105t-152 -27v-131q0 -32 13 -63t38 -31v-14h-166v14q23 0 37 32t14 62v566q0 28 -13.5 51t-37.5 23v14q43 0 64 34.5t21 74.5q0 61 -39.5 90.5t-84.5 29.5q-39 0 -74 -29.5t-35 -76.5q0 -20 -11 -36t-30 -16q-51 0 -51 55q0 46 54 90
t144 44t141 -81.5t23 -178.5q25 1 37 1.5t22 0.5q115 0 188.5 -62.5t73.5 -176.5zM502 499q-68 0 -68 -66v-389q99 -10 179 63.5t80 182.5q0 99 -49.5 154t-141.5 55zM171 103q0 -29 16.5 -60t39.5 -31v-12h-173v12q23 0 39.5 31t16.5 60v334q0 28 -12.5 49.5t-36.5 21.5v15
l110 22v-442z" />
    <glyph glyph-name="j.alt" unicode="&#xe018;" horiz-adv-x="252" 
d="M179 545v-495q0 -132 -63 -214.5t-156 -82.5v20q50 3 101.5 72t51.5 165v397q0 29 -19 66t-42 37v12zM139 620q-18 0 -30.5 13t-12.5 31q0 19 12.5 31.5t30.5 12.5q19 0 31.5 -12.5t12.5 -31.5q0 -18 -12.5 -31t-31.5 -13z" />
    <glyph glyph-name="o_f" unicode="&#xe01a;" horiz-adv-x="821" 
d="M478 295q0 -90 -61 -151.5t-154 -61.5q-92 0 -152.5 61.5t-60.5 151.5q0 87 61 148.5t152 61.5q93 0 154 -61.5t61 -148.5zM734 723q51 0 89 -30t38 -71q0 -50 -34 -50q-10 0 -18.5 4t-11.5 8l-3 5q0 10 -1.5 23.5t-6.5 35.5t-18.5 36t-32.5 14q-33 0 -56.5 -35.5
t-23.5 -98.5v-137h135l-6 -32h-129q0 -272 -77.5 -425t-221.5 -153q-50 0 -98 31.5t-58 78.5q-5 24 6 43.5t32 19.5q15 0 21 -10l4 -10q0 -42 8 -63q24 -59 99 -59q48 0 85 23t60 68t37.5 93.5t21 117.5t8.5 122t2 123h-56v32h56q-1 6 -1.5 16.5t0.5 41.5t4.5 59t14 62
t26 58.5t43 41.5t63.5 17zM126 296q5 -77 52.5 -129.5t101.5 -52.5t92 52.5t31 129.5q-5 76 -53 128t-105 52q-53 0 -89.5 -52t-29.5 -128z" />
    <glyph glyph-name="s_h" unicode="&#xe01b;" horiz-adv-x="1065" 
d="M971 108q0 -30 14.5 -63t36.5 -33v-12h-166v12q23 0 37 32.5t14 63.5v245q0 74 -26.5 103.5t-77.5 29.5q-33 0 -89 -41t-78 -70v-267q0 -35 11.5 -65.5t39.5 -30.5v-12h-167v12q28 0 39.5 30.5t11.5 65.5v577q0 32 -25.5 56.5t-66.5 24.5q-81 0 -127 -35.5t-46 -101.5
q0 -47 26 -80q8 -11 32 -30t39 -38t15 -41t-19 -36t-40 -6q-2 15 -23 49t-28 51q-24 18 -54 18q-49 0 -79 -33t-30 -70q0 -32 29.5 -58.5t71.5 -46t83.5 -41t71 -54.5t29.5 -75q0 -71 -53.5 -108t-135.5 -37q-68 0 -126.5 45t-58.5 90q0 30 13 46.5t25 17.5l13 2
q-16 -42 29 -102t122 -60q44 0 79 28.5t35 63.5q0 32 -29.5 56t-71 42t-83.5 38.5t-71.5 57.5t-29.5 87q0 56 50 96.5t118 42.5q23 0 36 -2q-23 40 -23 94q0 148 212 148q30 0 54.5 -2t53 -5t48.5 -4v-345q28 38 84 76t106 38q76 0 110.5 -42.5t34.5 -146.5v-245z" />
    <glyph glyph-name="s_k" unicode="&#xe01c;" horiz-adv-x="1028" 
d="M636 292l121 135q57 63 49 89q-2 10 -16 10v9h156v-9q-13 0 -23 -2t-23 -9.5t-21.5 -14t-27.5 -25.5t-33 -34t-45 -48t-56 -60q147 -27 203 -210q19 -61 35 -86t47 -25v-12h-168v12q36 0 24 68q-13 80 -67 151q-51 67 -102 68l-53 -57v-134q0 -31 14 -63.5t37 -32.5v-12
h-167v12q23 0 37 32.5t14 63.5v577q0 33 -26 57t-70 24q-78 0 -123.5 -35.5t-45.5 -101.5q0 -51 34 -89q7 -7 30.5 -26t35.5 -35.5t12 -37.5q0 -24 -19 -37.5t-40 -5.5q-6 19 -25 51.5t-27 50.5q-35 16 -53 16q-49 0 -79 -33t-30 -70q0 -33 29.5 -59.5t71.5 -46t83.5 -41
t71 -54.5t29.5 -76q0 -60 -47 -101.5t-142 -41.5q-68 0 -126.5 45t-58.5 90q0 30 13 46.5t25 17.5l13 2q-16 -42 29 -102t122 -60q43 0 79 29t36 63q0 32 -29.5 55.5t-71.5 41.5t-84 39t-71.5 58.5t-29.5 88.5q0 58 53.5 98t118.5 40q16 0 31 -3q-8 16 -15 46t-7 44
q0 152 207 152q30 0 55.5 -2t55.5 -5t50 -4v-481z" />
    <glyph glyph-name="N_o" unicode="&#xe01e;" horiz-adv-x="1178" 
d="M770 161h270v-32h-270v32zM516 700h128v-14q-22 0 -35.5 -30.5t-13.5 -59.5l-5 -596h-20q-68 69 -116 143q-50 77 -166 236.5t-150 211.5l2 -488q0 -29 13 -59t35 -30v-14h-129v14q22 0 35.5 30t13.5 59l4 523q-2 3 -10.5 22.5t-18 28.5t-25.5 9v14h89q13 0 21 -11
l402 -576l-6 483q0 29 -13.5 59.5t-34.5 30.5v14zM1112 444q0 -85 -58.5 -144t-147.5 -59q-88 0 -146 59t-58 144q0 84 58 142.5t146 58.5q89 0 147.5 -58.5t58.5 -142.5zM786 445q6 -75 45.5 -124t90.5 -49q50 0 80 48.5t25 124.5q-5 74 -45.5 124t-93.5 50
q-49 0 -78.5 -49.5t-23.5 -124.5z" />
    <glyph glyph-name="n_o" unicode="&#xe01f;" horiz-adv-x="1025" 
d="M518 353v-248q0 -37 14 -65t37 -28v-12h-167v12q24 0 37.5 28.5t13.5 64.5v248q0 137 -108 137q-53 0 -102.5 -33t-70.5 -62v-290q0 -32 14 -62.5t37 -30.5v-12h-167v12q24 0 37.5 29.5t13.5 63.5v334q0 29 -11 50t-35 21v12l101 13l10 -98q29 38 81.5 71.5t101.5 33.5
q163 0 163 -189zM1005 354q0 -80 -55 -134.5t-138 -54.5q-82 0 -136.5 54.5t-54.5 134.5q0 79 54.5 134t136.5 55q83 0 138 -55t55 -134zM700 356q5 -70 42.5 -116.5t84.5 -46.5t75 46t23 117q-4 69 -42 115.5t-87 46.5q-47 0 -74.5 -46.5t-21.5 -115.5z" />
    <glyph glyph-name="A.swsh" unicode="&#xe021;" horiz-adv-x="655" 
d="M1315 -52l2 -3q-179 -169 -392 -169q-169 0 -282.5 103t-182.5 303h-303l-29 -85q-11 -36 -0.5 -59.5t35.5 -23.5v-14h-137v14q38 0 67 89l200 561q-16 27 -32 38.5t-41 11.5q-27 0 -56.5 -24.5t-41.5 -53.5h-9q15 50 58 82t80 32q90 0 120 -85q20 -56 47.5 -141
t47 -147.5t49 -141.5t58 -135.5t71 -114.5t89.5 -94t111 -58.5t139 -22.5q76 0 154 36.5t178 101.5zM168 210h281q-22 59 -70 212.5t-70 203.5z" />
    <glyph glyph-name="B.swsh" unicode="&#xe022;" horiz-adv-x="793" 
d="M559 436q61 -7 117 -52t56 -117q0 -113 -129 -190t-314 -77h-73v14q24 0 36.5 17t12.5 44v463q-4 27 -21 52t-37 25v15h187v-15q-22 0 -40.5 -31t-18.5 -58v-189q12 9 52 33.5t64.5 42t55.5 44.5t46.5 56t15.5 59q0 64 -64 113.5t-139 49.5t-141 -33.5t-107 -83.5
t-61 -109.5t-11 -112.5l-20 14q0 93 34.5 166.5t88.5 114t111 61t112 20.5q135 0 205.5 -51.5t70.5 -130.5q0 -51 -22.5 -86t-66.5 -68zM372 43q92 0 184 67t92 152q0 48 -32.5 82t-97.5 34q-70 0 -183 -77v-213q0 -30 7.5 -37.5t29.5 -7.5z" />
    <glyph glyph-name="C.swsh" unicode="&#xe023;" horiz-adv-x="605" 
d="M420 745q-104 0 -191.5 -122t-87.5 -279q0 -105 31 -194t80 -146.5t111 -98t122 -58.5t116 -18q180 0 316 140l11 -9q-18 -25 -40 -48t-64.5 -55.5t-105.5 -52.5t-136 -20q-96 0 -188.5 38t-167 107t-120.5 175t-46 231q0 173 112 306.5t260 133.5q75 0 125 -50.5
t50 -104.5q0 -57 -40 -57q-8 0 -14.5 2.5t-8.5 5.5l-3 3q0 10 -2 26.5t-9.5 43t-20 48t-36 37.5t-53.5 16z" />
    <glyph glyph-name="D.swsh" unicode="&#xe024;" horiz-adv-x="821" 
d="M392 772q152 0 260.5 -95.5t108.5 -219.5q0 -99 -46 -186.5t-119.5 -145.5t-165.5 -91.5t-185 -33.5h-29v14q23 0 36 17.5t13 42.5v461q0 29 -14 55t-34 26v14h167v-14q-22 0 -35.5 -25.5t-13.5 -55.5v-456q0 -36 32 -26q133 45 222.5 148.5t89.5 246.5q0 81 -46 149
t-112.5 104t-133.5 36q-139 0 -244 -99.5t-93 -244.5l-24 17q0 75 25 138t64.5 103.5t89 68.5t97 40t90.5 12z" />
    <glyph glyph-name="E.swsh" unicode="&#xe025;" horiz-adv-x="526" 
d="M1004 -17l6 -4q-14 -30 -35 -59t-57.5 -65.5t-92.5 -59t-122 -22.5q-83 0 -150.5 23.5t-116 56.5t-99.5 66.5t-125.5 57t-168.5 23.5v14q22 0 35.5 30t13.5 59v496q0 29 -13.5 58t-35.5 29v14h423q21 0 21 -23v-137h-14q0 55 -55 95.5t-159 40.5q-97 0 -97 -105v-211
q196 0 196 58h14v-136h-14q0 57 -196 57v-218q0 -43 15.5 -60t48.5 -25q55 -16 123 -52t119.5 -68t115.5 -57t119 -25q48 0 92 11t72.5 25t59 38t44 38t33.5 37z" />
    <glyph glyph-name="F.swsh" unicode="&#xe026;" horiz-adv-x="505" 
d="M864 907q66 0 125.5 -20t99 -51t64.5 -60t38 -55l-6 -4q-34 31 -55.5 47.5t-63 40.5t-94 35.5t-116.5 11.5q-92 0 -330.5 -82t-299.5 -94q-33 -7 -48.5 -24.5t-15.5 -60.5v-231q196 0 196 58h14v-136h-14q0 57 -196 57v-236q0 -29 13.5 -59t34.5 -30v-14h-166v14
q22 0 35.5 30t13.5 59v514q0 29 -13.5 59.5t-35.5 30.5v13q94 0 187 19.5t169 47t149.5 54.5t155 46.5t159.5 19.5z" />
    <glyph glyph-name="G.swsh" unicode="&#xe027;" horiz-adv-x="696" 
d="M655 311q-6 -48 -48 -62v-201q-6 -2 -35 -17.5t-70 -27t-90 -11.5q-53 0 -114.5 30t-114 78.5t-87.5 119.5t-35 144q0 93 28.5 162.5t78.5 108.5t110 57.5t131 18.5q82 0 137 -41t55 -90q0 -18 -11 -33.5t-32 -15.5q-8 0 -15 2.5t-11 5.5l-3 3q0 13 -5 32t-17 45
t-40.5 44t-68.5 18t-82 -20.5t-79 -58t-61 -97.5t-24 -131q0 -76 29 -141.5t72.5 -106t91 -63t88.5 -22.5q50 0 104 23v192q-23 10 -64 46t-85 63.5t-87 27.5q-17 0 -32 -4q24 32 83 32q35 0 70.5 -19t60 -42t55.5 -42t58 -19q25 0 59 12z" />
    <glyph glyph-name="H.swsh" unicode="&#xe028;" horiz-adv-x="856" 
d="M796 686q-22 0 -35 -30.5t-13 -59.5v-493q0 -29 13 -59t35 -30v-14h-167v14q22 0 35 30t13 59v213q-60 39 -150 39q-63 0 -187 -44v-208q0 -29 13.5 -59t34.5 -30v-14h-167v14q22 0 35.5 30t13.5 59v190q-89 -21 -109 -21q-101 0 -148 87l8 7q49 -66 122 -66q56 0 127 30
v266q0 29 -13.5 59.5t-35.5 30.5v14h167v-14q-21 0 -34.5 -30.5t-13.5 -59.5v-238q114 42 182 42q94 0 155 -49v245q0 29 -13 59.5t-35 30.5v14h167v-14z" />
    <glyph glyph-name="J.swsh" unicode="&#xe029;" horiz-adv-x="564" 
d="M354 700h166v-14q-22 0 -35.5 -30.5t-13.5 -59.5v-454q0 -62 -13 -115.5t-39.5 -97.5t-72.5 -69t-107 -25q-102 0 -164 61.5t-62 145.5t57 134.5t120 50.5q65 0 102 -34.5t37 -77.5q0 -30 -13 -49.5t-36 -19.5q14 33 -11 78.5t-75 45.5q-49 0 -78.5 -40t-29.5 -89
q0 -70 49 -117.5t109 -47.5q58 0 95.5 41.5t50.5 95.5t13 119v464q0 29 -13.5 59.5t-35.5 30.5v14z" />
    <glyph glyph-name="K.swsh" unicode="&#xe02a;" horiz-adv-x="606" 
d="M1127 -27l5 -4q-13 -27 -36.5 -56.5t-62 -63t-96.5 -55t-124 -21.5t-124.5 34.5t-101.5 89t-82.5 120t-74 129t-68 114t-72 78t-79.5 18.5l-33 -31v-222q0 -29 13.5 -59t34.5 -30v-14h-167v14q22 0 35.5 30t13.5 59v493q0 29 -13.5 59.5t-35.5 30.5v14h167v-14
q-21 0 -34.5 -30.5t-13.5 -59.5v-236l192 236q67 78 38 89q-4 1 -9 1v14h151v-14q-30 0 -52.5 -17t-71.5 -73l-167 -186q45 0 85.5 -32t73 -83t65 -113t69 -124t77.5 -113t97 -83t121 -32q53 0 96 11.5t77.5 35t56.5 44t50 52.5z" />
    <glyph glyph-name="L.swsh" unicode="&#xe02b;" horiz-adv-x="406" 
d="M1005 -28l6 -3q-11 -22 -25 -44t-41.5 -50.5t-59.5 -50t-79.5 -36.5t-101.5 -15q-73 0 -138.5 23.5t-118 56.5t-106 66.5t-126.5 57t-156 23.5v14q22 0 35.5 30t13.5 59v493q0 29 -13.5 59.5t-35.5 30.5v14h167v-14q-21 0 -34.5 -30.5t-13.5 -59.5v-465q0 -43 15.5 -60
t48.5 -25q46 -13 97 -40.5t94 -55.5t87 -55t91.5 -44t92.5 -17q184 0 301 138z" />
    <glyph glyph-name="M.swsh" unicode="&#xe02c;" horiz-adv-x="847" 
d="M1380 -80l5 -3q-23 -48 -99 -90.5t-151 -42.5q-49 0 -93.5 8t-98 31.5t-98.5 61.5t-88.5 104.5t-73.5 153.5t-48.5 214t-18.5 282l-211 -639h-32q-39 45 -75 147l-140 404l-22 -448q-2 -54 3 -70.5t30 -16.5v-16h-119v16q41 0 48 87l38 507l-18 57q-7 19 -19 19v14h63
q16 0 22 -11l228 -593l201 604h119v-17q-11 0 -17 -7.5t-8.5 -25.5t-3 -30t-0.5 -37v-4.5v-4v-4.5q0 -124 15 -228.5t40.5 -179.5t61.5 -134t75 -96.5t84.5 -61.5t87.5 -33.5t85 -9.5q50 0 115.5 26t112.5 67z" />
    <glyph glyph-name="N.swsh" unicode="&#xe02d;" horiz-adv-x="898" 
d="M785 596l-4 -508q182 -261 442 -261q155 0 331 123l5 -5q-68 -67 -162.5 -118t-205.5 -51q-92 0 -180.5 36.5t-160.5 98.5t-137 137t-121 158.5t-101.5 156t-89 136.5t-73.5 93l2 -489q0 -29 13 -59t35 -30v-14h-129v14q22 0 35.5 30t13.5 59l4 518q-25 29 -39.5 44
t-42.5 31t-56 16q-74 0 -108.5 -58.5t-23.5 -118.5l-10 1q-9 26 -9 53q0 72 42 121.5t126 49.5q51 0 98.5 -25t86.5 -64t87.5 -105.5t87.5 -129.5t101 -157.5t115 -169.5l-3 487q0 29 -13.5 59.5t-34.5 30.5v14h128v-14q-23 0 -37 -31t-12 -59z" />
    <glyph glyph-name="P.swsh" unicode="&#xe02e;" horiz-adv-x="714" 
d="M674 559q0 -39 -24.5 -80.5t-60.5 -74.5t-86 -66.5t-91 -55.5t-86 -43v-136q0 -28 13.5 -58.5t34.5 -30.5v-14h-167v14q22 0 35.5 30t13.5 59v435q-12 78 -48 78v14h167v-14q-22 0 -35.5 -30.5t-13.5 -59.5v-252q100 55 182.5 134t82.5 146q0 64 -59.5 120.5t-158.5 56.5
q-80 0 -149.5 -32.5t-112 -82.5t-63 -108.5t-11.5 -111.5l-24 17q0 75 24.5 137.5t63 102.5t87.5 68t95.5 39.5t89.5 11.5q56 0 107 -11t96 -35t71.5 -67t26.5 -100z" />
    <glyph glyph-name="Q.swsh" unicode="&#xe02f;" horiz-adv-x="839" 
d="M1262 -28l5 -3q-13 -26 -37.5 -56.5t-62.5 -63.5t-93 -54.5t-114 -21.5q-70 0 -130.5 19.5t-108.5 49t-96.5 60t-116.5 57.5t-146 37q-130 20 -216.5 121t-86.5 235q0 149 105 254.5t253 105.5q149 0 254.5 -105.5t105.5 -254.5q0 -115 -65.5 -209t-169.5 -126
q18 -2 54 -16.5t55 -26.5q16 -9 73 -45t81.5 -49.5t69.5 -28.5t85 -15q187 0 302 136zM448 25q114 0 189.5 95.5t63.5 232.5q-12 136 -104 231.5t-206 95.5q-112 0 -186 -95.5t-62 -231.5q13 -137 103.5 -232.5t201.5 -95.5z" />
    <glyph glyph-name="R.swsh" unicode="&#xe030;" horiz-adv-x="658" 
d="M1176 -28l5 -3q-13 -27 -36.5 -56.5t-62 -63t-96.5 -55t-124 -21.5t-124 28t-101 73t-81.5 99t-71.5 108t-63 99t-64 73t-69 28q-58 -32 -127 -66v-112q0 -29 13.5 -59t34.5 -30v-14h-167v14q22 0 35.5 30t13.5 59v493q0 29 -13.5 59.5t-35.5 30.5v14h266q83 0 135 -41.5
t52 -111.5q0 -56 -39.5 -117.5t-96.5 -103.5q38 -8 73 -39.5t64 -76t58.5 -96t63 -102t71 -91.5t88.5 -66.5t109 -25.5q155 0 290 143zM161 604v-354q106 47 180.5 130t74.5 163q0 56 -40.5 88.5t-81.5 32.5h-75q-23 0 -40.5 -18t-17.5 -42z" />
    <glyph glyph-name="S.swsh" unicode="&#xe031;" horiz-adv-x="642" 
d="M222 570q0 -40 26.5 -77t66.5 -63t86.5 -56.5t86.5 -57.5t66.5 -66t26.5 -83q0 -98 -80.5 -176.5t-193.5 -78.5q-37 0 -79 11.5t-83 34.5t-67.5 65.5t-26.5 96.5q0 70 50.5 117.5t115.5 47.5t99 -33t34 -76q0 -29 -15 -50t-36 -23q15 41 -4 82.5t-77 41.5
q-42 0 -71 -31.5t-29 -76.5q0 -64 60 -117.5t135 -53.5q87 0 142 60.5t55 122.5q0 43 -26 80.5t-64.5 63t-84 55.5t-84 57t-64.5 68t-26 89q0 79 50.5 121t141.5 42q97 0 151 -41t54 -85q0 -30 -18 -46t-54 -7q0 12 -6.5 34t-20 50t-41.5 48t-65 20q-52 0 -91.5 -34
t-39.5 -76z" />
    <glyph glyph-name="T.swsh" unicode="&#xe032;" horiz-adv-x="680" 
d="M1123 879q127 0 216.5 -54t117.5 -111l-4 -3q-24 25 -61.5 51t-111 51.5t-151.5 25.5q-60 0 -180 -46t-254.5 -100t-212.5 -67l-1 -523q0 -29 13 -59t35 -30v-14h-166v14q21 0 34.5 30.5t13.5 58.5v517q-287 9 -398 98l5 7q137 -54 311 -54q94 0 187.5 21.5t169 52
t146.5 61t147 52t144 21.5z" />
    <glyph glyph-name="V.swsh" unicode="&#xe033;" horiz-adv-x="646" 
d="M924 887q67 0 127.5 -18t102 -46t69 -56t39.5 -53l-5 -3q-58 60 -152 100t-181 41q-136 0 -243.5 -94t-149.5 -223l-177 -535h-32q-39 45 -74 147l-160 471q-13 36 -24.5 52t-30.5 16v14h159v-14q-49 0 -22 -89l181 -511l144 449q37 116 110 198t154 118t165 36z" />
    <glyph glyph-name="W.swsh" unicode="&#xe034;" horiz-adv-x="1028" 
d="M1312 890q62 0 121.5 -18.5t101.5 -47t71 -57t43 -53.5l-5 -3q-59 61 -152.5 102t-179.5 42q-138 0 -248.5 -95t-151.5 -225l-165 -535h-31q-40 45 -74 147l-136 389l-142 -536h-42q-39 45 -74 147l-160 471q-13 36 -24.5 52t-30.5 16v14h162v-14q-49 0 -22 -89l182 -517
l161 620h14l215 -619l134 454q51 171 175.5 263t257.5 92z" />
    <glyph glyph-name="X.swsh" unicode="&#xe035;" horiz-adv-x="707" 
d="M1370 -51l3 -4q-141 -169 -356 -169q-91 0 -174.5 31.5t-146.5 79.5t-124.5 121.5t-103 139.5t-88.5 153l-143 -204q-20 -33 -19 -58t24 -25v-14h-127v14q41 0 104 89l151 222q-9 18 -33.5 69.5t-41.5 85t-44.5 81t-49.5 76.5t-49.5 50t-52.5 21q-23 0 -46.5 -22
t-29.5 -50h-10q5 52 38.5 82t78.5 30q38 0 66.5 -15.5t60.5 -58.5t65 -102t88 -163q2 -4 3 -6.5t3 -5.5t3 -6l140 206q18 27 24 47.5t-1 31t-24 10.5v14h121v-14q-23 0 -43 -19.5t-54 -69.5l-153 -225q89 -162 149 -257q191 -298 487 -298q132 0 305 132z" />
    <glyph glyph-name="Y.swsh" unicode="&#xe036;" horiz-adv-x="586" 
d="M862 890q126 0 217 -58.5t120 -117.5l-5 -3q-58 60 -152 100t-181 41q-147 0 -282 -113t-243 -337v-299q0 -29 13 -59t35 -30v-14h-166v14q22 0 35 30t13 59v265l-143 229q-26 45 -46.5 67t-43.5 22v14h179v-14q-45 0 -10 -71l118 -186q52 122 122 214.5t143.5 144.5
t143 77t133.5 25z" />
    <glyph glyph-name="Z.swsh" unicode="&#xe037;" horiz-adv-x="573" 
d="M1040 -28l6 -3q-11 -22 -25 -44t-41.5 -50.5t-59.5 -50t-79.5 -36.5t-101.5 -15q-83 0 -152.5 23.5t-121 56.5t-105.5 66.5t-130.5 57t-170.5 23.5q0 74 33 150.5t87 144t110 127t113.5 124.5t86.5 113h-214q-76 0 -110 -11.5t-34 -44.5h-14l8 97h457q0 -33 -37 -85
t-93.5 -112t-115.5 -123.5t-111.5 -135.5t-72.5 -131q-5 -9 -2.5 -18t2.5 -14t6.5 -10.5t9.5 -8.5t12 -6.5t14.5 -5t15.5 -4.5t16 -5q86 -27 167 -68.5t128.5 -72t105 -53.5t112.5 -23q59 0 109.5 14t88 41t58.5 46t45 47z" />
    <glyph glyph-name="a.swsh" unicode="&#xe038;" horiz-adv-x="823" 
d="M675 284v11q55 0 95 -55t40 -112q0 -108 -64.5 -178t-166.5 -70q-63 0 -119 49.5t-62 122.5q-22 -25 -70 -45t-97 -20q-68 0 -118.5 34t-50.5 100q0 44 34 79.5t82.5 58.5t97.5 43t83 43.5t34 50.5v30q0 27 -27.5 54t-70.5 27q-61 0 -92.5 -41.5t-31.5 -89.5
q-11 -10 -30 -10q-7 0 -14 2t-16 13t-9 30q0 49 57.5 90.5t145.5 41.5q27 0 51 -6.5t49 -23t39.5 -50.5t14.5 -83v-239q0 -106 42.5 -163.5t110.5 -57.5q75 0 125.5 63t50.5 153q0 49 -37.5 98.5t-75.5 49.5zM393 109v216q-22 -16 -73 -42t-88.5 -46t-68 -52.5t-30.5 -67.5
q0 -39 29 -66t73 -27q54 0 99.5 27.5t58.5 57.5z" />
    <glyph glyph-name="c.swsh" unicode="&#xe039;" horiz-adv-x="1015" 
d="M812 144q94 0 142 -53t48 -126q0 -45 -16 -72.5t-60 -39.5q-1 0 -2.5 2.5t-1.5 4.5l-1 3q47 13 47 58q0 29 -9 61t-27.5 62t-50.5 49.5t-73 19.5q-43 0 -121.5 -33.5t-167.5 -67t-158 -33.5q-121 0 -211 88t-90 204q0 119 71.5 194t182.5 75q87 0 146 -51.5t59 -103.5
q0 -46 -41 -46q-11 0 -19.5 3.5t-10.5 7.5l-3 3q0 11 -7 34.5t-22 52.5t-44.5 50t-66.5 21q-56 0 -109.5 -59.5t-53.5 -155.5q0 -111 65 -192.5t171 -81.5q64 0 226 61t208 61z" />
    <glyph glyph-name="d.swsh" unicode="&#xe03a;" horiz-adv-x="837" 
d="M689 295q56 0 95.5 -50.5t39.5 -106.5q0 -109 -64.5 -181.5t-166.5 -72.5q-66 0 -122.5 50t-63.5 118q-21 -28 -54 -43t-66 -15q-107 0 -167 69t-60 174q0 128 97 213t217 85h33v92q0 34 -14 57.5t-41 23.5v12l120 30v-619q0 -95 36 -149.5t95 -54.5q86 0 141 60t55 154
q0 51 -35.5 96.5t-74.5 45.5v12zM299 42q40 0 70 20t38 41v397h-53q-78 0 -149 -78.5t-71 -174.5q0 -100 45 -152.5t120 -52.5z" />
    <glyph glyph-name="e.swsh" unicode="&#xe03b;" horiz-adv-x="1003" 
d="M802 153q50 0 88.5 -18.5t59 -48.5t30.5 -63t10 -68q0 -43 -15 -66t-60 -35q-1 0 -2 2t-1 4l-1 3q47 13 47 58q0 33 -6 63.5t-21.5 64t-49.5 54t-83 20.5q-43 0 -121.5 -36t-167.5 -72t-158 -36q-117 0 -204 86t-87 206q0 112 71.5 191t168.5 79q96 0 159 -61.5
t63 -144.5q0 -31 -13.5 -45.5t-43.5 -14.5l-334 -2q5 -99 75.5 -175t165.5 -76q58 0 144.5 32.5t166 65.5t119.5 33zM296 508q-70 0 -120 -69t-47 -136l327 4q0 85 -47 143t-113 58z" />
    <glyph glyph-name="g.swsh" unicode="&#xe03c;" horiz-adv-x="623" 
d="M508 599q27 0 48 -15.5t21 -40.5q0 -16 -7.5 -27.5t-18.5 -11.5q-5 0 -12.5 13t-19 25.5t-26.5 12.5q-13 0 -30.5 -14t-30.5 -35q43 -30 71 -79t28 -101q0 -88 -67 -147t-164 -59q-55 0 -117 31q-52 -42 -18 -71q35 -30 149 -30q37 0 64 -2t57.5 -9t49.5 -19.5t32 -35
t13 -53.5q0 -58 -65 -109t-172 -51q-47 0 -104.5 27.5t-112 55t-95.5 27.5t-69.5 -19.5t-36.5 -39.5l-8 -19q-29 55 10.5 100t96.5 45q33 0 78 -22t83 -48.5t83 -48.5t77 -22q71 0 110 32.5t39 81.5q0 24 -13.5 41t-30 25t-46 12.5t-46 5t-45.5 0.5q-74 0 -125.5 19
t-51.5 57q0 27 18.5 53.5t39.5 44.5q-71 63 -71 151q0 90 66 151t161 61q58 0 107 -23q49 80 101 80zM313 155q62 0 105.5 47.5t37.5 129.5q-6 83 -55.5 130t-111.5 47q-54 0 -97.5 -48t-37.5 -129q6 -83 52.5 -130t106.5 -47z" />
    <glyph glyph-name="h.swsh" unicode="&#xe03d;" horiz-adv-x="878" 
d="M730 295q56 0 95.5 -50.5t39.5 -106.5q0 -109 -65 -183.5t-166 -74.5q-72 0 -134 54t-62 160v259q0 72 -26.5 102.5t-65.5 30.5q-47 0 -100.5 -39t-78.5 -72v-267q0 -33 12 -64.5t39 -31.5v-12h-167v12q27 0 39 31.5t12 64.5v548q0 29 -13.5 52.5t-37.5 23.5v12l116 29
v-345q29 39 85 76.5t110 37.5q71 0 105.5 -43t34.5 -146v-212q0 -110 46.5 -164t118.5 -54q66 0 121 67.5t55 155.5q0 55 -36.5 96.5t-76.5 41.5v11z" />
    <glyph glyph-name="i.swsh" unicode="&#xe03e;" horiz-adv-x="525" 
d="M387 290q55 0 90 -47.5t35 -104.5q0 -110 -60.5 -183t-160.5 -73q-32 0 -63.5 11.5t-60 35.5t-46.5 66.5t-18 98.5v338q0 32 -12.5 56t-36.5 24v12l110 21v-424q0 -95 37 -146.5t100 -51.5q76 0 132.5 67t56.5 156q0 49 -32.5 90t-70.5 41v13zM122 620q-17 0 -30 13.5
t-13 31.5q0 17 13 30t30 13q18 0 31 -13t13 -30q0 -18 -13 -31.5t-31 -13.5z" />
    <glyph glyph-name="j.swsh" unicode="&#xe03f;" horiz-adv-x="252" 
d="M52 510v12l127 23v-525q-1 -67 -13 -119.5t-47 -91t-91 -38.5q-38 0 -82.5 18.5t-78.5 41.5t-76 41.5t-75 18.5q-45 0 -73.5 -22t-34.5 -44l-6 -22q-27 58 13 102.5t98 44.5q33 0 77.5 -23t81.5 -50.5t81.5 -50.5t76.5 -23q27 0 44.5 17t25.5 48.5t10.5 61t2.5 70.5v407
q0 36 -18.5 69.5t-42.5 33.5zM140 620q-18 0 -31 13t-13 31t12.5 31t30.5 13t31 -12.5t13 -31.5q0 -18 -13 -31t-30 -13z" />
    <glyph glyph-name="k.swsh" unicode="&#xe040;" horiz-adv-x="559" 
d="M891 -64l10 -9q-23 -42 -83 -84.5t-136 -42.5q-47 0 -89.5 27.5t-75 71.5t-62.5 97t-57 106t-54 97.5t-59 72t-65 27.5l-53 -57v-134q0 -31 14 -63.5t37 -32.5v-12h-167v12q23 0 37 32.5t14 63.5v547q0 29 -13.5 52.5t-37.5 23.5v12l116 30v-481l122 135q57 63 48 89
q-2 10 -16 10v9h156v-9q-13 0 -24.5 -2.5t-24.5 -11t-23.5 -16.5t-29 -27t-32.5 -34t-43 -46t-52 -56q59 -9 111 -62t90.5 -121.5t75.5 -136t83 -113.5t97 -46q47 0 100.5 25.5t85.5 56.5z" />
    <glyph glyph-name="l.swsh" unicode="&#xe041;" horiz-adv-x="528" 
d="M391 277v11q54 0 89 -49t35 -101q0 -110 -60 -184t-160 -74q-32 0 -64 12t-61 36t-47.5 67t-18.5 99v565q0 27 -16 49t-40 22v12l121 31v-642q0 -97 37.5 -153.5t101.5 -56.5q67 0 126.5 69t59.5 156q0 49 -32.5 90t-70.5 41z" />
    <glyph glyph-name="m.swsh" unicode="&#xe042;" horiz-adv-x="1182" 
d="M1043 288q55 0 90.5 -49t35.5 -106q0 -106 -66 -179.5t-156 -73.5q-72 0 -134 54t-62 160v259q0 73 -31.5 105t-74.5 32q-45 0 -87.5 -24.5t-55.5 -53.5l3 -36v-268q0 -30 14.5 -63t36.5 -33v-12h-167v12q23 0 37 32.5t14 63.5v245q0 72 -31 104.5t-77 32.5
q-39 0 -91.5 -34t-73.5 -61v-287q0 -31 14 -63.5t37 -32.5v-12h-167v12q23 0 37 32.5t14 63.5v322q0 31 -11.5 56t-34.5 25v12l101 12l10 -97q22 32 79 68t104 36q55 0 94.5 -30t49.5 -64q26 38 73.5 66t93.5 28q25 0 51 -10t50.5 -30.5t40.5 -59.5t16 -89v-222
q0 -96 35 -150.5t93 -54.5q84 0 141.5 65t57.5 155q0 49 -32.5 90t-70.5 41v11z" />
    <glyph glyph-name="n.swsh" unicode="&#xe043;" horiz-adv-x="865" 
d="M725 289q55 0 91 -47.5t36 -104.5q0 -107 -65.5 -182t-157.5 -75q-32 0 -63 12t-59.5 36t-46 67t-17.5 99v259q0 137 -107 137q-53 0 -100.5 -30.5t-73.5 -64.5v-287q0 -31 14 -63.5t37 -32.5v-12h-167v12q23 0 37 32.5t14 63.5v324q0 30 -11.5 54t-34.5 24v12l101 13
l10 -98q31 40 82 72.5t107 32.5q71 0 114 -44.5t43 -144.5v-224q0 -96 35 -152t93 -56q77 0 134.5 67.5t57.5 157.5q0 49 -32.5 90t-70.5 41v12z" />
    </font>
</defs>
</svg>
