<svg xmlns="http://www.w3.org/2000/svg" xmlns:xlink="http://www.w3.org/1999/xlink" version="1.1" x="0px" y="0px" viewBox="0 0 100 125" style="enable-background:new 0 0 100 100;" xml:space="preserve"><g><path
 fill="white" d="M64.1,37c0-0.8-0.6-1.4-1.4-1.4s-1.4,0.6-1.4,1.4c0,0.1,0,0.1,0,0.2l-16.9,0.4c-1.3-1-4.5,0.4-4.8,0.5l0,0c0,0,0,0,0,0   c0,0,0,0,0,0l0.1,0c0.3,0.1,3.7,1.2,4.8,0l16.9-0.4l0,0c0.2,0.4,0.7,0.7,1.2,0.7c0,0,0,0,0,0l-0.1,8.3c-1.1,1.4,0.3,5.1,0.4,5.4   l0,0.1c0,0,0,0,0,0c0,0,0,0,0,0l0-0.1c0.1-0.3,1.2-4.1,0-5.4l0.1-8.3C63.7,38.1,64.1,37.6,64.1,37z M61.8,37c0-0.5,0.4-0.9,0.9-0.9   c0.5,0,0.9,0.4,0.9,0.9c0,0.5-0.4,0.9-0.9,0.9C62.2,37.9,61.8,37.5,61.8,37z"/><path fill="white" d="M70,44.7c0-0.4,0.2-1.1,0.4-1.6c2.3-3.8,1.6-9.4,1.1-13.8c-0.1-0.6-0.1-1.2-0.2-1.8c-0.6-5.6-6.7-6.7-6.9-6.7   c-2.5-0.5-23-4.3-29.8,3.2c0-1.7-0.6-3-1.7-3.4c-1.8-0.7-4.1,1.4-5.3,4.5c-1.2,3.1-0.7,6.2,1.1,6.9c1,0.4,2.3-0.2,3.4-1.4   c-0.3,2.4,0,5.4,1.8,8.1c3.3,4.8,10.5,7.1,21.3,6.6c0.4,0,0.5,0.1,0.5,0.2c0.9,1.2,0.1,5.7-1.2,9.3c-0.9,3.7,3.3,9.8,4,10.9   c0.2,0.4,0,1.9-0.4,3.1c-0.5,1.2-0.3,3.6,0.6,7.2c0.7,2.1,1.9,2.8,2.7,3.1c0.4,0.1,0.7,0.2,1,0.2c1.2,0,2.2-0.6,2.6-0.9   c1.3-0.7,1.5-2.5,1.3-3.9c0-1,1.3-3.8,2.2-5.5c1.1-1.3,1-4,0.4-8.5c-0.1-0.5-0.1-0.9-0.1-1.2c-0.1-0.6,0.3-1.3,1.2-2.8   c0.5-0.8,1.1-1.8,1.7-3.1C73.8,49.9,71,45.9,70,44.7z M33.8,23.8c0,0-0.7-2.3-3.5-1.8C30.4,22,33.3,20.4,33.8,23.8z M33.3,24.8   c0,0-0.8-2.2-3.6-1.8C29.7,23.1,32.7,21.5,33.3,24.8z M32.6,25.8c0,0-0.7-2-3.7-1.8C29,24,32.3,22.8,32.6,25.8z M27.7,29.3   c1.7,2.2,3.8,0.9,3.8,0.9C28.8,32.4,27.7,29.3,27.7,29.3z M27.6,28c1.8,2.2,3.9,1.1,3.9,1.1C28.9,31.2,27.6,28,27.6,28z M27.8,26.8   c2.1,2.1,3.9,1.1,3.9,1.1C29.5,29.9,27.8,26.8,27.8,26.8z M28.1,25.9c2.2,2.1,3.9,1.2,3.9,1.2C29.9,28.8,28.1,25.9,28.1,25.9z    M28.3,25.2c0,0,3.3-1,3.7,1.7C32,26.8,31.3,25,28.3,25.2z M69.2,52.3c-0.6,1.2-1.1,2.1-1.6,2.9c-1,1.6-1.7,2.9-1.6,4.6   c0,0.3,0.1,0.8,0.2,1.3c0.2,1.3,0.7,5.4,0.3,6.2l-0.3,0.4c-0.4,0.8-2.5,4.9-2.6,7.1c0,0.5,0,1-0.1,1.3c-0.3,0.2-0.8,0.4-1,0.3   c-0.3-0.1-0.5-0.5-0.7-1c-0.5-2.2-0.9-4.6-0.8-5.1l0.2-0.3c0.3-0.9,1.1-4,0-5.8c-1.8-2.5-4-6.8-3.7-8.4c0.5-1.5,3-8.9,0.7-12   c-0.5-0.7-1.4-1.4-2.9-1.4c-0.1,0-0.1,0-0.2,0c-9.6,0.4-16.1-1.4-18.7-5.3c-2.8-4.1-0.5-9.5-0.5-9.5c3-6.9,21.1-5,27.9-3.7   c0.2,0,4.1,0.7,4.5,4c0.1,0.6,0.1,1.2,0.2,1.8c0.5,4,1.1,8.9-0.8,12c-0.3,0.6-1.2,2.8-0.5,4.3l0.3,0.4   C67.5,46.4,70.5,49.8,69.2,52.3z"/></g><text x="0" y="115" fill="#000000" font-size="5px" font-weight="bold" font-family="'Helvetica Neue', Helvetica, Arial-Unicode, Arial, Sans-serif">Created by Jason Min</text><text x="0" y="120" fill="#000000" font-size="5px" font-weight="bold" font-family="'Helvetica Neue', Helvetica, Arial-Unicode, Arial, Sans-serif">from the Noun Project</text></svg>